<?xml version="1.0" encoding="UTF-8" standalone="no"?>
<!DOCTYPE svg PUBLIC "-//W3C//DTD SVG 1.1//EN" "http://www.w3.org/Graphics/SVG/1.1/DTD/svg11.dtd">
<svg width="100%" height="100%" viewBox="0 0 13 16" version="1.1" xmlns="http://www.w3.org/2000/svg" xmlns:xlink="http://www.w3.org/1999/xlink" xml:space="preserve" style="fill-rule:evenodd;clip-rule:evenodd;stroke-linejoin:round;stroke-miterlimit:1.41421;">
    <g id="slide_right" transform="matrix(1,0,0,1,0,-1)">
        <path d="M12.061,1.002L12.126,1.008L12.19,1.018L12.254,1.033L12.317,1.052L12.378,1.074L12.438,1.101L12.496,1.132L12.552,1.166L12.605,1.204L12.656,1.245L12.704,1.29L12.749,1.337L12.79,1.387L12.829,1.44L12.864,1.496L12.895,1.553L12.922,1.613L12.945,1.674L12.965,1.737L12.98,1.8L12.991,1.865L12.998,1.93L13,1.995L12.998,2.061L12.992,2.126L12.982,2.19L12.967,2.254L12.948,2.317L12.926,2.378L12.899,2.438L12.868,2.496L12.834,2.552L12.796,2.605L12.755,2.656L12.71,2.704L6.5,8.974L0.29,2.704L0.245,2.656L0.204,2.605L0.166,2.552L0.132,2.496L0.101,2.438L0.074,2.378L0.052,2.317L0.033,2.254L0.018,2.19L0.008,2.126L0.002,2.061L0,1.995L0.002,1.93L0.009,1.865L0.02,1.8L0.035,1.737L0.055,1.674L0.078,1.613L0.105,1.553L0.136,1.496L0.171,1.44L0.21,1.387L0.251,1.337L0.296,1.29L0.344,1.245L0.395,1.204L0.448,1.166L0.504,1.132L0.562,1.101L0.622,1.074L0.683,1.052L0.746,1.033L0.81,1.018L0.874,1.008L0.939,1.002L1.005,1L1.07,1.002L1.135,1.009L1.2,1.02L1.263,1.035L1.326,1.055L1.387,1.078L1.447,1.105L1.504,1.136L1.56,1.171L1.613,1.21L1.663,1.251L1.71,1.296L6.5,6.132L11.29,1.296L11.337,1.251L11.387,1.21L11.44,1.171L11.496,1.136L11.553,1.105L11.613,1.078L11.674,1.055L11.737,1.035L11.8,1.02L11.865,1.009L11.93,1.002L11.995,1L12.061,1.002Z" style="fill:rgb(149,149,149);"/>
    </g>
    <g id="slide_right1" transform="matrix(1,0,0,-1,0,16.9895)">
        <path d="M12.71,2.704L12.755,2.656L12.796,2.605L12.834,2.552L12.868,2.496L12.899,2.438L12.926,2.378L12.948,2.317L12.967,2.254L12.982,2.19L12.992,2.126L12.998,2.061L13,1.995L12.998,1.93L12.991,1.865L12.98,1.8L12.965,1.737L12.945,1.674L12.922,1.613L12.895,1.553L12.864,1.496L12.829,1.44L12.79,1.387L12.749,1.337L12.704,1.29L12.656,1.245L12.605,1.204L12.552,1.166L12.496,1.132L12.438,1.101L12.378,1.074L12.317,1.052L12.254,1.033L12.19,1.018L12.126,1.008L12.061,1.002L11.995,1L11.93,1.002L11.865,1.009L11.8,1.02L11.737,1.035L11.674,1.055L11.613,1.078L11.553,1.105L11.496,1.136L11.44,1.171L11.387,1.21L11.337,1.251L11.29,1.296L6.5,6.132L1.71,1.296L1.663,1.251L1.613,1.21L1.56,1.171L1.504,1.136L1.447,1.105L1.387,1.078L1.326,1.055L1.263,1.035L1.2,1.02L1.135,1.009L1.07,1.002L1.005,1L0.939,1.002L0.874,1.008L0.81,1.018L0.746,1.033L0.683,1.052L0.622,1.074L0.562,1.101L0.504,1.132L0.448,1.166L0.395,1.204L0.344,1.245L0.296,1.29L0.251,1.337L0.21,1.387L0.171,1.44L0.136,1.496L0.105,1.553L0.078,1.613L0.055,1.674L0.035,1.737L0.02,1.8L0.009,1.865L0.002,1.93L0,1.995L0.002,2.061L0.008,2.126L0.018,2.19L0.033,2.254L0.052,2.317L0.074,2.378L0.101,2.438L0.132,2.496L0.166,2.552L0.204,2.605L0.245,2.656L0.29,2.704L6.5,8.974L12.71,2.704Z" style="fill:rgb(149,149,149);"/>
    </g>
</svg>
