<?xml version="1.0" encoding="UTF-8" standalone="no"?><!DOCTYPE svg PUBLIC "-//W3C//DTD SVG 1.1//EN" "http://www.w3.org/Graphics/SVG/1.1/DTD/svg11.dtd"><svg width="100%" height="100%" viewBox="0 0 24 24" version="1.1" xmlns="http://www.w3.org/2000/svg" xmlns:xlink="http://www.w3.org/1999/xlink" xml:space="preserve" xmlns:serif="http://www.serif.com/" style="fill-rule:evenodd;clip-rule:evenodd;stroke-linejoin:round;stroke-miterlimit:2;"><path d="M24,1.44c0,-0.795 -0.645,-1.44 -1.44,-1.44l-21.12,0c-0.795,0 -1.44,0.645 -1.44,1.44l0,21.12c0,0.795 0.645,1.44 1.44,1.44l21.12,0c0.795,0 1.44,-0.645 1.44,-1.44l0,-21.12Z" style="fill:none;"/><path d="M12.061,14.176l0,9.824l4.035,0l0,-9.824l3,0l0,-2.9l-3,0l0,-1.352c0,-1.361 0.655,-2.051 1.948,-2.051c0.514,0.008 1.022,0.109 1.5,0.3l0,-3.056c-0.668,-0.18 -1.359,-0.263 -2.051,-0.248c-1.444,-0.077 -2.864,0.399 -3.971,1.33c-0.976,0.896 -1.511,2.176 -1.462,3.5l0,1.578l-2.205,0l0,2.9l2.206,-0.001Z" style="fill:#fff;"/></svg>