<?xml version="1.0" encoding="UTF-8" standalone="no"?><!DOCTYPE svg PUBLIC "-//W3C//DTD SVG 1.1//EN" "http://www.w3.org/Graphics/SVG/1.1/DTD/svg11.dtd"><svg width="100%" height="100%" viewBox="0 0 24 24" version="1.1" xmlns="http://www.w3.org/2000/svg" xmlns:xlink="http://www.w3.org/1999/xlink" xml:space="preserve" xmlns:serif="http://www.serif.com/" style="fill-rule:evenodd;clip-rule:evenodd;stroke-linejoin:round;stroke-miterlimit:2;"><path d="M24,1.44c0,-0.795 -0.645,-1.44 -1.44,-1.44l-21.12,0c-0.795,0 -1.44,0.645 -1.44,1.44l0,21.12c0,0.795 0.645,1.44 1.44,1.44l21.12,0c0.795,0 1.44,-0.645 1.44,-1.44l0,-21.12Z" style="fill:none;"/><path d="M3.899,17.093c1.521,0.975 3.29,1.492 5.096,1.491c2.68,0.062 5.255,-1.067 7.023,-3.082c1.551,-1.763 2.417,-4.028 2.437,-6.377c0,-0.155 0,-0.3 -0.011,-0.429c0.652,-0.47 1.214,-1.053 1.66,-1.722c-0.607,0.268 -1.251,0.444 -1.91,0.521c0.695,-0.414 1.215,-1.069 1.461,-1.84c-0.651,0.389 -1.365,0.661 -2.109,0.805c-0.629,-0.668 -1.507,-1.047 -2.424,-1.047c-1.825,0 -3.327,1.5 -3.33,3.325c0.001,0.255 0.03,0.509 0.087,0.757c-2.67,-0.137 -5.161,-1.4 -6.851,-3.473c-0.296,0.506 -0.452,1.082 -0.451,1.669c-0.002,1.11 0.553,2.151 1.476,2.768c-0.528,-0.017 -1.044,-0.16 -1.506,-0.417l0,0.045c0.003,1.575 1.123,2.943 2.667,3.256c-0.285,0.08 -0.579,0.12 -0.875,0.118c-0.21,0.001 -0.419,-0.019 -0.625,-0.059c0.433,1.351 1.686,2.282 3.104,2.309c-1.396,1.086 -3.165,1.581 -4.922,1.377l0.003,0.005Z" style="fill:#fff;"/></svg>