<svg xmlns="http://www.w3.org/2000/svg" xmlns:xlink="http://www.w3.org/1999/xlink" width="576" height="176" viewBox="0 0 576 176"><defs><style>.a{fill:#e2e2e2;}.b,.e,.f{opacity:0.12;}.b,.c,.e,.f{mix-blend-mode:overlay;isolation:isolate;}.b{clip-path:url(#a);}.c{opacity:0.59;}.d{fill:#fff;}.e{clip-path:url(#b);}.f{clip-path:url(#c);}.g,.h{stroke:none;}.h{fill:#707070;}</style><clipPath id="a"><rect class="a" width="192" height="176"/></clipPath><clipPath id="b"><rect class="a" width="192" height="176" transform="translate(-0.332)"/></clipPath><clipPath id="c"><rect class="a" width="192" height="176" transform="translate(0.332)"/></clipPath></defs><g transform="translate(-225 -125)"><g class="b" transform="translate(225 125)"><g class="c" transform="translate(-13.952)"><g transform="translate(13.952)"><g class="d" transform="translate(28 20) rotate(180)"><path class="g" d="M 27.03966903686523 19.5 L 0.9603310227394104 19.5 L 14 0.8719014525413513 L 27.03966903686523 19.5 Z"/><path class="h" d="M 14 1.74378776550293 L 1.920652389526367 19 L 26.07934761047363 19 L 14 1.74378776550293 M 14 0 L 28 20 L 0 20 L 14 0 Z"/></g><g class="d" transform="translate(55 20) rotate(180)"><path class="g" d="M 26.05925559997559 19.5 L 0.9407445192337036 19.5 L 13.5 0.8936955332756042 L 26.05925559997559 19.5 Z"/><path class="h" d="M 13.5 1.787395477294922 L 1.881492614746094 19 L 25.11850738525391 19 L 13.5 1.787395477294922 M 13.5 0 L 27 20 L 0 20 L 13.5 0 Z"/></g><g class="d" transform="translate(83 20) rotate(180)"><path class="g" d="M 27.03966903686523 19.5 L 0.9603310227394104 19.5 L 14 0.8719014525413513 L 27.03966903686523 19.5 Z"/><path class="h" d="M 14 1.74378776550293 L 1.920652389526367 19 L 26.07934761047363 19 L 14 1.74378776550293 M 14 0 L 28 20 L 0 20 L 14 0 Z"/></g><g class="d" transform="translate(111 20) rotate(180)"><path class="g" d="M 27.03966903686523 19.5 L 0.9603310227394104 19.5 L 14 0.8719014525413513 L 27.03966903686523 19.5 Z"/><path class="h" d="M 14 1.74378776550293 L 1.920652389526367 19 L 26.07934761047363 19 L 14 1.74378776550293 M 14 0 L 28 20 L 0 20 L 14 0 Z"/></g><g class="d" transform="translate(138 20) rotate(180)"><path class="g" d="M 26.05925559997559 19.5 L 0.9407445192337036 19.5 L 13.5 0.8936955332756042 L 26.05925559997559 19.5 Z"/><path class="h" d="M 13.5 1.787395477294922 L 1.881492614746094 19 L 25.11850738525391 19 L 13.5 1.787395477294922 M 13.5 0 L 27 20 L 0 20 L 13.5 0 Z"/></g><g class="d" transform="translate(165 20) rotate(180)"><path class="g" d="M 26.05925559997559 19.5 L 0.9407445192337036 19.5 L 13.5 0.8936955332756042 L 26.05925559997559 19.5 Z"/><path class="h" d="M 13.5 1.787395477294922 L 1.881492614746094 19 L 25.11850738525391 19 L 13.5 1.787395477294922 M 13.5 0 L 27 20 L 0 20 L 13.5 0 Z"/></g><g class="d" transform="translate(192 20) rotate(180)"><path class="g" d="M 26.05925559997559 19.5 L 0.9407445192337036 19.5 L 13.5 0.8936955332756042 L 26.05925559997559 19.5 Z"/><path class="h" d="M 13.5 1.787395477294922 L 1.881492614746094 19 L 25.11850738525391 19 L 13.5 1.787395477294922 M 13.5 0 L 27 20 L 0 20 L 13.5 0 Z"/></g></g><g transform="translate(0.997 58.796)"><g class="d" transform="translate(53.955 19.204) rotate(180)"><path class="g" d="M 27.01050186157227 18.5 L 0.9894984364509583 18.5 L 14 0.842890739440918 L 27.01050186157227 18.5 Z"/><path class="h" d="M 14 1.685781478881836 L 1.978996276855469 18 L 26.02100372314453 18 L 14 1.685781478881836 M 14 0 L 28 19 L 0 19 L 14 0 Z"/></g><g class="d" transform="translate(25.955 19.204) rotate(180)"><path class="g" d="M 25.05206489562988 18.5 L 0.9479352831840515 18.5 L 13 0.8854438662528992 L 25.05206489562988 18.5 Z"/><path class="h" d="M 13 1.770902633666992 L 1.895879745483398 18 L 24.1041202545166 18 L 13 1.770902633666992 M 13 0 L 26 19 L 0 19 L 13 0 Z"/></g><g class="d" transform="translate(81.955 19.204) rotate(180)"><path class="g" d="M 27.01050186157227 18.5 L 0.9894984364509583 18.5 L 14 0.842890739440918 L 27.01050186157227 18.5 Z"/><path class="h" d="M 14 1.685781478881836 L 1.978996276855469 18 L 26.02100372314453 18 L 14 1.685781478881836 M 14 0 L 28 19 L 0 19 L 14 0 Z"/></g><g class="d" transform="translate(108.955 19.204) rotate(180)"><path class="g" d="M 26.0313777923584 18.5 L 0.968621551990509 18.5 L 13.5 0.8632451891899109 L 26.0313777923584 18.5 Z"/><path class="h" d="M 13.5 1.726499557495117 L 1.937250137329102 18 L 25.0627498626709 18 L 13.5 1.726499557495117 M 13.5 0 L 27 19 L 0 19 L 13.5 0 Z"/></g><g class="d" transform="translate(136.955 19.204) rotate(180)"><path class="g" d="M 27.01050186157227 18.5 L 0.9894984364509583 18.5 L 14 0.842890739440918 L 27.01050186157227 18.5 Z"/><path class="h" d="M 14 1.685781478881836 L 1.978996276855469 18 L 26.02100372314453 18 L 14 1.685781478881836 M 14 0 L 28 19 L 0 19 L 14 0 Z"/></g><g class="d" transform="translate(163.955 19.204) rotate(180)"><path class="g" d="M 26.0313777923584 18.5 L 0.968621551990509 18.5 L 13.5 0.8632451891899109 L 26.0313777923584 18.5 Z"/><path class="h" d="M 13.5 1.726499557495117 L 1.937250137329102 18 L 25.0627498626709 18 L 13.5 1.726499557495117 M 13.5 0 L 27 19 L 0 19 L 13.5 0 Z"/></g><g class="d" transform="translate(190.955 19.204) rotate(180)"><path class="g" d="M 26.0313777923584 18.5 L 0.968621551990509 18.5 L 13.5 0.8632451891899109 L 26.0313777923584 18.5 Z"/><path class="h" d="M 13.5 1.726499557495117 L 1.937250137329102 18 L 25.0627498626709 18 L 13.5 1.726499557495117 M 13.5 0 L 27 19 L 0 19 L 13.5 0 Z"/></g><g class="d" transform="translate(218.955 19.204) rotate(180)"><path class="g" d="M 27.01050186157227 18.5 L 0.9894984364509583 18.5 L 14 0.842890739440918 L 27.01050186157227 18.5 Z"/><path class="h" d="M 14 1.685781478881836 L 1.978996276855469 18 L 26.02100372314453 18 L 14 1.685781478881836 M 14 0 L 28 19 L 0 19 L 14 0 Z"/></g></g><g transform="translate(0.997 19.931)"><g class="d" transform="translate(190.955 19.069) rotate(180)"><path class="g" d="M 26.0313777923584 18.5 L 0.968621551990509 18.5 L 13.5 0.8632451891899109 L 26.0313777923584 18.5 Z"/><path class="h" d="M 13.5 1.726499557495117 L 1.937250137329102 18 L 25.0627498626709 18 L 13.5 1.726499557495117 M 13.5 0 L 27 19 L 0 19 L 13.5 0 Z"/></g><g class="d" transform="translate(218.955 19.069) rotate(180)"><path class="g" d="M 27.01050186157227 18.5 L 0.9894984364509583 18.5 L 14 0.842890739440918 L 27.01050186157227 18.5 Z"/><path class="h" d="M 14 1.685781478881836 L 1.978996276855469 18 L 26.02100372314453 18 L 14 1.685781478881836 M 14 0 L 28 19 L 0 19 L 14 0 Z"/></g><g class="d" transform="translate(163.955 19.069) rotate(180)"><path class="g" d="M 25.05206489562988 18.5 L 0.9479352831840515 18.5 L 13 0.8854438662528992 L 25.05206489562988 18.5 Z"/><path class="h" d="M 13 1.770902633666992 L 1.895879745483398 18 L 24.1041202545166 18 L 13 1.770902633666992 M 13 0 L 26 19 L 0 19 L 13 0 Z"/></g><g class="d" transform="translate(137.955 19.069) rotate(180)"><path class="g" d="M 27.01050186157227 18.5 L 0.9894984364509583 18.5 L 14 0.842890739440918 L 27.01050186157227 18.5 Z"/><path class="h" d="M 14 1.685781478881836 L 1.978996276855469 18 L 26.02100372314453 18 L 14 1.685781478881836 M 14 0 L 28 19 L 0 19 L 14 0 Z"/></g><g class="d" transform="translate(109.955 19.069) rotate(180)"><path class="g" d="M 26.0313777923584 18.5 L 0.968621551990509 18.5 L 13.5 0.8632451891899109 L 26.0313777923584 18.5 Z"/><path class="h" d="M 13.5 1.726499557495117 L 1.937250137329102 18 L 25.0627498626709 18 L 13.5 1.726499557495117 M 13.5 0 L 27 19 L 0 19 L 13.5 0 Z"/></g><g class="d" transform="translate(82.955 19.069) rotate(180)"><path class="g" d="M 27.01050186157227 18.5 L 0.9894984364509583 18.5 L 14 0.842890739440918 L 27.01050186157227 18.5 Z"/><path class="h" d="M 14 1.685781478881836 L 1.978996276855469 18 L 26.02100372314453 18 L 14 1.685781478881836 M 14 0 L 28 19 L 0 19 L 14 0 Z"/></g><g class="d" transform="translate(54.955 19.069) rotate(180)"><path class="g" d="M 27.01050186157227 18.5 L 0.9894984364509583 18.5 L 14 0.842890739440918 L 27.01050186157227 18.5 Z"/><path class="h" d="M 14 1.685781478881836 L 1.978996276855469 18 L 26.02100372314453 18 L 14 1.685781478881836 M 14 0 L 28 19 L 0 19 L 14 0 Z"/></g><g class="d" transform="translate(26.955 19.069) rotate(180)"><path class="g" d="M 26.0313777923584 18.5 L 0.968621551990509 18.5 L 13.5 0.8632451891899109 L 26.0313777923584 18.5 Z"/><path class="h" d="M 13.5 1.726499557495117 L 1.937250137329102 18 L 25.0627498626709 18 L 13.5 1.726499557495117 M 13.5 0 L 27 19 L 0 19 L 13.5 0 Z"/></g></g><g transform="translate(13.952 77.73)"><g class="d" transform="translate(192 20.27) rotate(180)"><path class="g" d="M 26.05925559997559 19.5 L 0.9407445192337036 19.5 L 13.5 0.8936955332756042 L 26.05925559997559 19.5 Z"/><path class="h" d="M 13.5 1.787395477294922 L 1.881492614746094 19 L 25.11850738525391 19 L 13.5 1.787395477294922 M 13.5 0 L 27 20 L 0 20 L 13.5 0 Z"/></g><g class="d" transform="translate(165 20.27) rotate(180)"><path class="g" d="M 26.05925559997559 19.5 L 0.9407445192337036 19.5 L 13.5 0.8936955332756042 L 26.05925559997559 19.5 Z"/><path class="h" d="M 13.5 1.787395477294922 L 1.881492614746094 19 L 25.11850738525391 19 L 13.5 1.787395477294922 M 13.5 0 L 27 20 L 0 20 L 13.5 0 Z"/></g><g class="d" transform="translate(138 20.27) rotate(180)"><path class="g" d="M 26.05925559997559 19.5 L 0.9407445192337036 19.5 L 13.5 0.8936955332756042 L 26.05925559997559 19.5 Z"/><path class="h" d="M 13.5 1.787395477294922 L 1.881492614746094 19 L 25.11850738525391 19 L 13.5 1.787395477294922 M 13.5 0 L 27 20 L 0 20 L 13.5 0 Z"/></g><g class="d" transform="translate(111 20.27) rotate(180)"><path class="g" d="M 27.03966903686523 19.5 L 0.9603310227394104 19.5 L 14 0.8719014525413513 L 27.03966903686523 19.5 Z"/><path class="h" d="M 14 1.74378776550293 L 1.920652389526367 19 L 26.07934761047363 19 L 14 1.74378776550293 M 14 0 L 28 20 L 0 20 L 14 0 Z"/></g><g class="d" transform="translate(83 20.27) rotate(180)"><path class="g" d="M 27.03966903686523 19.5 L 0.9603310227394104 19.5 L 14 0.8719014525413513 L 27.03966903686523 19.5 Z"/><path class="h" d="M 14 1.74378776550293 L 1.920652389526367 19 L 26.07934761047363 19 L 14 1.74378776550293 M 14 0 L 28 20 L 0 20 L 14 0 Z"/></g><g class="d" transform="translate(55 20.27) rotate(180)"><path class="g" d="M 26.05925559997559 19.5 L 0.9407445192337036 19.5 L 13.5 0.8936955332756042 L 26.05925559997559 19.5 Z"/><path class="h" d="M 13.5 1.787395477294922 L 1.881492614746094 19 L 25.11850738525391 19 L 13.5 1.787395477294922 M 13.5 0 L 27 20 L 0 20 L 13.5 0 Z"/></g><g class="d" transform="translate(28 20.27) rotate(180)"><path class="g" d="M 27.03966903686523 19.5 L 0.9603310227394104 19.5 L 14 0.8719014525413513 L 27.03966903686523 19.5 Z"/><path class="h" d="M 14 1.74378776550293 L 1.920652389526367 19 L 26.07934761047363 19 L 14 1.74378776550293 M 14 0 L 28 20 L 0 20 L 14 0 Z"/></g></g><g transform="translate(13.952 38.865)"><g class="d" transform="translate(192 20.135) rotate(180)"><path class="g" d="M 26.05925559997559 19.5 L 0.9407445192337036 19.5 L 13.5 0.8936955332756042 L 26.05925559997559 19.5 Z"/><path class="h" d="M 13.5 1.787395477294922 L 1.881492614746094 19 L 25.11850738525391 19 L 13.5 1.787395477294922 M 13.5 0 L 27 20 L 0 20 L 13.5 0 Z"/></g><g class="d" transform="translate(165 20.135) rotate(180)"><path class="g" d="M 26.05925559997559 19.5 L 0.9407445192337036 19.5 L 13.5 0.8936955332756042 L 26.05925559997559 19.5 Z"/><path class="h" d="M 13.5 1.787395477294922 L 1.881492614746094 19 L 25.11850738525391 19 L 13.5 1.787395477294922 M 13.5 0 L 27 20 L 0 20 L 13.5 0 Z"/></g><g class="d" transform="translate(138 20.135) rotate(180)"><path class="g" d="M 26.05925559997559 19.5 L 0.9407445192337036 19.5 L 13.5 0.8936955332756042 L 26.05925559997559 19.5 Z"/><path class="h" d="M 13.5 1.787395477294922 L 1.881492614746094 19 L 25.11850738525391 19 L 13.5 1.787395477294922 M 13.5 0 L 27 20 L 0 20 L 13.5 0 Z"/></g><g class="d" transform="translate(111 20.135) rotate(180)"><path class="g" d="M 27.03966903686523 19.5 L 0.9603310227394104 19.5 L 14 0.8719014525413513 L 27.03966903686523 19.5 Z"/><path class="h" d="M 14 1.74378776550293 L 1.920652389526367 19 L 26.07934761047363 19 L 14 1.74378776550293 M 14 0 L 28 20 L 0 20 L 14 0 Z"/></g><g class="d" transform="translate(83 20.135) rotate(180)"><path class="g" d="M 27.03966903686523 19.5 L 0.9603310227394104 19.5 L 14 0.8719014525413513 L 27.03966903686523 19.5 Z"/><path class="h" d="M 14 1.74378776550293 L 1.920652389526367 19 L 26.07934761047363 19 L 14 1.74378776550293 M 14 0 L 28 20 L 0 20 L 14 0 Z"/></g><g class="d" transform="translate(55 20.135) rotate(180)"><path class="g" d="M 26.05925559997559 19.5 L 0.9407445192337036 19.5 L 13.5 0.8936955332756042 L 26.05925559997559 19.5 Z"/><path class="h" d="M 13.5 1.787395477294922 L 1.881492614746094 19 L 25.11850738525391 19 L 13.5 1.787395477294922 M 13.5 0 L 27 20 L 0 20 L 13.5 0 Z"/></g><g class="d" transform="translate(28 20.135) rotate(180)"><path class="g" d="M 27.03966903686523 19.5 L 0.9603310227394104 19.5 L 14 0.8719014525413513 L 27.03966903686523 19.5 Z"/><path class="h" d="M 14 1.74378776550293 L 1.920652389526367 19 L 26.07934761047363 19 L 14 1.74378776550293 M 14 0 L 28 20 L 0 20 L 14 0 Z"/></g></g><g transform="translate(0 96.664)"><g class="d" transform="translate(191.952 20.336) rotate(180)"><path class="g" d="M 26.05925559997559 19.5 L 0.9407445192337036 19.5 L 13.5 0.8936955332756042 L 26.05925559997559 19.5 Z"/><path class="h" d="M 13.5 1.787395477294922 L 1.881492614746094 19 L 25.11850738525391 19 L 13.5 1.787395477294922 M 13.5 0 L 27 20 L 0 20 L 13.5 0 Z"/></g><g class="d" transform="translate(218.952 20.336) rotate(180)"><path class="g" d="M 26.05925559997559 19.5 L 0.9407445192337036 19.5 L 13.5 0.8936955332756042 L 26.05925559997559 19.5 Z"/><path class="h" d="M 13.5 1.787395477294922 L 1.881492614746094 19 L 25.11850738525391 19 L 13.5 1.787395477294922 M 13.5 0 L 27 20 L 0 20 L 13.5 0 Z"/></g><g class="d" transform="translate(164.952 20.336) rotate(180)"><path class="g" d="M 26.05925559997559 19.5 L 0.9407445192337036 19.5 L 13.5 0.8936955332756042 L 26.05925559997559 19.5 Z"/><path class="h" d="M 13.5 1.787395477294922 L 1.881492614746094 19 L 25.11850738525391 19 L 13.5 1.787395477294922 M 13.5 0 L 27 20 L 0 20 L 13.5 0 Z"/></g><g class="d" transform="translate(137.952 20.336) rotate(180)"><path class="g" d="M 27.03966903686523 19.5 L 0.9603310227394104 19.5 L 14 0.8719014525413513 L 27.03966903686523 19.5 Z"/><path class="h" d="M 14 1.74378776550293 L 1.920652389526367 19 L 26.07934761047363 19 L 14 1.74378776550293 M 14 0 L 28 20 L 0 20 L 14 0 Z"/></g><g class="d" transform="translate(109.952 20.336) rotate(180)"><path class="g" d="M 26.05925559997559 19.5 L 0.9407445192337036 19.5 L 13.5 0.8936955332756042 L 26.05925559997559 19.5 Z"/><path class="h" d="M 13.5 1.787395477294922 L 1.881492614746094 19 L 25.11850738525391 19 L 13.5 1.787395477294922 M 13.5 0 L 27 20 L 0 20 L 13.5 0 Z"/></g><g class="d" transform="translate(82.952 20.336) rotate(180)"><path class="g" d="M 27.03966903686523 19.5 L 0.9603310227394104 19.5 L 14 0.8719014525413513 L 27.03966903686523 19.5 Z"/><path class="h" d="M 14 1.74378776550293 L 1.920652389526367 19 L 26.07934761047363 19 L 14 1.74378776550293 M 14 0 L 28 20 L 0 20 L 14 0 Z"/></g><g class="d" transform="translate(54.952 20.336) rotate(180)"><path class="g" d="M 27.03966903686523 19.5 L 0.9603310227394104 19.5 L 14 0.8719014525413513 L 27.03966903686523 19.5 Z"/><path class="h" d="M 14 1.74378776550293 L 1.920652389526367 19 L 26.07934761047363 19 L 14 1.74378776550293 M 14 0 L 28 20 L 0 20 L 14 0 Z"/></g><g class="d" transform="translate(26.952 20.336) rotate(180)"><path class="g" d="M 26.05925559997559 19.5 L 0.9407445192337036 19.5 L 13.5 0.8936955332756042 L 26.05925559997559 19.5 Z"/><path class="h" d="M 13.5 1.787395477294922 L 1.881492614746094 19 L 25.11850738525391 19 L 13.5 1.787395477294922 M 13.5 0 L 27 20 L 0 20 L 13.5 0 Z"/></g></g><g transform="translate(13.952 116.595)"><g class="d" transform="translate(192 19.405) rotate(180)"><path class="g" d="M 26.0313777923584 18.5 L 0.968621551990509 18.5 L 13.5 0.8632451891899109 L 26.0313777923584 18.5 Z"/><path class="h" d="M 13.5 1.726499557495117 L 1.937250137329102 18 L 25.0627498626709 18 L 13.5 1.726499557495117 M 13.5 0 L 27 19 L 0 19 L 13.5 0 Z"/></g><g class="d" transform="translate(165 19.405) rotate(180)"><path class="g" d="M 26.0313777923584 18.5 L 0.968621551990509 18.5 L 13.5 0.8632451891899109 L 26.0313777923584 18.5 Z"/><path class="h" d="M 13.5 1.726499557495117 L 1.937250137329102 18 L 25.0627498626709 18 L 13.5 1.726499557495117 M 13.5 0 L 27 19 L 0 19 L 13.5 0 Z"/></g><g class="d" transform="translate(138 19.405) rotate(180)"><path class="g" d="M 26.0313777923584 18.5 L 0.968621551990509 18.5 L 13.5 0.8632451891899109 L 26.0313777923584 18.5 Z"/><path class="h" d="M 13.5 1.726499557495117 L 1.937250137329102 18 L 25.0627498626709 18 L 13.5 1.726499557495117 M 13.5 0 L 27 19 L 0 19 L 13.5 0 Z"/></g><g class="d" transform="translate(111 19.405) rotate(180)"><path class="g" d="M 27.01050186157227 18.5 L 0.9894984364509583 18.5 L 14 0.842890739440918 L 27.01050186157227 18.5 Z"/><path class="h" d="M 14 1.685781478881836 L 1.978996276855469 18 L 26.02100372314453 18 L 14 1.685781478881836 M 14 0 L 28 19 L 0 19 L 14 0 Z"/></g><g class="d" transform="translate(83 19.405) rotate(180)"><path class="g" d="M 27.01050186157227 18.5 L 0.9894984364509583 18.5 L 14 0.842890739440918 L 27.01050186157227 18.5 Z"/><path class="h" d="M 14 1.685781478881836 L 1.978996276855469 18 L 26.02100372314453 18 L 14 1.685781478881836 M 14 0 L 28 19 L 0 19 L 14 0 Z"/></g><g class="d" transform="translate(55 19.405) rotate(180)"><path class="g" d="M 26.0313777923584 18.5 L 0.968621551990509 18.5 L 13.5 0.8632451891899109 L 26.0313777923584 18.5 Z"/><path class="h" d="M 13.5 1.726499557495117 L 1.937250137329102 18 L 25.0627498626709 18 L 13.5 1.726499557495117 M 13.5 0 L 27 19 L 0 19 L 13.5 0 Z"/></g><g class="d" transform="translate(28 19.405) rotate(180)"><path class="g" d="M 27.01050186157227 18.5 L 0.9894984364509583 18.5 L 14 0.842890739440918 L 27.01050186157227 18.5 Z"/><path class="h" d="M 14 1.685781478881836 L 1.978996276855469 18 L 26.02100372314453 18 L 14 1.685781478881836 M 14 0 L 28 19 L 0 19 L 14 0 Z"/></g></g><g transform="translate(0 135.529)"><g class="d" transform="translate(219.952 20.471) rotate(180)"><path class="g" d="M 27.03966903686523 19.5 L 0.9603310227394104 19.5 L 14 0.8719014525413513 L 27.03966903686523 19.5 Z"/><path class="h" d="M 14 1.74378776550293 L 1.920652389526367 19 L 26.07934761047363 19 L 14 1.74378776550293 M 14 0 L 28 20 L 0 20 L 14 0 Z"/></g><g class="d" transform="translate(191.952 20.471) rotate(180)"><path class="g" d="M 26.05925559997559 19.5 L 0.9407445192337036 19.5 L 13.5 0.8936955332756042 L 26.05925559997559 19.5 Z"/><path class="h" d="M 13.5 1.787395477294922 L 1.881492614746094 19 L 25.11850738525391 19 L 13.5 1.787395477294922 M 13.5 0 L 27 20 L 0 20 L 13.5 0 Z"/></g><g class="d" transform="translate(164.952 20.471) rotate(180)"><path class="g" d="M 26.05925559997559 19.5 L 0.9407445192337036 19.5 L 13.5 0.8936955332756042 L 26.05925559997559 19.5 Z"/><path class="h" d="M 13.5 1.787395477294922 L 1.881492614746094 19 L 25.11850738525391 19 L 13.5 1.787395477294922 M 13.5 0 L 27 20 L 0 20 L 13.5 0 Z"/></g><g class="d" transform="translate(137.952 20.471) rotate(180)"><path class="g" d="M 27.03966903686523 19.5 L 0.9603310227394104 19.5 L 14 0.8719014525413513 L 27.03966903686523 19.5 Z"/><path class="h" d="M 14 1.74378776550293 L 1.920652389526367 19 L 26.07934761047363 19 L 14 1.74378776550293 M 14 0 L 28 20 L 0 20 L 14 0 Z"/></g><g class="d" transform="translate(109.952 20.471) rotate(180)"><path class="g" d="M 26.05925559997559 19.5 L 0.9407445192337036 19.5 L 13.5 0.8936955332756042 L 26.05925559997559 19.5 Z"/><path class="h" d="M 13.5 1.787395477294922 L 1.881492614746094 19 L 25.11850738525391 19 L 13.5 1.787395477294922 M 13.5 0 L 27 20 L 0 20 L 13.5 0 Z"/></g><g class="d" transform="translate(82.952 20.471) rotate(180)"><path class="g" d="M 26.05925559997559 19.5 L 0.9407445192337036 19.5 L 13.5 0.8936955332756042 L 26.05925559997559 19.5 Z"/><path class="h" d="M 13.5 1.787395477294922 L 1.881492614746094 19 L 25.11850738525391 19 L 13.5 1.787395477294922 M 13.5 0 L 27 20 L 0 20 L 13.5 0 Z"/></g><g class="d" transform="translate(55.952 20.471) rotate(180)"><path class="g" d="M 28.01991653442383 19.5 L 0.9800829887390137 19.5 L 14.5 0.8518386483192444 L 28.01991653442383 19.5 Z"/><path class="h" d="M 14.5 1.70367431640625 L 1.960163116455078 19 L 27.03983688354492 19 L 14.5 1.70367431640625 M 14.5 0 L 29 20 L 0 20 L 14.5 0 Z"/></g><g class="d" transform="translate(26.952 20.471) rotate(180)"><path class="g" d="M 26.05925559997559 19.5 L 0.9407445192337036 19.5 L 13.5 0.8936955332756042 L 26.05925559997559 19.5 Z"/><path class="h" d="M 13.5 1.787395477294922 L 1.881492614746094 19 L 25.11850738525391 19 L 13.5 1.787395477294922 M 13.5 0 L 27 20 L 0 20 L 13.5 0 Z"/></g></g><g transform="translate(13.952 156.457)"><g class="d" transform="translate(192 18.543) rotate(180)"><path class="g" d="M 26.0313777923584 18.5 L 0.968621551990509 18.5 L 13.5 0.8632451891899109 L 26.0313777923584 18.5 Z"/><path class="h" d="M 13.5 1.726499557495117 L 1.937250137329102 18 L 25.0627498626709 18 L 13.5 1.726499557495117 M 13.5 0 L 27 19 L 0 19 L 13.5 0 Z"/></g><g class="d" transform="translate(165 18.543) rotate(180)"><path class="g" d="M 26.0313777923584 18.5 L 0.968621551990509 18.5 L 13.5 0.8632451891899109 L 26.0313777923584 18.5 Z"/><path class="h" d="M 13.5 1.726499557495117 L 1.937250137329102 18 L 25.0627498626709 18 L 13.5 1.726499557495117 M 13.5 0 L 27 19 L 0 19 L 13.5 0 Z"/></g><g class="d" transform="translate(138 18.543) rotate(180)"><path class="g" d="M 26.0313777923584 18.5 L 0.968621551990509 18.5 L 13.5 0.8632451891899109 L 26.0313777923584 18.5 Z"/><path class="h" d="M 13.5 1.726499557495117 L 1.937250137329102 18 L 25.0627498626709 18 L 13.5 1.726499557495117 M 13.5 0 L 27 19 L 0 19 L 13.5 0 Z"/></g><g class="d" transform="translate(111 18.543) rotate(180)"><path class="g" d="M 27.01050186157227 18.5 L 0.9894984364509583 18.5 L 14 0.842890739440918 L 27.01050186157227 18.5 Z"/><path class="h" d="M 14 1.685781478881836 L 1.978996276855469 18 L 26.02100372314453 18 L 14 1.685781478881836 M 14 0 L 28 19 L 0 19 L 14 0 Z"/></g><g class="d" transform="translate(83 18.543) rotate(180)"><path class="g" d="M 27.01050186157227 18.5 L 0.9894984364509583 18.5 L 14 0.842890739440918 L 27.01050186157227 18.5 Z"/><path class="h" d="M 14 1.685781478881836 L 1.978996276855469 18 L 26.02100372314453 18 L 14 1.685781478881836 M 14 0 L 28 19 L 0 19 L 14 0 Z"/></g><g class="d" transform="translate(55 18.543) rotate(180)"><path class="g" d="M 26.0313777923584 18.5 L 0.968621551990509 18.5 L 13.5 0.8632451891899109 L 26.0313777923584 18.5 Z"/><path class="h" d="M 13.5 1.726499557495117 L 1.937250137329102 18 L 25.0627498626709 18 L 13.5 1.726499557495117 M 13.5 0 L 27 19 L 0 19 L 13.5 0 Z"/></g><g class="d" transform="translate(28 18.543) rotate(180)"><path class="g" d="M 27.01050186157227 18.5 L 0.9894984364509583 18.5 L 14 0.842890739440918 L 27.01050186157227 18.5 Z"/><path class="h" d="M 14 1.685781478881836 L 1.978996276855469 18 L 26.02100372314453 18 L 14 1.685781478881836 M 14 0 L 28 19 L 0 19 L 14 0 Z"/></g></g></g></g><g class="e" transform="translate(417.332 125)"><g class="c" transform="translate(-14.948)"><g transform="translate(13.952)"><g class="d" transform="translate(27.664 20) rotate(180)"><path class="g" d="M 27.03966903686523 19.5 L 0.9603310227394104 19.5 L 14 0.8719014525413513 L 27.03966903686523 19.5 Z"/><path class="h" d="M 14 1.74378776550293 L 1.920652389526367 19 L 26.07934761047363 19 L 14 1.74378776550293 M 14 0 L 28 20 L 0 20 L 14 0 Z"/></g><g class="d" transform="translate(55.664 20) rotate(180)"><path class="g" d="M 27.03966903686523 19.5 L 0.9603310227394104 19.5 L 14 0.8719014525413513 L 27.03966903686523 19.5 Z"/><path class="h" d="M 14 1.74378776550293 L 1.920652389526367 19 L 26.07934761047363 19 L 14 1.74378776550293 M 14 0 L 28 20 L 0 20 L 14 0 Z"/></g><g class="d" transform="translate(82.664 20) rotate(180)"><path class="g" d="M 26.05925559997559 19.5 L 0.9407445192337036 19.5 L 13.5 0.8936955332756042 L 26.05925559997559 19.5 Z"/><path class="h" d="M 13.5 1.787395477294922 L 1.881492614746094 19 L 25.11850738525391 19 L 13.5 1.787395477294922 M 13.5 0 L 27 20 L 0 20 L 13.5 0 Z"/></g><g class="d" transform="translate(110.664 20) rotate(180)"><path class="g" d="M 27.03966903686523 19.5 L 0.9603310227394104 19.5 L 14 0.8719014525413513 L 27.03966903686523 19.5 Z"/><path class="h" d="M 14 1.74378776550293 L 1.920652389526367 19 L 26.07934761047363 19 L 14 1.74378776550293 M 14 0 L 28 20 L 0 20 L 14 0 Z"/></g><g class="d" transform="translate(138.664 20) rotate(180)"><path class="g" d="M 27.03966903686523 19.5 L 0.9603310227394104 19.5 L 14 0.8719014525413513 L 27.03966903686523 19.5 Z"/><path class="h" d="M 14 1.74378776550293 L 1.920652389526367 19 L 26.07934761047363 19 L 14 1.74378776550293 M 14 0 L 28 20 L 0 20 L 14 0 Z"/></g><g class="d" transform="translate(165.664 20) rotate(180)"><path class="g" d="M 26.05925559997559 19.5 L 0.9407445192337036 19.5 L 13.5 0.8936955332756042 L 26.05925559997559 19.5 Z"/><path class="h" d="M 13.5 1.787395477294922 L 1.881492614746094 19 L 25.11850738525391 19 L 13.5 1.787395477294922 M 13.5 0 L 27 20 L 0 20 L 13.5 0 Z"/></g><g class="d" transform="translate(193.664 20) rotate(180)"><path class="g" d="M 27.03966903686523 19.5 L 0.9603310227394104 19.5 L 14 0.8719014525413513 L 27.03966903686523 19.5 Z"/><path class="h" d="M 14 1.74378776550293 L 1.920652389526367 19 L 26.07934761047363 19 L 14 1.74378776550293 M 14 0 L 28 20 L 0 20 L 14 0 Z"/></g></g><g transform="translate(0.997 58.796)"><g class="d" transform="translate(53.619 19.204) rotate(180)"><path class="g" d="M 26.0313777923584 18.5 L 0.968621551990509 18.5 L 13.5 0.8632451891899109 L 26.0313777923584 18.5 Z"/><path class="h" d="M 13.5 1.726499557495117 L 1.937250137329102 18 L 25.0627498626709 18 L 13.5 1.726499557495117 M 13.5 0 L 27 19 L 0 19 L 13.5 0 Z"/></g><g class="d" transform="translate(26.619 19.204) rotate(180)"><path class="g" d="M 26.0313777923584 18.5 L 0.968621551990509 18.5 L 13.5 0.8632451891899109 L 26.0313777923584 18.5 Z"/><path class="h" d="M 13.5 1.726499557495117 L 1.937250137329102 18 L 25.0627498626709 18 L 13.5 1.726499557495117 M 13.5 0 L 27 19 L 0 19 L 13.5 0 Z"/></g><g class="d" transform="translate(81.619 19.204) rotate(180)"><path class="g" d="M 27.01050186157227 18.5 L 0.9894984364509583 18.5 L 14 0.842890739440918 L 27.01050186157227 18.5 Z"/><path class="h" d="M 14 1.685781478881836 L 1.978996276855469 18 L 26.02100372314453 18 L 14 1.685781478881836 M 14 0 L 28 19 L 0 19 L 14 0 Z"/></g><g class="d" transform="translate(109.619 19.204) rotate(180)"><path class="g" d="M 27.01050186157227 18.5 L 0.9894984364509583 18.5 L 14 0.842890739440918 L 27.01050186157227 18.5 Z"/><path class="h" d="M 14 1.685781478881836 L 1.978996276855469 18 L 26.02100372314453 18 L 14 1.685781478881836 M 14 0 L 28 19 L 0 19 L 14 0 Z"/></g><g class="d" transform="translate(136.619 19.204) rotate(180)"><path class="g" d="M 26.0313777923584 18.5 L 0.968621551990509 18.5 L 13.5 0.8632451891899109 L 26.0313777923584 18.5 Z"/><path class="h" d="M 13.5 1.726499557495117 L 1.937250137329102 18 L 25.0627498626709 18 L 13.5 1.726499557495117 M 13.5 0 L 27 19 L 0 19 L 13.5 0 Z"/></g><g class="d" transform="translate(164.619 19.204) rotate(180)"><path class="g" d="M 27.01050186157227 18.5 L 0.9894984364509583 18.5 L 14 0.842890739440918 L 27.01050186157227 18.5 Z"/><path class="h" d="M 14 1.685781478881836 L 1.978996276855469 18 L 26.02100372314453 18 L 14 1.685781478881836 M 14 0 L 28 19 L 0 19 L 14 0 Z"/></g><g class="d" transform="translate(192.619 19.204) rotate(180)"><path class="g" d="M 27.01050186157227 18.5 L 0.9894984364509583 18.5 L 14 0.842890739440918 L 27.01050186157227 18.5 Z"/><path class="h" d="M 14 1.685781478881836 L 1.978996276855469 18 L 26.02100372314453 18 L 14 1.685781478881836 M 14 0 L 28 19 L 0 19 L 14 0 Z"/></g><g class="d" transform="translate(219.619 19.204) rotate(180)"><path class="g" d="M 26.0313777923584 18.5 L 0.968621551990509 18.5 L 13.5 0.8632451891899109 L 26.0313777923584 18.5 Z"/><path class="h" d="M 13.5 1.726499557495117 L 1.937250137329102 18 L 25.0627498626709 18 L 13.5 1.726499557495117 M 13.5 0 L 27 19 L 0 19 L 13.5 0 Z"/></g></g><g transform="translate(0.997 19.931)"><g class="d" transform="translate(192.619 19.069) rotate(180)"><path class="g" d="M 26.0313777923584 18.5 L 0.968621551990509 18.5 L 13.5 0.8632451891899109 L 26.0313777923584 18.5 Z"/><path class="h" d="M 13.5 1.726499557495117 L 1.937250137329102 18 L 25.0627498626709 18 L 13.5 1.726499557495117 M 13.5 0 L 27 19 L 0 19 L 13.5 0 Z"/></g><g class="d" transform="translate(219.619 19.069) rotate(180)"><path class="g" d="M 26.0313777923584 18.5 L 0.968621551990509 18.5 L 13.5 0.8632451891899109 L 26.0313777923584 18.5 Z"/><path class="h" d="M 13.5 1.726499557495117 L 1.937250137329102 18 L 25.0627498626709 18 L 13.5 1.726499557495117 M 13.5 0 L 27 19 L 0 19 L 13.5 0 Z"/></g><g class="d" transform="translate(165.619 19.069) rotate(180)"><path class="g" d="M 27.01050186157227 18.5 L 0.9894984364509583 18.5 L 14 0.842890739440918 L 27.01050186157227 18.5 Z"/><path class="h" d="M 14 1.685781478881836 L 1.978996276855469 18 L 26.02100372314453 18 L 14 1.685781478881836 M 14 0 L 28 19 L 0 19 L 14 0 Z"/></g><g class="d" transform="translate(137.619 19.069) rotate(180)"><path class="g" d="M 26.0313777923584 18.5 L 0.968621551990509 18.5 L 13.5 0.8632451891899109 L 26.0313777923584 18.5 Z"/><path class="h" d="M 13.5 1.726499557495117 L 1.937250137329102 18 L 25.0627498626709 18 L 13.5 1.726499557495117 M 13.5 0 L 27 19 L 0 19 L 13.5 0 Z"/></g><g class="d" transform="translate(110.619 19.069) rotate(180)"><path class="g" d="M 27.01050186157227 18.5 L 0.9894984364509583 18.5 L 14 0.842890739440918 L 27.01050186157227 18.5 Z"/><path class="h" d="M 14 1.685781478881836 L 1.978996276855469 18 L 26.02100372314453 18 L 14 1.685781478881836 M 14 0 L 28 19 L 0 19 L 14 0 Z"/></g><g class="d" transform="translate(82.619 19.069) rotate(180)"><path class="g" d="M 27.01050186157227 18.5 L 0.9894984364509583 18.5 L 14 0.842890739440918 L 27.01050186157227 18.5 Z"/><path class="h" d="M 14 1.685781478881836 L 1.978996276855469 18 L 26.02100372314453 18 L 14 1.685781478881836 M 14 0 L 28 19 L 0 19 L 14 0 Z"/></g><g class="d" transform="translate(54.619 19.069) rotate(180)"><path class="g" d="M 26.0313777923584 18.5 L 0.968621551990509 18.5 L 13.5 0.8632451891899109 L 26.0313777923584 18.5 Z"/><path class="h" d="M 13.5 1.726499557495117 L 1.937250137329102 18 L 25.0627498626709 18 L 13.5 1.726499557495117 M 13.5 0 L 27 19 L 0 19 L 13.5 0 Z"/></g><g class="d" transform="translate(27.619 19.069) rotate(180)"><path class="g" d="M 27.01050186157227 18.5 L 0.9894984364509583 18.5 L 14 0.842890739440918 L 27.01050186157227 18.5 Z"/><path class="h" d="M 14 1.685781478881836 L 1.978996276855469 18 L 26.02100372314453 18 L 14 1.685781478881836 M 14 0 L 28 19 L 0 19 L 14 0 Z"/></g></g><g transform="translate(13.952 77.73)"><g class="d" transform="translate(192.664 20.27) rotate(180)"><path class="g" d="M 26.05925559997559 19.5 L 0.9407445192337036 19.5 L 13.5 0.8936955332756042 L 26.05925559997559 19.5 Z"/><path class="h" d="M 13.5 1.787395477294922 L 1.881492614746094 19 L 25.11850738525391 19 L 13.5 1.787395477294922 M 13.5 0 L 27 20 L 0 20 L 13.5 0 Z"/></g><g class="d" transform="translate(165.664 20.27) rotate(180)"><path class="g" d="M 26.05925559997559 19.5 L 0.9407445192337036 19.5 L 13.5 0.8936955332756042 L 26.05925559997559 19.5 Z"/><path class="h" d="M 13.5 1.787395477294922 L 1.881492614746094 19 L 25.11850738525391 19 L 13.5 1.787395477294922 M 13.5 0 L 27 20 L 0 20 L 13.5 0 Z"/></g><g class="d" transform="translate(138.664 20.27) rotate(180)"><path class="g" d="M 27.03966903686523 19.5 L 0.9603310227394104 19.5 L 14 0.8719014525413513 L 27.03966903686523 19.5 Z"/><path class="h" d="M 14 1.74378776550293 L 1.920652389526367 19 L 26.07934761047363 19 L 14 1.74378776550293 M 14 0 L 28 20 L 0 20 L 14 0 Z"/></g><g class="d" transform="translate(110.664 20.27) rotate(180)"><path class="g" d="M 27.03966903686523 19.5 L 0.9603310227394104 19.5 L 14 0.8719014525413513 L 27.03966903686523 19.5 Z"/><path class="h" d="M 14 1.74378776550293 L 1.920652389526367 19 L 26.07934761047363 19 L 14 1.74378776550293 M 14 0 L 28 20 L 0 20 L 14 0 Z"/></g><g class="d" transform="translate(82.664 20.27) rotate(180)"><path class="g" d="M 26.05925559997559 19.5 L 0.9407445192337036 19.5 L 13.5 0.8936955332756042 L 26.05925559997559 19.5 Z"/><path class="h" d="M 13.5 1.787395477294922 L 1.881492614746094 19 L 25.11850738525391 19 L 13.5 1.787395477294922 M 13.5 0 L 27 20 L 0 20 L 13.5 0 Z"/></g><g class="d" transform="translate(55.664 20.27) rotate(180)"><path class="g" d="M 27.03966903686523 19.5 L 0.9603310227394104 19.5 L 14 0.8719014525413513 L 27.03966903686523 19.5 Z"/><path class="h" d="M 14 1.74378776550293 L 1.920652389526367 19 L 26.07934761047363 19 L 14 1.74378776550293 M 14 0 L 28 20 L 0 20 L 14 0 Z"/></g><g class="d" transform="translate(27.664 20.27) rotate(180)"><path class="g" d="M 27.03966903686523 19.5 L 0.9603310227394104 19.5 L 14 0.8719014525413513 L 27.03966903686523 19.5 Z"/><path class="h" d="M 14 1.74378776550293 L 1.920652389526367 19 L 26.07934761047363 19 L 14 1.74378776550293 M 14 0 L 28 20 L 0 20 L 14 0 Z"/></g></g><g transform="translate(13.952 38.865)"><g class="d" transform="translate(192.664 20.135) rotate(180)"><path class="g" d="M 26.05925559997559 19.5 L 0.9407445192337036 19.5 L 13.5 0.8936955332756042 L 26.05925559997559 19.5 Z"/><path class="h" d="M 13.5 1.787395477294922 L 1.881492614746094 19 L 25.11850738525391 19 L 13.5 1.787395477294922 M 13.5 0 L 27 20 L 0 20 L 13.5 0 Z"/></g><g class="d" transform="translate(165.664 20.135) rotate(180)"><path class="g" d="M 26.05925559997559 19.5 L 0.9407445192337036 19.5 L 13.5 0.8936955332756042 L 26.05925559997559 19.5 Z"/><path class="h" d="M 13.5 1.787395477294922 L 1.881492614746094 19 L 25.11850738525391 19 L 13.5 1.787395477294922 M 13.5 0 L 27 20 L 0 20 L 13.5 0 Z"/></g><g class="d" transform="translate(138.664 20.135) rotate(180)"><path class="g" d="M 27.03966903686523 19.5 L 0.9603310227394104 19.5 L 14 0.8719014525413513 L 27.03966903686523 19.5 Z"/><path class="h" d="M 14 1.74378776550293 L 1.920652389526367 19 L 26.07934761047363 19 L 14 1.74378776550293 M 14 0 L 28 20 L 0 20 L 14 0 Z"/></g><g class="d" transform="translate(110.664 20.135) rotate(180)"><path class="g" d="M 27.03966903686523 19.5 L 0.9603310227394104 19.5 L 14 0.8719014525413513 L 27.03966903686523 19.5 Z"/><path class="h" d="M 14 1.74378776550293 L 1.920652389526367 19 L 26.07934761047363 19 L 14 1.74378776550293 M 14 0 L 28 20 L 0 20 L 14 0 Z"/></g><g class="d" transform="translate(82.664 20.135) rotate(180)"><path class="g" d="M 26.05925559997559 19.5 L 0.9407445192337036 19.5 L 13.5 0.8936955332756042 L 26.05925559997559 19.5 Z"/><path class="h" d="M 13.5 1.787395477294922 L 1.881492614746094 19 L 25.11850738525391 19 L 13.5 1.787395477294922 M 13.5 0 L 27 20 L 0 20 L 13.5 0 Z"/></g><g class="d" transform="translate(55.664 20.135) rotate(180)"><path class="g" d="M 27.03966903686523 19.5 L 0.9603310227394104 19.5 L 14 0.8719014525413513 L 27.03966903686523 19.5 Z"/><path class="h" d="M 14 1.74378776550293 L 1.920652389526367 19 L 26.07934761047363 19 L 14 1.74378776550293 M 14 0 L 28 20 L 0 20 L 14 0 Z"/></g><g class="d" transform="translate(27.664 20.135) rotate(180)"><path class="g" d="M 27.03966903686523 19.5 L 0.9603310227394104 19.5 L 14 0.8719014525413513 L 27.03966903686523 19.5 Z"/><path class="h" d="M 14 1.74378776550293 L 1.920652389526367 19 L 26.07934761047363 19 L 14 1.74378776550293 M 14 0 L 28 20 L 0 20 L 14 0 Z"/></g></g><g transform="translate(0 96.664)"><g class="d" transform="translate(193.616 20.336) rotate(180)"><path class="g" d="M 27.03966903686523 19.5 L 0.9603310227394104 19.5 L 14 0.8719014525413513 L 27.03966903686523 19.5 Z"/><path class="h" d="M 14 1.74378776550293 L 1.920652389526367 19 L 26.07934761047363 19 L 14 1.74378776550293 M 14 0 L 28 20 L 0 20 L 14 0 Z"/></g><g class="d" transform="translate(219.616 20.336) rotate(180)"><path class="g" d="M 25.07866096496582 19.5 L 0.9213384985923767 19.5 L 13 0.9174438714981079 L 25.07866096496582 19.5 Z"/><path class="h" d="M 13 1.834897994995117 L 1.842683792114258 19 L 24.15731620788574 19 L 13 1.834897994995117 M 13 0 L 26 20 L 0 20 L 13 0 Z"/></g><g class="d" transform="translate(165.616 20.336) rotate(180)"><path class="g" d="M 27.03966903686523 19.5 L 0.9603310227394104 19.5 L 14 0.8719014525413513 L 27.03966903686523 19.5 Z"/><path class="h" d="M 14 1.74378776550293 L 1.920652389526367 19 L 26.07934761047363 19 L 14 1.74378776550293 M 14 0 L 28 20 L 0 20 L 14 0 Z"/></g><g class="d" transform="translate(137.616 20.336) rotate(180)"><path class="g" d="M 26.05925559997559 19.5 L 0.9407445192337036 19.5 L 13.5 0.8936955332756042 L 26.05925559997559 19.5 Z"/><path class="h" d="M 13.5 1.787395477294922 L 1.881492614746094 19 L 25.11850738525391 19 L 13.5 1.787395477294922 M 13.5 0 L 27 20 L 0 20 L 13.5 0 Z"/></g><g class="d" transform="translate(110.616 20.336) rotate(180)"><path class="g" d="M 27.03966903686523 19.5 L 0.9603310227394104 19.5 L 14 0.8719014525413513 L 27.03966903686523 19.5 Z"/><path class="h" d="M 14 1.74378776550293 L 1.920652389526367 19 L 26.07934761047363 19 L 14 1.74378776550293 M 14 0 L 28 20 L 0 20 L 14 0 Z"/></g><g class="d" transform="translate(82.616 20.336) rotate(180)"><path class="g" d="M 27.03966903686523 19.5 L 0.9603310227394104 19.5 L 14 0.8719014525413513 L 27.03966903686523 19.5 Z"/><path class="h" d="M 14 1.74378776550293 L 1.920652389526367 19 L 26.07934761047363 19 L 14 1.74378776550293 M 14 0 L 28 20 L 0 20 L 14 0 Z"/></g><g class="d" transform="translate(54.616 20.336) rotate(180)"><path class="g" d="M 26.05925559997559 19.5 L 0.9407445192337036 19.5 L 13.5 0.8936955332756042 L 26.05925559997559 19.5 Z"/><path class="h" d="M 13.5 1.787395477294922 L 1.881492614746094 19 L 25.11850738525391 19 L 13.5 1.787395477294922 M 13.5 0 L 27 20 L 0 20 L 13.5 0 Z"/></g><g class="d" transform="translate(27.616 20.336) rotate(180)"><path class="g" d="M 27.03966903686523 19.5 L 0.9603310227394104 19.5 L 14 0.8719014525413513 L 27.03966903686523 19.5 Z"/><path class="h" d="M 14 1.74378776550293 L 1.920652389526367 19 L 26.07934761047363 19 L 14 1.74378776550293 M 14 0 L 28 20 L 0 20 L 14 0 Z"/></g></g><g transform="translate(13.952 116.595)"><g class="d" transform="translate(192.664 19.405) rotate(180)"><path class="g" d="M 26.0313777923584 18.5 L 0.968621551990509 18.5 L 13.5 0.8632451891899109 L 26.0313777923584 18.5 Z"/><path class="h" d="M 13.5 1.726499557495117 L 1.937250137329102 18 L 25.0627498626709 18 L 13.5 1.726499557495117 M 13.5 0 L 27 19 L 0 19 L 13.5 0 Z"/></g><g class="d" transform="translate(165.664 19.405) rotate(180)"><path class="g" d="M 26.0313777923584 18.5 L 0.968621551990509 18.5 L 13.5 0.8632451891899109 L 26.0313777923584 18.5 Z"/><path class="h" d="M 13.5 1.726499557495117 L 1.937250137329102 18 L 25.0627498626709 18 L 13.5 1.726499557495117 M 13.5 0 L 27 19 L 0 19 L 13.5 0 Z"/></g><g class="d" transform="translate(138.664 19.405) rotate(180)"><path class="g" d="M 27.01050186157227 18.5 L 0.9894984364509583 18.5 L 14 0.842890739440918 L 27.01050186157227 18.5 Z"/><path class="h" d="M 14 1.685781478881836 L 1.978996276855469 18 L 26.02100372314453 18 L 14 1.685781478881836 M 14 0 L 28 19 L 0 19 L 14 0 Z"/></g><g class="d" transform="translate(110.664 19.405) rotate(180)"><path class="g" d="M 27.01050186157227 18.5 L 0.9894984364509583 18.5 L 14 0.842890739440918 L 27.01050186157227 18.5 Z"/><path class="h" d="M 14 1.685781478881836 L 1.978996276855469 18 L 26.02100372314453 18 L 14 1.685781478881836 M 14 0 L 28 19 L 0 19 L 14 0 Z"/></g><g class="d" transform="translate(82.664 19.405) rotate(180)"><path class="g" d="M 26.0313777923584 18.5 L 0.968621551990509 18.5 L 13.5 0.8632451891899109 L 26.0313777923584 18.5 Z"/><path class="h" d="M 13.5 1.726499557495117 L 1.937250137329102 18 L 25.0627498626709 18 L 13.5 1.726499557495117 M 13.5 0 L 27 19 L 0 19 L 13.5 0 Z"/></g><g class="d" transform="translate(55.664 19.405) rotate(180)"><path class="g" d="M 27.01050186157227 18.5 L 0.9894984364509583 18.5 L 14 0.842890739440918 L 27.01050186157227 18.5 Z"/><path class="h" d="M 14 1.685781478881836 L 1.978996276855469 18 L 26.02100372314453 18 L 14 1.685781478881836 M 14 0 L 28 19 L 0 19 L 14 0 Z"/></g><g class="d" transform="translate(27.664 19.405) rotate(180)"><path class="g" d="M 27.01050186157227 18.5 L 0.9894984364509583 18.5 L 14 0.842890739440918 L 27.01050186157227 18.5 Z"/><path class="h" d="M 14 1.685781478881836 L 1.978996276855469 18 L 26.02100372314453 18 L 14 1.685781478881836 M 14 0 L 28 19 L 0 19 L 14 0 Z"/></g></g><g transform="translate(0 135.529)"><g class="d" transform="translate(220.616 20.471) rotate(180)"><path class="g" d="M 26.05925559997559 19.5 L 0.9407445192337036 19.5 L 13.5 0.8936955332756042 L 26.05925559997559 19.5 Z"/><path class="h" d="M 13.5 1.787395477294922 L 1.881492614746094 19 L 25.11850738525391 19 L 13.5 1.787395477294922 M 13.5 0 L 27 20 L 0 20 L 13.5 0 Z"/></g><g class="d" transform="translate(193.616 20.471) rotate(180)"><path class="g" d="M 27.03966903686523 19.5 L 0.9603310227394104 19.5 L 14 0.8719014525413513 L 27.03966903686523 19.5 Z"/><path class="h" d="M 14 1.74378776550293 L 1.920652389526367 19 L 26.07934761047363 19 L 14 1.74378776550293 M 14 0 L 28 20 L 0 20 L 14 0 Z"/></g><g class="d" transform="translate(165.616 20.471) rotate(180)"><path class="g" d="M 27.03966903686523 19.5 L 0.9603310227394104 19.5 L 14 0.8719014525413513 L 27.03966903686523 19.5 Z"/><path class="h" d="M 14 1.74378776550293 L 1.920652389526367 19 L 26.07934761047363 19 L 14 1.74378776550293 M 14 0 L 28 20 L 0 20 L 14 0 Z"/></g><g class="d" transform="translate(137.616 20.471) rotate(180)"><path class="g" d="M 26.05925559997559 19.5 L 0.9407445192337036 19.5 L 13.5 0.8936955332756042 L 26.05925559997559 19.5 Z"/><path class="h" d="M 13.5 1.787395477294922 L 1.881492614746094 19 L 25.11850738525391 19 L 13.5 1.787395477294922 M 13.5 0 L 27 20 L 0 20 L 13.5 0 Z"/></g><g class="d" transform="translate(110.616 20.471) rotate(180)"><path class="g" d="M 27.03966903686523 19.5 L 0.9603310227394104 19.5 L 14 0.8719014525413513 L 27.03966903686523 19.5 Z"/><path class="h" d="M 14 1.74378776550293 L 1.920652389526367 19 L 26.07934761047363 19 L 14 1.74378776550293 M 14 0 L 28 20 L 0 20 L 14 0 Z"/></g><g class="d" transform="translate(82.616 20.471) rotate(180)"><path class="g" d="M 26.05925559997559 19.5 L 0.9407445192337036 19.5 L 13.5 0.8936955332756042 L 26.05925559997559 19.5 Z"/><path class="h" d="M 13.5 1.787395477294922 L 1.881492614746094 19 L 25.11850738525391 19 L 13.5 1.787395477294922 M 13.5 0 L 27 20 L 0 20 L 13.5 0 Z"/></g><g class="d" transform="translate(55.616 20.471) rotate(180)"><path class="g" d="M 27.03966903686523 19.5 L 0.9603310227394104 19.5 L 14 0.8719014525413513 L 27.03966903686523 19.5 Z"/><path class="h" d="M 14 1.74378776550293 L 1.920652389526367 19 L 26.07934761047363 19 L 14 1.74378776550293 M 14 0 L 28 20 L 0 20 L 14 0 Z"/></g><g class="d" transform="translate(27.616 20.471) rotate(180)"><path class="g" d="M 27.03966903686523 19.5 L 0.9603310227394104 19.5 L 14 0.8719014525413513 L 27.03966903686523 19.5 Z"/><path class="h" d="M 14 1.74378776550293 L 1.920652389526367 19 L 26.07934761047363 19 L 14 1.74378776550293 M 14 0 L 28 20 L 0 20 L 14 0 Z"/></g></g><g transform="translate(13.952 156.457)"><g class="d" transform="translate(192.664 18.543) rotate(180)"><path class="g" d="M 26.0313777923584 18.5 L 0.968621551990509 18.5 L 13.5 0.8632451891899109 L 26.0313777923584 18.5 Z"/><path class="h" d="M 13.5 1.726499557495117 L 1.937250137329102 18 L 25.0627498626709 18 L 13.5 1.726499557495117 M 13.5 0 L 27 19 L 0 19 L 13.5 0 Z"/></g><g class="d" transform="translate(165.664 18.543) rotate(180)"><path class="g" d="M 26.0313777923584 18.5 L 0.968621551990509 18.5 L 13.5 0.8632451891899109 L 26.0313777923584 18.5 Z"/><path class="h" d="M 13.5 1.726499557495117 L 1.937250137329102 18 L 25.0627498626709 18 L 13.5 1.726499557495117 M 13.5 0 L 27 19 L 0 19 L 13.5 0 Z"/></g><g class="d" transform="translate(138.664 18.543) rotate(180)"><path class="g" d="M 27.01050186157227 18.5 L 0.9894984364509583 18.5 L 14 0.842890739440918 L 27.01050186157227 18.5 Z"/><path class="h" d="M 14 1.685781478881836 L 1.978996276855469 18 L 26.02100372314453 18 L 14 1.685781478881836 M 14 0 L 28 19 L 0 19 L 14 0 Z"/></g><g class="d" transform="translate(110.664 18.543) rotate(180)"><path class="g" d="M 27.01050186157227 18.5 L 0.9894984364509583 18.5 L 14 0.842890739440918 L 27.01050186157227 18.5 Z"/><path class="h" d="M 14 1.685781478881836 L 1.978996276855469 18 L 26.02100372314453 18 L 14 1.685781478881836 M 14 0 L 28 19 L 0 19 L 14 0 Z"/></g><g class="d" transform="translate(82.664 18.543) rotate(180)"><path class="g" d="M 26.0313777923584 18.5 L 0.968621551990509 18.5 L 13.5 0.8632451891899109 L 26.0313777923584 18.5 Z"/><path class="h" d="M 13.5 1.726499557495117 L 1.937250137329102 18 L 25.0627498626709 18 L 13.5 1.726499557495117 M 13.5 0 L 27 19 L 0 19 L 13.5 0 Z"/></g><g class="d" transform="translate(55.664 18.543) rotate(180)"><path class="g" d="M 27.01050186157227 18.5 L 0.9894984364509583 18.5 L 14 0.842890739440918 L 27.01050186157227 18.5 Z"/><path class="h" d="M 14 1.685781478881836 L 1.978996276855469 18 L 26.02100372314453 18 L 14 1.685781478881836 M 14 0 L 28 19 L 0 19 L 14 0 Z"/></g><g class="d" transform="translate(27.664 18.543) rotate(180)"><path class="g" d="M 27.01050186157227 18.5 L 0.9894984364509583 18.5 L 14 0.842890739440918 L 27.01050186157227 18.5 Z"/><path class="h" d="M 14 1.685781478881836 L 1.978996276855469 18 L 26.02100372314453 18 L 14 1.685781478881836 M 14 0 L 28 19 L 0 19 L 14 0 Z"/></g></g></g></g><g class="f" transform="translate(608.668 125)"><g class="c" transform="translate(-13.952)"><g transform="translate(13.952)"><g class="d" transform="translate(28.332 20) rotate(180)"><path class="g" d="M 27.03966903686523 19.5 L 0.9603310227394104 19.5 L 14 0.8719014525413513 L 27.03966903686523 19.5 Z"/><path class="h" d="M 14 1.74378776550293 L 1.920652389526367 19 L 26.07934761047363 19 L 14 1.74378776550293 M 14 0 L 28 20 L 0 20 L 14 0 Z"/></g><g class="d" transform="translate(54.332 20) rotate(180)"><path class="g" d="M 25.07866096496582 19.5 L 0.9213384985923767 19.5 L 13 0.9174438714981079 L 25.07866096496582 19.5 Z"/><path class="h" d="M 13 1.834897994995117 L 1.842683792114258 19 L 24.15731620788574 19 L 13 1.834897994995117 M 13 0 L 26 20 L 0 20 L 13 0 Z"/></g><g class="d" transform="translate(82.332 20) rotate(180)"><path class="g" d="M 27.03966903686523 19.5 L 0.9603310227394104 19.5 L 14 0.8719014525413513 L 27.03966903686523 19.5 Z"/><path class="h" d="M 14 1.74378776550293 L 1.920652389526367 19 L 26.07934761047363 19 L 14 1.74378776550293 M 14 0 L 28 20 L 0 20 L 14 0 Z"/></g><g class="d" transform="translate(110.332 20) rotate(180)"><path class="g" d="M 27.03966903686523 19.5 L 0.9603310227394104 19.5 L 14 0.8719014525413513 L 27.03966903686523 19.5 Z"/><path class="h" d="M 14 1.74378776550293 L 1.920652389526367 19 L 26.07934761047363 19 L 14 1.74378776550293 M 14 0 L 28 20 L 0 20 L 14 0 Z"/></g><g class="d" transform="translate(137.332 20) rotate(180)"><path class="g" d="M 26.05925559997559 19.5 L 0.9407445192337036 19.5 L 13.5 0.8936955332756042 L 26.05925559997559 19.5 Z"/><path class="h" d="M 13.5 1.787395477294922 L 1.881492614746094 19 L 25.11850738525391 19 L 13.5 1.787395477294922 M 13.5 0 L 27 20 L 0 20 L 13.5 0 Z"/></g><g class="d" transform="translate(165.332 20) rotate(180)"><path class="g" d="M 27.03966903686523 19.5 L 0.9603310227394104 19.5 L 14 0.8719014525413513 L 27.03966903686523 19.5 Z"/><path class="h" d="M 14 1.74378776550293 L 1.920652389526367 19 L 26.07934761047363 19 L 14 1.74378776550293 M 14 0 L 28 20 L 0 20 L 14 0 Z"/></g><g class="d" transform="translate(192.332 20) rotate(180)"><path class="g" d="M 26.05925559997559 19.5 L 0.9407445192337036 19.5 L 13.5 0.8936955332756042 L 26.05925559997559 19.5 Z"/><path class="h" d="M 13.5 1.787395477294922 L 1.881492614746094 19 L 25.11850738525391 19 L 13.5 1.787395477294922 M 13.5 0 L 27 20 L 0 20 L 13.5 0 Z"/></g></g><g transform="translate(0.997 58.796)"><g class="d" transform="translate(54.287 19.204) rotate(180)"><path class="g" d="M 27.01050186157227 18.5 L 0.9894984364509583 18.5 L 14 0.842890739440918 L 27.01050186157227 18.5 Z"/><path class="h" d="M 14 1.685781478881836 L 1.978996276855469 18 L 26.02100372314453 18 L 14 1.685781478881836 M 14 0 L 28 19 L 0 19 L 14 0 Z"/></g><g class="d" transform="translate(26.287 19.204) rotate(180)"><path class="g" d="M 25.05206489562988 18.5 L 0.9479352831840515 18.5 L 13 0.8854438662528992 L 25.05206489562988 18.5 Z"/><path class="h" d="M 13 1.770902633666992 L 1.895879745483398 18 L 24.1041202545166 18 L 13 1.770902633666992 M 13 0 L 26 19 L 0 19 L 13 0 Z"/></g><g class="d" transform="translate(81.287 19.204) rotate(180)"><path class="g" d="M 26.0313777923584 18.5 L 0.968621551990509 18.5 L 13.5 0.8632451891899109 L 26.0313777923584 18.5 Z"/><path class="h" d="M 13.5 1.726499557495117 L 1.937250137329102 18 L 25.0627498626709 18 L 13.5 1.726499557495117 M 13.5 0 L 27 19 L 0 19 L 13.5 0 Z"/></g><g class="d" transform="translate(108.287 19.204) rotate(180)"><path class="g" d="M 26.0313777923584 18.5 L 0.968621551990509 18.5 L 13.5 0.8632451891899109 L 26.0313777923584 18.5 Z"/><path class="h" d="M 13.5 1.726499557495117 L 1.937250137329102 18 L 25.0627498626709 18 L 13.5 1.726499557495117 M 13.5 0 L 27 19 L 0 19 L 13.5 0 Z"/></g><g class="d" transform="translate(136.287 19.204) rotate(180)"><path class="g" d="M 27.01050186157227 18.5 L 0.9894984364509583 18.5 L 14 0.842890739440918 L 27.01050186157227 18.5 Z"/><path class="h" d="M 14 1.685781478881836 L 1.978996276855469 18 L 26.02100372314453 18 L 14 1.685781478881836 M 14 0 L 28 19 L 0 19 L 14 0 Z"/></g><g class="d" transform="translate(164.287 19.204) rotate(180)"><path class="g" d="M 27.01050186157227 18.5 L 0.9894984364509583 18.5 L 14 0.842890739440918 L 27.01050186157227 18.5 Z"/><path class="h" d="M 14 1.685781478881836 L 1.978996276855469 18 L 26.02100372314453 18 L 14 1.685781478881836 M 14 0 L 28 19 L 0 19 L 14 0 Z"/></g><g class="d" transform="translate(191.287 19.204) rotate(180)"><path class="g" d="M 26.0313777923584 18.5 L 0.968621551990509 18.5 L 13.5 0.8632451891899109 L 26.0313777923584 18.5 Z"/><path class="h" d="M 13.5 1.726499557495117 L 1.937250137329102 18 L 25.0627498626709 18 L 13.5 1.726499557495117 M 13.5 0 L 27 19 L 0 19 L 13.5 0 Z"/></g><g class="d" transform="translate(219.287 19.204) rotate(180)"><path class="g" d="M 27.01050186157227 18.5 L 0.9894984364509583 18.5 L 14 0.842890739440918 L 27.01050186157227 18.5 Z"/><path class="h" d="M 14 1.685781478881836 L 1.978996276855469 18 L 26.02100372314453 18 L 14 1.685781478881836 M 14 0 L 28 19 L 0 19 L 14 0 Z"/></g></g><g transform="translate(0.997 19.931)"><g class="d" transform="translate(191.287 19.069) rotate(180)"><path class="g" d="M 26.0313777923584 18.5 L 0.968621551990509 18.5 L 13.5 0.8632451891899109 L 26.0313777923584 18.5 Z"/><path class="h" d="M 13.5 1.726499557495117 L 1.937250137329102 18 L 25.0627498626709 18 L 13.5 1.726499557495117 M 13.5 0 L 27 19 L 0 19 L 13.5 0 Z"/></g><g class="d" transform="translate(219.287 19.069) rotate(180)"><path class="g" d="M 27.01050186157227 18.5 L 0.9894984364509583 18.5 L 14 0.842890739440918 L 27.01050186157227 18.5 Z"/><path class="h" d="M 14 1.685781478881836 L 1.978996276855469 18 L 26.02100372314453 18 L 14 1.685781478881836 M 14 0 L 28 19 L 0 19 L 14 0 Z"/></g><g class="d" transform="translate(164.287 19.069) rotate(180)"><path class="g" d="M 26.0313777923584 18.5 L 0.968621551990509 18.5 L 13.5 0.8632451891899109 L 26.0313777923584 18.5 Z"/><path class="h" d="M 13.5 1.726499557495117 L 1.937250137329102 18 L 25.0627498626709 18 L 13.5 1.726499557495117 M 13.5 0 L 27 19 L 0 19 L 13.5 0 Z"/></g><g class="d" transform="translate(137.287 19.069) rotate(180)"><path class="g" d="M 27.01050186157227 18.5 L 0.9894984364509583 18.5 L 14 0.842890739440918 L 27.01050186157227 18.5 Z"/><path class="h" d="M 14 1.685781478881836 L 1.978996276855469 18 L 26.02100372314453 18 L 14 1.685781478881836 M 14 0 L 28 19 L 0 19 L 14 0 Z"/></g><g class="d" transform="translate(109.287 19.069) rotate(180)"><path class="g" d="M 26.0313777923584 18.5 L 0.968621551990509 18.5 L 13.5 0.8632451891899109 L 26.0313777923584 18.5 Z"/><path class="h" d="M 13.5 1.726499557495117 L 1.937250137329102 18 L 25.0627498626709 18 L 13.5 1.726499557495117 M 13.5 0 L 27 19 L 0 19 L 13.5 0 Z"/></g><g class="d" transform="translate(82.287 19.069) rotate(180)"><path class="g" d="M 26.0313777923584 18.5 L 0.968621551990509 18.5 L 13.5 0.8632451891899109 L 26.0313777923584 18.5 Z"/><path class="h" d="M 13.5 1.726499557495117 L 1.937250137329102 18 L 25.0627498626709 18 L 13.5 1.726499557495117 M 13.5 0 L 27 19 L 0 19 L 13.5 0 Z"/></g><g class="d" transform="translate(55.287 19.069) rotate(180)"><path class="g" d="M 27.01050186157227 18.5 L 0.9894984364509583 18.5 L 14 0.842890739440918 L 27.01050186157227 18.5 Z"/><path class="h" d="M 14 1.685781478881836 L 1.978996276855469 18 L 26.02100372314453 18 L 14 1.685781478881836 M 14 0 L 28 19 L 0 19 L 14 0 Z"/></g><g class="d" transform="translate(27.287 19.069) rotate(180)"><path class="g" d="M 26.0313777923584 18.5 L 0.968621551990509 18.5 L 13.5 0.8632451891899109 L 26.0313777923584 18.5 Z"/><path class="h" d="M 13.5 1.726499557495117 L 1.937250137329102 18 L 25.0627498626709 18 L 13.5 1.726499557495117 M 13.5 0 L 27 19 L 0 19 L 13.5 0 Z"/></g></g><g transform="translate(13.952 77.73)"><g class="d" transform="translate(191.332 20.27) rotate(180)"><path class="g" d="M 25.07866096496582 19.5 L 0.9213384985923767 19.5 L 13 0.9174438714981079 L 25.07866096496582 19.5 Z"/><path class="h" d="M 13 1.834897994995117 L 1.842683792114258 19 L 24.15731620788574 19 L 13 1.834897994995117 M 13 0 L 26 20 L 0 20 L 13 0 Z"/></g><g class="d" transform="translate(165.332 20.27) rotate(180)"><path class="g" d="M 27.03966903686523 19.5 L 0.9603310227394104 19.5 L 14 0.8719014525413513 L 27.03966903686523 19.5 Z"/><path class="h" d="M 14 1.74378776550293 L 1.920652389526367 19 L 26.07934761047363 19 L 14 1.74378776550293 M 14 0 L 28 20 L 0 20 L 14 0 Z"/></g><g class="d" transform="translate(137.332 20.27) rotate(180)"><path class="g" d="M 26.05925559997559 19.5 L 0.9407445192337036 19.5 L 13.5 0.8936955332756042 L 26.05925559997559 19.5 Z"/><path class="h" d="M 13.5 1.787395477294922 L 1.881492614746094 19 L 25.11850738525391 19 L 13.5 1.787395477294922 M 13.5 0 L 27 20 L 0 20 L 13.5 0 Z"/></g><g class="d" transform="translate(110.332 20.27) rotate(180)"><path class="g" d="M 27.03966903686523 19.5 L 0.9603310227394104 19.5 L 14 0.8719014525413513 L 27.03966903686523 19.5 Z"/><path class="h" d="M 14 1.74378776550293 L 1.920652389526367 19 L 26.07934761047363 19 L 14 1.74378776550293 M 14 0 L 28 20 L 0 20 L 14 0 Z"/></g><g class="d" transform="translate(82.332 20.27) rotate(180)"><path class="g" d="M 27.03966903686523 19.5 L 0.9603310227394104 19.5 L 14 0.8719014525413513 L 27.03966903686523 19.5 Z"/><path class="h" d="M 14 1.74378776550293 L 1.920652389526367 19 L 26.07934761047363 19 L 14 1.74378776550293 M 14 0 L 28 20 L 0 20 L 14 0 Z"/></g><g class="d" transform="translate(54.332 20.27) rotate(180)"><path class="g" d="M 25.07866096496582 19.5 L 0.9213384985923767 19.5 L 13 0.9174438714981079 L 25.07866096496582 19.5 Z"/><path class="h" d="M 13 1.834897994995117 L 1.842683792114258 19 L 24.15731620788574 19 L 13 1.834897994995117 M 13 0 L 26 20 L 0 20 L 13 0 Z"/></g><g class="d" transform="translate(28.332 20.27) rotate(180)"><path class="g" d="M 27.03966903686523 19.5 L 0.9603310227394104 19.5 L 14 0.8719014525413513 L 27.03966903686523 19.5 Z"/><path class="h" d="M 14 1.74378776550293 L 1.920652389526367 19 L 26.07934761047363 19 L 14 1.74378776550293 M 14 0 L 28 20 L 0 20 L 14 0 Z"/></g></g><g transform="translate(13.952 38.865)"><g class="d" transform="translate(191.332 20.135) rotate(180)"><path class="g" d="M 25.07866096496582 19.5 L 0.9213384985923767 19.5 L 13 0.9174438714981079 L 25.07866096496582 19.5 Z"/><path class="h" d="M 13 1.834897994995117 L 1.842683792114258 19 L 24.15731620788574 19 L 13 1.834897994995117 M 13 0 L 26 20 L 0 20 L 13 0 Z"/></g><g class="d" transform="translate(165.332 20.135) rotate(180)"><path class="g" d="M 27.03966903686523 19.5 L 0.9603310227394104 19.5 L 14 0.8719014525413513 L 27.03966903686523 19.5 Z"/><path class="h" d="M 14 1.74378776550293 L 1.920652389526367 19 L 26.07934761047363 19 L 14 1.74378776550293 M 14 0 L 28 20 L 0 20 L 14 0 Z"/></g><g class="d" transform="translate(137.332 20.135) rotate(180)"><path class="g" d="M 26.05925559997559 19.5 L 0.9407445192337036 19.5 L 13.5 0.8936955332756042 L 26.05925559997559 19.5 Z"/><path class="h" d="M 13.5 1.787395477294922 L 1.881492614746094 19 L 25.11850738525391 19 L 13.5 1.787395477294922 M 13.5 0 L 27 20 L 0 20 L 13.5 0 Z"/></g><g class="d" transform="translate(110.332 20.135) rotate(180)"><path class="g" d="M 27.03966903686523 19.5 L 0.9603310227394104 19.5 L 14 0.8719014525413513 L 27.03966903686523 19.5 Z"/><path class="h" d="M 14 1.74378776550293 L 1.920652389526367 19 L 26.07934761047363 19 L 14 1.74378776550293 M 14 0 L 28 20 L 0 20 L 14 0 Z"/></g><g class="d" transform="translate(82.332 20.135) rotate(180)"><path class="g" d="M 27.03966903686523 19.5 L 0.9603310227394104 19.5 L 14 0.8719014525413513 L 27.03966903686523 19.5 Z"/><path class="h" d="M 14 1.74378776550293 L 1.920652389526367 19 L 26.07934761047363 19 L 14 1.74378776550293 M 14 0 L 28 20 L 0 20 L 14 0 Z"/></g><g class="d" transform="translate(54.332 20.135) rotate(180)"><path class="g" d="M 25.07866096496582 19.5 L 0.9213384985923767 19.5 L 13 0.9174438714981079 L 25.07866096496582 19.5 Z"/><path class="h" d="M 13 1.834897994995117 L 1.842683792114258 19 L 24.15731620788574 19 L 13 1.834897994995117 M 13 0 L 26 20 L 0 20 L 13 0 Z"/></g><g class="d" transform="translate(28.332 20.135) rotate(180)"><path class="g" d="M 27.03966903686523 19.5 L 0.9603310227394104 19.5 L 14 0.8719014525413513 L 27.03966903686523 19.5 Z"/><path class="h" d="M 14 1.74378776550293 L 1.920652389526367 19 L 26.07934761047363 19 L 14 1.74378776550293 M 14 0 L 28 20 L 0 20 L 14 0 Z"/></g></g><g transform="translate(0 96.664)"><g class="d" transform="translate(192.284 20.336) rotate(180)"><path class="g" d="M 26.05925559997559 19.5 L 0.9407445192337036 19.5 L 13.5 0.8936955332756042 L 26.05925559997559 19.5 Z"/><path class="h" d="M 13.5 1.787395477294922 L 1.881492614746094 19 L 25.11850738525391 19 L 13.5 1.787395477294922 M 13.5 0 L 27 20 L 0 20 L 13.5 0 Z"/></g><g class="d" transform="translate(219.284 20.336) rotate(180)"><path class="g" d="M 26.05925559997559 19.5 L 0.9407445192337036 19.5 L 13.5 0.8936955332756042 L 26.05925559997559 19.5 Z"/><path class="h" d="M 13.5 1.787395477294922 L 1.881492614746094 19 L 25.11850738525391 19 L 13.5 1.787395477294922 M 13.5 0 L 27 20 L 0 20 L 13.5 0 Z"/></g><g class="d" transform="translate(165.284 20.336) rotate(180)"><path class="g" d="M 27.03966903686523 19.5 L 0.9603310227394104 19.5 L 14 0.8719014525413513 L 27.03966903686523 19.5 Z"/><path class="h" d="M 14 1.74378776550293 L 1.920652389526367 19 L 26.07934761047363 19 L 14 1.74378776550293 M 14 0 L 28 20 L 0 20 L 14 0 Z"/></g><g class="d" transform="translate(137.284 20.336) rotate(180)"><path class="g" d="M 27.03966903686523 19.5 L 0.9603310227394104 19.5 L 14 0.8719014525413513 L 27.03966903686523 19.5 Z"/><path class="h" d="M 14 1.74378776550293 L 1.920652389526367 19 L 26.07934761047363 19 L 14 1.74378776550293 M 14 0 L 28 20 L 0 20 L 14 0 Z"/></g><g class="d" transform="translate(109.284 20.336) rotate(180)"><path class="g" d="M 26.05925559997559 19.5 L 0.9407445192337036 19.5 L 13.5 0.8936955332756042 L 26.05925559997559 19.5 Z"/><path class="h" d="M 13.5 1.787395477294922 L 1.881492614746094 19 L 25.11850738525391 19 L 13.5 1.787395477294922 M 13.5 0 L 27 20 L 0 20 L 13.5 0 Z"/></g><g class="d" transform="translate(82.284 20.336) rotate(180)"><path class="g" d="M 26.05925559997559 19.5 L 0.9407445192337036 19.5 L 13.5 0.8936955332756042 L 26.05925559997559 19.5 Z"/><path class="h" d="M 13.5 1.787395477294922 L 1.881492614746094 19 L 25.11850738525391 19 L 13.5 1.787395477294922 M 13.5 0 L 27 20 L 0 20 L 13.5 0 Z"/></g><g class="d" transform="translate(55.284 20.336) rotate(180)"><path class="g" d="M 27.03966903686523 19.5 L 0.9603310227394104 19.5 L 14 0.8719014525413513 L 27.03966903686523 19.5 Z"/><path class="h" d="M 14 1.74378776550293 L 1.920652389526367 19 L 26.07934761047363 19 L 14 1.74378776550293 M 14 0 L 28 20 L 0 20 L 14 0 Z"/></g><g class="d" transform="translate(27.284 20.336) rotate(180)"><path class="g" d="M 26.05925559997559 19.5 L 0.9407445192337036 19.5 L 13.5 0.8936955332756042 L 26.05925559997559 19.5 Z"/><path class="h" d="M 13.5 1.787395477294922 L 1.881492614746094 19 L 25.11850738525391 19 L 13.5 1.787395477294922 M 13.5 0 L 27 20 L 0 20 L 13.5 0 Z"/></g></g><g transform="translate(13.952 116.595)"><g class="d" transform="translate(191.332 19.405) rotate(180)"><path class="g" d="M 25.05206489562988 18.5 L 0.9479352831840515 18.5 L 13 0.8854438662528992 L 25.05206489562988 18.5 Z"/><path class="h" d="M 13 1.770902633666992 L 1.895879745483398 18 L 24.1041202545166 18 L 13 1.770902633666992 M 13 0 L 26 19 L 0 19 L 13 0 Z"/></g><g class="d" transform="translate(165.332 19.405) rotate(180)"><path class="g" d="M 27.01050186157227 18.5 L 0.9894984364509583 18.5 L 14 0.842890739440918 L 27.01050186157227 18.5 Z"/><path class="h" d="M 14 1.685781478881836 L 1.978996276855469 18 L 26.02100372314453 18 L 14 1.685781478881836 M 14 0 L 28 19 L 0 19 L 14 0 Z"/></g><g class="d" transform="translate(137.332 19.405) rotate(180)"><path class="g" d="M 26.0313777923584 18.5 L 0.968621551990509 18.5 L 13.5 0.8632451891899109 L 26.0313777923584 18.5 Z"/><path class="h" d="M 13.5 1.726499557495117 L 1.937250137329102 18 L 25.0627498626709 18 L 13.5 1.726499557495117 M 13.5 0 L 27 19 L 0 19 L 13.5 0 Z"/></g><g class="d" transform="translate(110.332 19.405) rotate(180)"><path class="g" d="M 27.01050186157227 18.5 L 0.9894984364509583 18.5 L 14 0.842890739440918 L 27.01050186157227 18.5 Z"/><path class="h" d="M 14 1.685781478881836 L 1.978996276855469 18 L 26.02100372314453 18 L 14 1.685781478881836 M 14 0 L 28 19 L 0 19 L 14 0 Z"/></g><g class="d" transform="translate(82.332 19.405) rotate(180)"><path class="g" d="M 27.01050186157227 18.5 L 0.9894984364509583 18.5 L 14 0.842890739440918 L 27.01050186157227 18.5 Z"/><path class="h" d="M 14 1.685781478881836 L 1.978996276855469 18 L 26.02100372314453 18 L 14 1.685781478881836 M 14 0 L 28 19 L 0 19 L 14 0 Z"/></g><g class="d" transform="translate(54.332 19.405) rotate(180)"><path class="g" d="M 25.05206489562988 18.5 L 0.9479352831840515 18.5 L 13 0.8854438662528992 L 25.05206489562988 18.5 Z"/><path class="h" d="M 13 1.770902633666992 L 1.895879745483398 18 L 24.1041202545166 18 L 13 1.770902633666992 M 13 0 L 26 19 L 0 19 L 13 0 Z"/></g><g class="d" transform="translate(28.332 19.405) rotate(180)"><path class="g" d="M 27.01050186157227 18.5 L 0.9894984364509583 18.5 L 14 0.842890739440918 L 27.01050186157227 18.5 Z"/><path class="h" d="M 14 1.685781478881836 L 1.978996276855469 18 L 26.02100372314453 18 L 14 1.685781478881836 M 14 0 L 28 19 L 0 19 L 14 0 Z"/></g></g><g transform="translate(0 135.529)"><g class="d" transform="translate(220.284 20.471) rotate(180)"><path class="g" d="M 27.03966903686523 19.5 L 0.9603310227394104 19.5 L 14 0.8719014525413513 L 27.03966903686523 19.5 Z"/><path class="h" d="M 14 1.74378776550293 L 1.920652389526367 19 L 26.07934761047363 19 L 14 1.74378776550293 M 14 0 L 28 20 L 0 20 L 14 0 Z"/></g><g class="d" transform="translate(192.284 20.471) rotate(180)"><path class="g" d="M 26.05925559997559 19.5 L 0.9407445192337036 19.5 L 13.5 0.8936955332756042 L 26.05925559997559 19.5 Z"/><path class="h" d="M 13.5 1.787395477294922 L 1.881492614746094 19 L 25.11850738525391 19 L 13.5 1.787395477294922 M 13.5 0 L 27 20 L 0 20 L 13.5 0 Z"/></g><g class="d" transform="translate(165.284 20.471) rotate(180)"><path class="g" d="M 27.03966903686523 19.5 L 0.9603310227394104 19.5 L 14 0.8719014525413513 L 27.03966903686523 19.5 Z"/><path class="h" d="M 14 1.74378776550293 L 1.920652389526367 19 L 26.07934761047363 19 L 14 1.74378776550293 M 14 0 L 28 20 L 0 20 L 14 0 Z"/></g><g class="d" transform="translate(137.284 20.471) rotate(180)"><path class="g" d="M 27.03966903686523 19.5 L 0.9603310227394104 19.5 L 14 0.8719014525413513 L 27.03966903686523 19.5 Z"/><path class="h" d="M 14 1.74378776550293 L 1.920652389526367 19 L 26.07934761047363 19 L 14 1.74378776550293 M 14 0 L 28 20 L 0 20 L 14 0 Z"/></g><g class="d" transform="translate(109.284 20.471) rotate(180)"><path class="g" d="M 26.05925559997559 19.5 L 0.9407445192337036 19.5 L 13.5 0.8936955332756042 L 26.05925559997559 19.5 Z"/><path class="h" d="M 13.5 1.787395477294922 L 1.881492614746094 19 L 25.11850738525391 19 L 13.5 1.787395477294922 M 13.5 0 L 27 20 L 0 20 L 13.5 0 Z"/></g><g class="d" transform="translate(82.284 20.471) rotate(180)"><path class="g" d="M 25.07866096496582 19.5 L 0.9213384985923767 19.5 L 13 0.9174438714981079 L 25.07866096496582 19.5 Z"/><path class="h" d="M 13 1.834897994995117 L 1.842683792114258 19 L 24.15731620788574 19 L 13 1.834897994995117 M 13 0 L 26 20 L 0 20 L 13 0 Z"/></g><g class="d" transform="translate(56.284 20.471) rotate(180)"><path class="g" d="M 28.01991653442383 19.5 L 0.9800829887390137 19.5 L 14.5 0.8518386483192444 L 28.01991653442383 19.5 Z"/><path class="h" d="M 14.5 1.70367431640625 L 1.960163116455078 19 L 27.03983688354492 19 L 14.5 1.70367431640625 M 14.5 0 L 29 20 L 0 20 L 14.5 0 Z"/></g><g class="d" transform="translate(27.284 20.471) rotate(180)"><path class="g" d="M 26.05925559997559 19.5 L 0.9407445192337036 19.5 L 13.5 0.8936955332756042 L 26.05925559997559 19.5 Z"/><path class="h" d="M 13.5 1.787395477294922 L 1.881492614746094 19 L 25.11850738525391 19 L 13.5 1.787395477294922 M 13.5 0 L 27 20 L 0 20 L 13.5 0 Z"/></g></g><g transform="translate(13.952 156.457)"><g class="d" transform="translate(191.332 18.543) rotate(180)"><path class="g" d="M 25.05206489562988 18.5 L 0.9479352831840515 18.5 L 13 0.8854438662528992 L 25.05206489562988 18.5 Z"/><path class="h" d="M 13 1.770902633666992 L 1.895879745483398 18 L 24.1041202545166 18 L 13 1.770902633666992 M 13 0 L 26 19 L 0 19 L 13 0 Z"/></g><g class="d" transform="translate(165.332 18.543) rotate(180)"><path class="g" d="M 27.01050186157227 18.5 L 0.9894984364509583 18.5 L 14 0.842890739440918 L 27.01050186157227 18.5 Z"/><path class="h" d="M 14 1.685781478881836 L 1.978996276855469 18 L 26.02100372314453 18 L 14 1.685781478881836 M 14 0 L 28 19 L 0 19 L 14 0 Z"/></g><g class="d" transform="translate(137.332 18.543) rotate(180)"><path class="g" d="M 26.0313777923584 18.5 L 0.968621551990509 18.5 L 13.5 0.8632451891899109 L 26.0313777923584 18.5 Z"/><path class="h" d="M 13.5 1.726499557495117 L 1.937250137329102 18 L 25.0627498626709 18 L 13.5 1.726499557495117 M 13.5 0 L 27 19 L 0 19 L 13.5 0 Z"/></g><g class="d" transform="translate(110.332 18.543) rotate(180)"><path class="g" d="M 27.01050186157227 18.5 L 0.9894984364509583 18.5 L 14 0.842890739440918 L 27.01050186157227 18.5 Z"/><path class="h" d="M 14 1.685781478881836 L 1.978996276855469 18 L 26.02100372314453 18 L 14 1.685781478881836 M 14 0 L 28 19 L 0 19 L 14 0 Z"/></g><g class="d" transform="translate(82.332 18.543) rotate(180)"><path class="g" d="M 27.01050186157227 18.5 L 0.9894984364509583 18.5 L 14 0.842890739440918 L 27.01050186157227 18.5 Z"/><path class="h" d="M 14 1.685781478881836 L 1.978996276855469 18 L 26.02100372314453 18 L 14 1.685781478881836 M 14 0 L 28 19 L 0 19 L 14 0 Z"/></g><g class="d" transform="translate(54.332 18.543) rotate(180)"><path class="g" d="M 25.05206489562988 18.5 L 0.9479352831840515 18.5 L 13 0.8854438662528992 L 25.05206489562988 18.5 Z"/><path class="h" d="M 13 1.770902633666992 L 1.895879745483398 18 L 24.1041202545166 18 L 13 1.770902633666992 M 13 0 L 26 19 L 0 19 L 13 0 Z"/></g><g class="d" transform="translate(28.332 18.543) rotate(180)"><path class="g" d="M 27.01050186157227 18.5 L 0.9894984364509583 18.5 L 14 0.842890739440918 L 27.01050186157227 18.5 Z"/><path class="h" d="M 14 1.685781478881836 L 1.978996276855469 18 L 26.02100372314453 18 L 14 1.685781478881836 M 14 0 L 28 19 L 0 19 L 14 0 Z"/></g></g></g></g></g></svg>