<?xml version="1.0" encoding="UTF-8" standalone="no"?>
<!DOCTYPE svg PUBLIC "-//W3C//DTD SVG 1.1//EN" "http://www.w3.org/Graphics/SVG/1.1/DTD/svg11.dtd">
<svg width="100%" height="100%" viewBox="0 0 215 43" version="1.1" xmlns="http://www.w3.org/2000/svg" xmlns:xlink="http://www.w3.org/1999/xlink" xml:space="preserve" xmlns:serif="http://www.serif.com/" style="fill-rule:evenodd;clip-rule:evenodd;stroke-linejoin:round;stroke-miterlimit:1.41421;"><g id="scienceon_logo"><g id="그룹_1727"><g id="그룹_1726"><g id="그룹_1725"><path id="타원_263" d="M165.735,10.657c5.882,-5.882 15.432,-5.882 21.315,0c5.882,5.883 5.882,15.433 0,21.316c-5.883,5.882 -15.433,5.882 -21.315,0c-5.883,-5.883 -5.883,-15.433 0,-21.316Z" style="fill:url(#_Radial1);"/><circle id="타원_264" cx="174.887" cy="19.81" r="15.072" style="fill:url(#_Radial2);"/></g><path id="패스_14551" d="M174.888,30.885c0,0 -0.001,0 -0.001,0c-6.076,0 -11.075,-4.999 -11.075,-11.075c0,-6.076 4.999,-11.075 11.075,-11.075c6.076,0 11.075,4.999 11.075,11.075c-0.007,6.072 -5.002,11.067 -11.074,11.075Zm0,-17.43c-3.487,0 -6.356,2.869 -6.356,6.356c0,3.487 2.869,6.356 6.356,6.356c3.487,0 6.356,-2.869 6.356,-6.356c0,0 0,-0.001 0,-0.001c-0.004,-3.485 -2.871,-6.352 -6.356,-6.355Z" style="fill:#dc000c;fill-rule:nonzero;"/></g><path id="패스_14552" d="M16.979,40.353l-13.924,0c-1.294,0 -2.36,-1.065 -2.36,-2.359c0,-1.295 1.066,-2.36 2.36,-2.36l13.924,0c1.097,0 2,-0.903 2,-2c0,-1.097 -0.903,-2 -2,-2l-10.261,0c-3.685,0 -6.717,-3.032 -6.717,-6.717c0,-3.685 3.032,-6.717 6.717,-6.717c0,0 13.227,0 13.227,0c1.294,0 2.359,1.065 2.359,2.36c0,1.294 -1.065,2.359 -2.359,2.359l-13.227,0c-1.097,0 -2,0.903 -2,2c0,1.097 0.903,2 2,2l10.261,0c3.685,0 6.717,3.032 6.717,6.717c0,3.685 -3.032,6.717 -6.717,6.717Z" style="fill:#003879;fill-rule:nonzero;"/><path id="패스_14553" d="M78.827,40.356l-7.9,0c-6.358,-0.003 -11.589,-5.236 -11.589,-11.594c0,-6.36 5.234,-11.594 11.594,-11.594c6.358,0 11.591,5.23 11.594,11.588c0,1.294 -1.065,2.359 -2.359,2.359l-15.694,0c0.992,2.704 3.579,4.513 6.459,4.517l7.9,0c1.294,0 2.359,1.065 2.359,2.36c0,1.294 -1.065,2.359 -2.359,2.359l-0.005,0.005Zm-14.354,-13.954l12.918,0c-0.988,-2.707 -3.578,-4.518 -6.459,-4.518c-2.881,0 -5.471,1.811 -6.459,4.518Z" style="fill:#003879;fill-rule:nonzero;"/><path id="패스_14554" d="M151.583,40.356l-7.895,0c-6.36,0 -11.594,-5.234 -11.594,-11.594c0,-6.36 5.234,-11.594 11.594,-11.594c6.358,0 11.591,5.23 11.594,11.588c0,1.294 -1.065,2.359 -2.359,2.359l-15.694,0c0.992,2.704 3.58,4.513 6.46,4.517l7.895,0c1.294,0 2.36,1.065 2.36,2.36c0,1.294 -1.066,2.359 -2.36,2.359l-0.001,0.005Zm-14.354,-13.954l12.918,0c-0.989,-2.706 -3.578,-4.516 -6.459,-4.516c-2.881,0 -5.47,1.81 -6.459,4.516Z" style="fill:#003879;fill-rule:nonzero;"/><path id="패스_14555" d="M44.446,40.353l-7.344,0c-6.076,0 -11.075,-4.999 -11.075,-11.075c0,-6.076 4.999,-11.075 11.075,-11.075c0,0 7.344,0 7.344,0c1.294,0 2.359,1.065 2.359,2.36c0,1.294 -1.065,2.359 -2.359,2.359l-7.344,0c-3.487,0 -6.356,2.869 -6.356,6.356c0,3.487 2.869,6.356 6.356,6.356l7.344,0c1.294,0 2.359,1.065 2.359,2.36c0,1.294 -1.065,2.359 -2.359,2.359Z" style="fill:#003879;fill-rule:nonzero;"/><path id="패스_14556" d="M128.101,40.353l-7.345,0c-6.076,0 -11.075,-4.999 -11.075,-11.075c0,-6.076 4.999,-11.075 11.075,-11.075l7.345,0c1.294,0 2.36,1.065 2.36,2.36c0,1.294 -1.066,2.359 -2.36,2.359l-7.345,0c-3.487,0 -6.356,2.869 -6.356,6.356c0,3.487 2.869,6.356 6.356,6.356c0,0 7.345,0 7.345,0c1.294,0 2.36,1.065 2.36,2.36c0,1.294 -1.066,2.359 -2.36,2.359Z" style="fill:#003879;fill-rule:nonzero;"/><path id="패스_14557" d="M53.469,40.353c-1.294,0 -2.359,-1.065 -2.359,-2.359l0,-17.431c0,-1.294 1.065,-2.36 2.36,-2.36c1.294,0 2.359,1.066 2.359,2.36l0,17.431c-0.001,1.294 -1.066,2.359 -2.36,2.359Z" style="fill:#003879;fill-rule:nonzero;"/><path id="패스_14558" d="M102.156,40.678c-1.779,-0.013 -3.399,-1.053 -4.15,-2.666l-6.92,-14.428l0,14.41c0,1.294 -1.065,2.359 -2.36,2.359c-1.294,0 -2.359,-1.065 -2.359,-2.359l0,-15.766c-0.04,-2.02 1.366,-3.804 3.34,-4.236c2.097,-0.465 4.253,0.604 5.154,2.554l6.92,14.428l0,-14.411c0,-1.294 1.065,-2.36 2.359,-2.36c1.295,0 2.36,1.066 2.36,2.36l0,15.77c0.04,2.021 -1.366,3.804 -3.34,4.237c-0.33,0.073 -0.666,0.109 -1.004,0.108Z" style="fill:#003879;fill-rule:nonzero;"/><path id="패스_14559" d="M209.825,31.21c-1.779,-0.014 -3.399,-1.054 -4.151,-2.667l-6.919,-14.427l0,14.41c0,1.294 -1.065,2.359 -2.359,2.359c-1.294,0 -2.359,-1.065 -2.359,-2.359c0,0 0,-15.766 0,-15.766c-0.041,-2.021 1.366,-3.805 3.34,-4.237c2.097,-0.463 4.252,0.605 5.154,2.554l6.92,14.428l0,-14.41c0,-1.294 1.065,-2.359 2.36,-2.359c1.294,0 2.359,1.065 2.359,2.359l0,15.766c0.04,2.021 -1.367,3.804 -3.341,4.237c-0.329,0.075 -0.666,0.112 -1.004,0.112Z" style="fill:#dc000c;fill-rule:nonzero;"/></g></g><defs><radialGradient id="_Radial1" cx="0" cy="0" r="1" gradientUnits="userSpaceOnUse" gradientTransform="matrix(12.2315,12.2315,-11.0328,11.0328,174.749,19.6944)"><stop offset="0" style="stop-color:#5f5e5e;stop-opacity:1"/><stop offset="0.9" style="stop-color:#5f5e5e;stop-opacity:1"/><stop offset="1" style="stop-color:#fff;stop-opacity:1"/></radialGradient><radialGradient id="_Radial2" cx="0" cy="0" r="1" gradientUnits="userSpaceOnUse" gradientTransform="matrix(17.834,0,0,17.834,173.72,17.085)"><stop offset="0" style="stop-color:#f6f6f6;stop-opacity:1"/><stop offset="0.85" style="stop-color:#d4d5d5;stop-opacity:1"/><stop offset="0.88" style="stop-color:#cdcdce;stop-opacity:1"/><stop offset="0.93" style="stop-color:#c9c9ca;stop-opacity:1"/><stop offset="1" style="stop-color:#a6a7a7;stop-opacity:1"/></radialGradient></defs></svg>