<svg id="그룹_2139" data-name="그룹 2139" xmlns="http://www.w3.org/2000/svg" width="12.301" height="16.411" viewBox="0 0 12.301 16.411">
  <g id="그룹_2010" data-name="그룹 2010" transform="translate(0 1.674)">
    <g id="사각형_109" data-name="사각형 109" fill="none" stroke="#26415c" stroke-width="0.5">
      <rect width="12.301" height="3.177" stroke="none"/>
      <rect x="0.25" y="0.25" width="11.801" height="2.677" fill="none"/>
    </g>
  </g>
  <g id="그룹_2013" data-name="그룹 2013" transform="translate(3.791 0)">
    <g id="사각형_109-2" data-name="사각형 109" fill="none" stroke="#26415c" stroke-width="0.5">
      <rect width="4.72" height="1.85" stroke="none"/>
      <rect x="0.25" y="0.25" width="4.22" height="1.35" fill="none"/>
    </g>
  </g>
  <g id="패스_14811" data-name="패스 14811" transform="translate(1.101 4.41)" fill="none">
    <path d="M0,0H10V10a2,2,0,0,1-2,2H2a2,2,0,0,1-2-2Z" stroke="none"/>
    <path d="M 0.5 0.5 L 0.5 10 C 0.5 10.82709980010986 1.172900199890137 11.5 2 11.5 L 8 11.5 C 8.827099800109863 11.5 9.5 10.82709980010986 9.5 10 L 9.5 0.5 L 0.5 0.5 M 0 0 L 10 0 L 10 10 C 10 11.10457038879395 9.104570388793945 12 8 12 L 2 12 C 0.8954296112060547 12 0 11.10457038879395 0 10 L 0 0 Z" stroke="none" fill="#26415c"/>
  </g>
  <line id="선_170" data-name="선 170" y2="7" transform="translate(4.601 6.91)" fill="none" stroke="#26415c" stroke-width="0.5"/>
  <line id="선_171" data-name="선 171" y2="7" transform="translate(7.601 6.91)" fill="none" stroke="#26415c" stroke-width="0.5"/>
</svg>
