<svg xmlns="http://www.w3.org/2000/svg" width="15.863" height="17.524" viewBox="0 0 15.863 17.524">
  <g id="그룹_2016" data-name="그룹 2016" transform="translate(-971 -733)">
    <g id="패스_14809" data-name="패스 14809" transform="translate(971 736)" fill="#fff">
      <path d="M 12.36328029632568 14.02462387084961 L 0.5000005960464478 14.02462387084961 L 0.5000005960464478 0.5000038146972656 L 10.09535598754883 0.5000038146972656 L 12.36328029632568 3.351837873458862 L 12.36328029632568 14.02462387084961 Z" stroke="none"/>
      <path d="M 1.000000953674316 1.000003814697266 L 1.000000953674316 13.52462387084961 L 11.86328029632568 13.52462387084961 L 11.86328029632568 3.526421546936035 L 9.854143142700195 1.000003814697266 L 1.000000953674316 1.000003814697266 M 9.5367431640625e-07 3.814697265625e-06 L 10.33656120300293 3.814697265625e-06 L 12.86328029632568 3.177264213562012 L 12.86328029632568 14.52462387084961 L 9.5367431640625e-07 14.52462387084961 L 9.5367431640625e-07 3.814697265625e-06 Z" stroke="none" fill="#26415c"/>
    </g>
    <g id="패스_14810" data-name="패스 14810" transform="translate(974 733)" fill="#fff">
      <path d="M 12.36328029632568 14.02462387084961 L 0.5000005960464478 14.02462387084961 L 0.5000005960464478 0.5000038146972656 L 10.09535598754883 0.5000038146972656 L 12.36328029632568 3.351837873458862 L 12.36328029632568 14.02462387084961 Z" stroke="none"/>
      <path d="M 1.000000953674316 1.000003814697266 L 1.000000953674316 13.52462387084961 L 11.86328029632568 13.52462387084961 L 11.86328029632568 3.526421546936035 L 9.854143142700195 1.000003814697266 L 1.000000953674316 1.000003814697266 M 9.5367431640625e-07 3.814697265625e-06 L 10.33656120300293 3.814697265625e-06 L 12.86328029632568 3.177264213562012 L 12.86328029632568 14.52462387084961 L 9.5367431640625e-07 14.52462387084961 L 9.5367431640625e-07 3.814697265625e-06 Z" stroke="none" fill="#26415c"/>
    </g>
  </g>
</svg>
