<?xml version="1.0" encoding="UTF-8" standalone="no"?><!DOCTYPE svg PUBLIC "-//W3C//DTD SVG 1.1//EN" "http://www.w3.org/Graphics/SVG/1.1/DTD/svg11.dtd"><svg width="100%" height="100%" viewBox="0 0 14 14" version="1.1" xmlns="http://www.w3.org/2000/svg" xmlns:xlink="http://www.w3.org/1999/xlink" xml:space="preserve" xmlns:serif="http://www.serif.com/" style="fill-rule:evenodd;clip-rule:evenodd;stroke-linejoin:round;stroke-miterlimit:2;"><path id="패스_780" d="M8.652,5.348l5.348,0l-4.326,3.3l1.652,5.352l-4.326,-3.3l-4.326,3.3l1.652,-5.348l-4.326,-3.304l5.348,0l1.652,-5.348l1.652,5.348Zm-2.587,0.222l-0.021,0.06l-0.026,0.057l-0.031,0.056l-0.036,0.053l-0.04,0.049l-0.044,0.046l-0.048,0.042l-0.051,0.038l-0.054,0.033l-0.057,0.028l-0.059,0.024l-0.061,0.019l-0.062,0.013l-0.063,0.008l-0.064,0.003l-3.128,0l2.562,1.956l0.047,0.039l0.043,0.043l0.04,0.046l0.036,0.049l0.032,0.052l0.028,0.054l0.023,0.056l0.019,0.059l0.014,0.059l0.009,0.06l0.004,0.061l-0.001,0.061l-0.006,0.061l-0.011,0.06l-0.016,0.059l-0.959,3.106l2.461,-1.877l0.05,-0.035l0.052,-0.031l0.056,-0.026l0.057,-0.022l0.058,-0.017l0.06,-0.013l0.061,-0.007l0.061,-0.003l0.061,0.003l0.061,0.007l0.06,0.013l0.058,0.017l0.057,0.022l0.056,0.026l0.052,0.031l0.05,0.035l2.462,1.878l-0.96,-3.112l-0.016,-0.059l-0.011,-0.06l-0.006,-0.06l-0.001,-0.061l0.004,-0.061l0.009,-0.06l0.014,-0.06l0.019,-0.058l0.023,-0.056l0.028,-0.054l0.032,-0.052l0.036,-0.049l0.04,-0.046l0.044,-0.043l0.047,-0.039l2.559,-1.952l-3.126,0l-0.064,-0.003l-0.063,-0.008l-0.062,-0.013l-0.061,-0.019l-0.059,-0.024l-0.057,-0.028l-0.054,-0.033l-0.051,-0.038l-0.048,-0.042l-0.044,-0.046l-0.04,-0.049l-0.036,-0.053l-0.031,-0.056l-0.026,-0.057l-0.021,-0.06l-0.935,-3.026l-0.935,3.026Z" style="fill:#f60;"/></svg>