<svg xmlns="http://www.w3.org/2000/svg" width="28" height="14" viewBox="0 0 28 14"><defs><style>.a{fill:#d34d80;}.b{fill:#fff;}</style></defs><g transform="translate(-630 -583)"><rect class="a" width="28" height="14" rx="2" transform="translate(630 583)"/><path class="b" d="M1,0H2.629V-2.893H3.718c1.749,0,3.146-.836,3.146-2.7,0-1.925-1.386-2.552-3.19-2.552H1ZM2.629-4.18V-6.853h.924c1.122,0,1.716.319,1.716,1.265S4.73-4.18,3.608-4.18ZM8.338,0h2.321c2.4,0,3.938-1.364,3.938-4.1S13.057-8.14,10.571-8.14H8.338ZM9.966-1.309V-6.842h.506c1.518,0,2.464.748,2.464,2.739s-.946,2.794-2.464,2.794ZM16.192,0H17.82V-3.3h2.893V-4.664H17.82V-6.787h3.388V-8.14H16.192Z" transform="translate(632.999 594.14)"/></g></svg>