<svg xmlns="http://www.w3.org/2000/svg" xmlns:xlink="http://www.w3.org/1999/xlink" width="1152" height="170" viewBox="0 0 1152 170"><defs><style>.a,.b{fill:none;}.b{stroke:#fff;}.c{clip-path:url(#a);}.d{opacity:0.3;}.e{clip-path:url(#b);}.f{fill:#344501;}.g{fill:#8ab801;}.h{fill:#769c01;}.i{fill:#526d01;}.j{opacity:0.47;clip-path:url(#c);}.k,.m,.p,.s{fill:#fff;}.k{opacity:0.325;}.l{fill:#00478b;opacity:0.997;}.m{font-size:29px;font-family:NotoSansCJKkr-Light, Noto Sans CJK KR;font-weight:300;}.n{font-size:33px;}.o{clip-path:url(#h);}.q{opacity:0.596;}.r,.s{stroke:none;}.t{filter:url(#f);}.u{filter:url(#d);}</style><clipPath id="a"><rect class="a" width="1152" height="170" transform="translate(64 215)"/></clipPath><clipPath id="b"><path class="a" d="M0-408.035H517.359V-730.086H0Z" transform="translate(0 730.086)"/></clipPath><clipPath id="c"><path class="a" d="M0,0H345.193V214.879H0Z" transform="translate(0 0)"/></clipPath><filter id="d" x="-35" y="-74" width="324" height="324" filterUnits="userSpaceOnUse"><feOffset dy="3" input="SourceAlpha"/><feGaussianBlur stdDeviation="3" result="e"/><feFlood flood-opacity="0.675"/><feComposite operator="in" in2="e"/><feComposite in="SourceGraphic"/></filter><filter id="f" x="37" y="-2.055" width="181" height="181" filterUnits="userSpaceOnUse"><feOffset dy="3" input="SourceAlpha"/><feGaussianBlur stdDeviation="3" result="g"/><feFlood flood-opacity="0.161"/><feComposite operator="in" in2="g"/><feComposite in="SourceGraphic"/></filter><clipPath id="h"><rect class="b" width="36.463" height="20.11"/></clipPath></defs><g transform="translate(-64 -215)"><g class="c"><g class="d" transform="translate(391.474 798.679) rotate(-53)"><g class="e" transform="translate(0 -730.085)"><path class="f" d="M311.435-457.579c-.862.04-14.77.681-18.028.972-3.885.352-13.42-4.924-13.811-5.142-1.668-.931-6.3-3.7-6.5-3.815l-1.763-1.053,1.967-.448c.132-.03,13.253-3.02,16.269-3.77.732-.181,1.686-.345,2.7-.518,1.586-.271,5.8-.992,6.009-1.8a.369.369,0,0,0-.044-.118c-.578-1.118-2.221-1.353-3.5-1.353a17.044,17.044,0,0,0-3.863.525l-13.406,3.33a26.181,26.181,0,0,1-6.293.651c-1.9,0-3.706-.126-5.16-.227a23.2,23.2,0,0,0-2.92-.108,6.216,6.216,0,0,1-.686.036,17.576,17.576,0,0,1-2.678-.3,61.334,61.334,0,0,0-6.847-.742c-1.159-.063-2.723-.093-4.924-.093-1.87,0-3.964.021-6.181.044-2.43.025-4.944.05-7.406.05-5.346,0-9.011-.127-11.533-.4-6.365-.688-19.235-2.435-26.926-3.479l-3.846-.52c-6.307-.849-20.453-4.966-22.933-6.675-2.238-1.543-21.816-11.044-22.014-11.141l-3.1-1.5,3.391-.045c.179,0,17.986-.25,23.025-1.5a57.625,57.625,0,0,1,14.191-1.44c1.09,0,2.238.015,3.511.045,4.649.111,9.7,1.7,15.023,4.714a33.3,33.3,0,0,1,3,2,19.651,19.651,0,0,0,4.541,2.714,4.736,4.736,0,0,0,1.558.312c.483,0,.663-.126.688-.169s.051-.323-.208-.9c-1.125-2.491-4.741-3.965-6.479-4.674-1.262-.514-2.525-1.013-3.787-1.511-2.772-1.094-5.637-2.226-8.426-3.508l-2.933-1.348,3.176-.2a23.7,23.7,0,0,0,5.234-1.042,17.251,17.251,0,0,1,4.847-.889,10.357,10.357,0,0,1,1.126.062,18.792,18.792,0,0,1,11.611,5.988c1.864,2,3.819,3.051,4.787,3.051.341,0,.343-.079.347-.29.023-1.118-3.462-5.319-6.7-8.57l-2.1-2.106,2.771.723c.107.028,10.741,2.809,15.248,4.38a17.275,17.275,0,0,0,5.739.856,69.357,69.357,0,0,0,11.283-1.343,224.921,224.921,0,0,0,23.341-6.065c.275-.1.591-.214.928-.331.814-.283,3.289-1.143,3.389-1.736,0-.025-.052-.218-.419-.538a1.825,1.825,0,0,0-1.163-.242c-3.5,0-11.247,3.215-14.162,4.425-.94.39-1.245.516-1.4.555-1.818.452-11.128,2.7-15.883,2.7a9.7,9.7,0,0,1-1.4-.088c-4.063-.606-16.089-3.361-16.6-3.478l-2.486-.57L225-506.21c5.052-2.079,18.506-7.7,20.063-8.736a15.24,15.24,0,0,1,2.2-1.122c1.41-.626,2.868-1.274,2.789-2.142-.015-.168-.464-.434-1.6-.434a25.055,25.055,0,0,0-8.111,1.972c-3.135,1.248-9.01,3.318-14.193,5.145-2.656.936-5.165,1.82-6.766,2.406a131.459,131.459,0,0,1-12.665,3.691c-2.38.592-9.938,1.161-10.258,1.185l-2.12.158,1.572-1.564a77.667,77.667,0,0,0,5.946-6.526,10.186,10.186,0,0,0,1.763-3.231,2.61,2.61,0,0,0-.685.092c-2.491.619-7.266,4.676-9.832,6.855-.419.356-.791.672-1.1.929-2.37,1.97-9.43,5.144-9.729,5.278l-.157.05c-.161.029-16.185,2.976-25.447,2.976-.744,0-1.437-.019-2.059-.056-9.625-.581-34.122-5.316-44.214-15.6-9.865-10.052-29.774-22.955-39.145-27.422C62.057-546.689,28.34-559,28-559.125l-2.1-.765,25.122-9.228.265.132c1.581.789,6.069,2.876,7.837,3.068,1.3.145,3.205-1.871,4.215-3.109l-4.128-3.545.877-.615c.186-.13,4.65-3.195,12.583-3.195,9.062,0,18.673,3.9,28.565,11.6,16.791,13.071,23.651,14.747,27.752,14.747a24.264,24.264,0,0,0,2.5-.159,21.307,21.307,0,0,1,2.154-.143c.323,0,.625.014.926.042.541.051,1.071.076,1.574.076,2.993,0,4.374-.86,4.572-1.437.138-.4-.31-.909-.59-1.177-.908-.869-3.039-.988-5.207-.988-.463,0-.938.006-1.416.01-.494.005-.993.011-1.492.011a16.712,16.712,0,0,1-6.435-.906c-4.5-1.96-16.857-8.958-18.526-10.109-1.758-1.213-8.593-7.627-8.883-7.9L95.1-575.6l3.806,1.512c.15.059,15.108,5.989,20.7,7.25,1.685.381,3.326.9,5.062,1.459a50.325,50.325,0,0,0,16.24,2.942c.309,0,.619.006.925.006a81.686,81.686,0,0,0,22.923-3.245c4.514-1.372,5.861-2.136,6.23-2.521a2.129,2.129,0,0,0-.294-.178,2.075,2.075,0,0,0-.866-.115,56.187,56.187,0,0,0-9.055,1.623c-5.654,1.264-12.105,2.709-16.8,2.573-8.827-.249-28.413-7.94-29.243-8.268l-1.379-.544,1.219-.89c.118-.086,11.864-8.656,16.907-12.579,1.694-1.318,3.427-2.45,4.821-3.36a24.1,24.1,0,0,0,3.122-2.242l-.058-.021a1.577,1.577,0,0,0-.532-.081c-2.3,0-6.581,3.331-8.638,4.932-.337.262-.635.494-.882.681a69.881,69.881,0,0,1-17.05,8.353,21.888,21.888,0,0,1-6.626.89,52.011,52.011,0,0,1-12.68-1.824c-1.223-.028-14.923-.345-17.249-.283-2.386.068-12.306,1.725-12.406,1.742l-3.417.573,2.9-2.052c.159-.112,15.881-11.242,18.782-15.606,4.954-7.453,5.6-9.806,5.266-10.469-.092-.183-.183-.218-.319-.218-.823,0-2.6,1.415-4.725,4.575-2.566,3.824-5.912,6.756-12.579,12.6q-1.3,1.136-2.769,2.429C58.273-578.773,51.012-574.022,43.589-571c-6.82,2.774-23.3,6.359-24,6.51l-.118.025-.119-.016c-.772-.108-19-2.664-26.184-5.2a39.685,39.685,0,0,0-11.873-2.17c-3.607,0-4.363.924-4.509,1.207-.179.348-.079.869.3,1.547a10.1,10.1,0,0,0,8.416,5.2l.169.015c.409.088,41.013,8.815,49.314,11.042,8.837,2.37,26.8,12.271,35.787,18.888,9.73,7.166,22.4,25.879,24.015,31.334,1.449,4.887.11,15.386-.775,22.334-.153,1.2-.292,2.292-.4,3.214-.61,5.284-3.551,23.115-5.181,25.947a68.723,68.723,0,0,1-4.843,5.79c-3.127,3.573-7.409,8.465-10.629,12.653-5.308,6.9-4.767,8.085-4.742,8.132a1.328,1.328,0,0,0,.768.259c1.925,0,4.437-4.387,5.569-7.152l.051-.127,11.97-13.793.167,1.745c.034.353,3.395,35.416,4.124,38.932.29,1.4.465,5.655.686,11.048.274,6.684.785,19.126,1.733,20.35a.214.214,0,0,0,.037.025c.571-.162,1.7-2.938,2.353-5.8l-5.832-54.187,1.914,4.334c2.9,6.568,8.545,19.28,9.155,20.384a36.424,36.424,0,0,1,1.525,5.163c.637,2.428,1.681,6.411,2.488,8.568-.54-5.9-4.573-24.179-7.86-30.113-4.068-7.342-6.548-12.159-6.3-18.4.234-5.961,5.943-27.838,6.33-29.313L99.975-492.5l.977,2.929c.078.235,7.843,23.468,10.151,27.633,2.188,3.95,13.454,26.517,14.556,31.828.808,3.895,3.335,11.876,5.779,19.594.759,2.4,1.512,4.776,2.211,7.022,2.867,9.212,6.123,14.426,7.406,14.72.116-2.028-3.446-11.8-7.127-20.483l-.038-.091-3.1-17.771,25.647,28.61.054.183c1.028,3.531,3.191,8.5,4.779,8.5a1.023,1.023,0,0,0,.712-.382c.034-.035.136-.141.146-.493.11-4.214-11.361-18.436-15.79-23.56l-14.585-17.591L118.148-460l27.738,21.061c3.673,2.941,7.95,5.96,9.758,6.71-2.383-3.178-16.781-15.087-30.1-25.443l-.081-.073c-.467-.485-11.454-11.92-13.178-15.361-.219-.438-.545-1.062-.949-1.836-2.681-5.141-8.961-17.18-10.748-25.8l-.5-2.408,1.7,1.618c1.552,1.474,4.524,3.81,5.893,3.81.288,0,.38-.081.45-.394.288-1.286-3.519-4.026-6.3-6.027-3.256-2.344-6.623-4.767-7.863-7.167-2.428-4.7-7.382-12.058-7.431-12.132l-2.8-4.158,3.83,3.021c.266.209,26.657,20.986,36.779,25.368,6.7,2.9,20.071,9.061,30.818,14.011,6.047,2.786,11.269,5.19,14.535,6.665a71.034,71.034,0,0,0,9.356,3.269c5.7,1.69,10.632,3.149,13.894,7.5,2.055,2.742,7.236,6.278,15.4,10.507,3.847,1.992,7.61,3.751,10.1,4.915,1.028.48,1.868.873,2.452,1.159,3.093,1.513,5.267,6.546,7.784,12.373,1.35,3.125,2.746,6.357,4.408,9.356,3.7,6.674,8.526,10.229,10.591,10.229.444,0,.516-.173.542-.238.319-.781-2.409-4.2-4.039-6.245-2.379-2.983-4.84-6.068-5.626-8.636-1.52-4.969-2.952-9.493-2.967-9.538l-.565-1.782,1.569.78c.568.282,13.945,6.961,17.774,10.941,3.225,3.352,9.268,8.026,11.783,8.026.574,0,.708-.232.765-.69.308-2.469-10.1-11.029-20.345-17.878l-2.5-1.674,2.929.176s.491.029,1.231.029a21.483,21.483,0,0,0,4.893-.5c.257-.064.527-.2.511-.357-.066-.648-2.509-3.268-12.552-3.268-.552,0-1.122.008-1.715.025-.316.009-.631.013-.942.013a33.328,33.328,0,0,1-23.253-9.486l-12.1-10.427,2.4.189c.2.015,19.841,1.543,33.236,1.543,2.793,0,5.151-.066,7.008-.2,3-.212,5.64-.315,8.074-.315,10.183,0,17.78,1.825,24.632,5.919,1.487.889,2.869,1.737,4.2,2.558,6.341,3.895,10.923,6.709,15.379,6.709a10.45,10.45,0,0,0,1.653-.132,108.021,108.021,0,0,1,14.7-.839c6.09,0,10.944.365,13.316,1a4.906,4.906,0,0,0,1.218.19,1.686,1.686,0,0,0,.356-.032c-.581-.945-4.423-3.518-13.816-4.227" transform="translate(14.688 655.915)"/><path class="g" d="M710.268-425.73c0,5.806-4.722,9.355-4.722,9.355s-4.723-3.549-4.723-9.355,4.723-11.672,4.723-11.672,4.722,5.866,4.722,11.672" transform="translate(-441.839 555.755)"/><path class="g" d="M467.022-381.427c0,5.806-4.722,9.355-4.722,9.355s-4.723-3.549-4.723-9.355S462.3-393.1,462.3-393.1s4.722,5.866,4.722,11.672" transform="translate(-288.483 529.367)"/><path class="h" d="M725.65-402.143c-4.549,2.991-9.761.387-9.761.387s.348-6.257,4.9-9.247,11.575-1.58,11.575-1.58-2.163,7.45-6.711,10.44" transform="translate(-451.338 541.17)"/><path class="g" d="M655.193-401c-1.7,5.5-7.209,7.211-7.209,7.211s-3.437-5.014-1.741-10.516,7.886-9.407,7.886-9.407,2.76,7.211,1.064,12.712" transform="translate(-407.133 541.647)"/><path class="g" d="M696.693-305c-1.7,5.5-7.209,7.211-7.209,7.211s-3.437-5.014-1.74-10.516,7.886-9.406,7.886-9.406,2.76,7.211,1.064,12.711" transform="translate(-433.297 484.466)"/><path class="g" d="M852.178-221.408c-2.384-5.187.378-10.68.378-10.68s5.676.848,8.06,6.036.573,12.749.573,12.749-6.627-2.919-9.011-8.106" transform="translate(-536.651 433.464)"/><path class="g" d="M318.811-400.281c-5.3.332-8.805-4.625-8.805-4.625s2.968-5.362,8.266-5.694,10.919,4.493,10.919,4.493-5.082,5.494-10.379,5.825" transform="translate(-195.446 539.801)"/><path class="g" d="M291.452-509.564c-2.384-5.187.378-10.679.378-10.679s5.676.848,8.06,6.036.573,12.749.573,12.749-6.627-2.919-9.011-8.106" transform="translate(-183.137 605.098)"/><path class="g" d="M469.511-75.408c-2.384-5.187.378-10.679.378-10.679s5.676.848,8.06,6.036.573,12.749.573,12.749-6.627-2.919-9.011-8.106" transform="translate(-295.396 346.503)"/><path class="g" d="M573.969-246.594c-1.5-5.57,2.116-10.434,2.116-10.434s5.445,1.945,6.945,7.514-1.517,12.656-1.517,12.656-6.044-4.167-7.543-9.737" transform="translate(-361.633 448.32)"/><path class="g" d="M322.928-249.437c2.045-5.358,7.652-6.641,7.652-6.641s3.108,5.266,1.063,10.624-8.468,8.779-8.468,8.779-2.292-7.4-.248-12.762" transform="translate(-203.058 447.754)"/><path class="g" d="M923.789-240.526c-5.078,1.685-9.552-2.231-9.552-2.231s1.733-5.975,6.811-7.659,11.578,1.558,11.578,1.558-3.76,6.647-8.837,8.332" transform="translate(-576.388 444.671)"/><path class="g" d="M315.563-138.008c-5.3-.245-8.343-5.558-8.343-5.558s3.439-5.014,8.741-4.769,10.458,5.655,10.458,5.655-5.555,4.916-10.856,4.672" transform="translate(-193.689 383.584)"/><path class="g" d="M844.693-317.481c-1.7,5.5-7.209,7.211-7.209,7.211s-3.437-5.014-1.74-10.516,7.886-9.406,7.886-9.406,2.76,7.211,1.063,12.712" transform="translate(-526.604 491.899)"/><path class="g" d="M707.77-202.3c-3.683-4.18-2.535-10.321-2.535-10.321s5.65-1.033,9.334,3.147,4,11.989,4,11.989-7.12-.635-10.8-4.814" transform="translate(-444.514 421.934)"/><path class="g" d="M753.912-158.983c-4.7-2.7-5.379-8.921-5.379-8.921s5.065-2.928,9.764-.233,7.254,10,7.254,10-6.94,1.853-11.639-.843" transform="translate(-471.918 396.053)"/><path class="g" d="M682.737-139.369c.618-5.767,5.687-8.689,5.687-8.689s4.313,4.127,3.694,9.894-5.933,10.99-5.933,10.99-4.066-6.428-3.448-12.194" transform="translate(-430.396 383.414)"/><path class="g" d="M844.252-273.434c-4.977-2.015-6.379-8.093-6.379-8.093s4.68-3.615,9.657-1.6,8.365,8.9,8.365,8.9-6.666,2.81-11.643.8" transform="translate(-528.243 464.229)"/><path class="h" d="M850.928-291.635c-4.967,2.042-9.663-1.549-9.663-1.549s1.375-6.085,6.343-8.126,11.646.735,11.646.735-3.358,6.9-8.326,8.94" transform="translate(-530.382 475.142)"/><path class="g" d="M417.493-73.8c-3.41-4.449-1.875-10.489-1.875-10.489s5.7-.6,9.112,3.847,3.235,12.264,3.235,12.264S420.9-69.35,417.493-73.8" transform="translate(-261.812 345.447)"/><path class="g" d="M380.347-87.474c4.162-3.6,9.635-1.747,9.635-1.747s.385,6.254-3.778,9.855-11.3,3.184-11.3,3.184,1.277-7.692,5.44-11.292" transform="translate(-236.363 348.653)"/><path class="h" d="M398.33-76.443c.993-5.7,6.239-8.223,6.239-8.223s4.032,4.453,3.039,10.157-6.635,10.5-6.635,10.5-3.636-6.729-2.643-12.432" transform="translate(-251.022 345.656)"/><path class="g" d="M415.693-511.982c-1.7,5.5-7.209,7.211-7.209,7.211s-3.437-5.014-1.741-10.516,7.886-9.406,7.886-9.406,2.76,7.21,1.064,12.711" transform="translate(-256.138 607.748)"/><path class="g" d="M415.252-467.934c-4.977-2.015-6.379-8.093-6.379-8.093s4.68-3.615,9.657-1.6,8.365,8.9,8.365,8.9-6.667,2.81-11.642.8" transform="translate(-257.777 580.078)"/><path class="h" d="M421.928-486.134c-4.967,2.042-9.663-1.549-9.663-1.549s1.376-6.085,6.343-8.126,11.646.735,11.646.735-3.358,6.9-8.326,8.94" transform="translate(-259.916 590.991)"/><path class="h" d="M774.247-245.889c-1.848-5.443,1.448-10.569,1.448-10.569s5.556,1.526,7.405,6.969-.711,12.741-.711,12.741-6.294-3.7-8.142-9.14" transform="translate(-487.775 447.98)"/><path class="i" d="M648-254.592c-2.952,4.824-8.681,4.9-8.681,4.9s-2.119-5.824.833-10.648,9.86-6.822,9.86-6.822.941,7.749-2.013,12.574" transform="translate(-402.599 454.358)"/><path class="i" d="M594-408.592c-2.952,4.824-8.681,4.9-8.681,4.9s-2.119-5.824.833-10.648,9.86-6.822,9.86-6.822.941,7.749-2.012,12.573" transform="translate(-368.554 546.085)"/><path class="i" d="M477.983-371.168c-2.952,4.824-8.681,4.9-8.681,4.9s-2.119-5.824.833-10.648,9.86-6.822,9.86-6.822.941,7.749-2.013,12.574" transform="translate(-295.411 523.794)"/><path class="i" d="M289-569.776c-2.952,4.824-8.681,4.9-8.681,4.9s-2.119-5.823.833-10.648,9.86-6.822,9.86-6.822.941,7.749-2.013,12.574" transform="translate(-176.265 642.09)"/><path class="i" d="M419-600.592c-2.952,4.824-8.681,4.9-8.681,4.9s-2.119-5.824.833-10.648,9.86-6.822,9.86-6.822.941,7.749-2.012,12.574" transform="translate(-258.224 660.445)"/><path class="i" d="M425.076-310.884c-1.526-5.561,2.066-10.445,2.066-10.445s5.455,1.913,6.98,7.474-1.457,12.665-1.457,12.665-6.064-4.132-7.589-9.694" transform="translate(-267.755 486.619)"/><path class="i" d="M128.576-467.236c-1.525-5.561,2.066-10.445,2.066-10.445s5.455,1.913,6.98,7.474-1.457,12.665-1.457,12.665-6.064-4.132-7.589-9.694" transform="translate(-80.824 579.747)"/><path class="i" d="M209.292-514.673c-5.233-.956-7.654-6.638-7.654-6.638s3.977-4.512,9.21-3.556,9.743,7.02,9.743,7.02-6.065,4.131-11.3,3.174" transform="translate(-127.124 607.931)"/><path class="i" d="M521.753-276.477c-3.543-4.322-2.192-10.415-2.192-10.415s5.68-.808,9.223,3.514,3.606,12.14,3.606,12.14-7.094-.917-10.638-5.239" transform="translate(-327.402 466.143)"/><path class="i" d="M703.172-143.216c-4.894-2.242-6.062-8.38-6.062-8.38s4.816-3.4,9.71-1.154,8.015,9.275,8.015,9.275-6.769,2.5-11.663.258" transform="translate(-439.498 386.665)"/><path class="g" d="M436.071-177.32c.618-5.767,5.686-8.689,5.686-8.689s4.313,4.127,3.694,9.894-5.933,10.99-5.933,10.99-4.066-6.428-3.447-12.194" transform="translate(-274.884 406.019)"/><path class="i" d="M456.5-181.167c-4.894-2.242-6.062-8.38-6.062-8.38s4.815-3.4,9.71-1.154,8.015,9.275,8.015,9.275-6.769,2.5-11.663.258" transform="translate(-283.985 409.27)"/><path class="i" d="M287.8-207.285c-4.21-3.533-3.909-9.794-3.909-9.794s5.447-1.941,9.658,1.593,5.589,11.2,5.589,11.2-7.128.531-11.338-3" transform="translate(-178.978 424.842)"/><path class="h" d="M711.882-284.244c-4.936,2.131-9.686-1.375-9.686-1.375s1.285-6.109,6.22-8.239,11.655.525,11.655.525-3.255,6.959-8.19,9.089" transform="translate(-442.705 470.75)"/><path class="g" d="M340.74-287.96c-5.217-1.06-7.544-6.789-7.544-6.789s4.05-4.433,9.268-3.373,9.625,7.211,9.625,7.211-6.133,4.011-11.349,2.951" transform="translate(-210.066 472.894)"/><path class="h" d="M316.1-96.143c-2.626-5.046-.126-10.687-.126-10.687s5.708.527,8.334,5.573,1.174,12.7,1.174,12.7-6.756-2.541-9.381-7.586" transform="translate(-198.528 358.858)"/><path class="h" d="M720.512-239.324c-3.561,4.3-9.238,3.468-9.238,3.468s-1.326-6.1,2.235-10.4,10.659-5.186,10.659-5.186-.1,7.817-3.657,12.121" transform="translate(-448.276 444.994)"/><path class="h" d="M249.3-104.283c4.589-2.914,9.764-.224,9.764-.224s-.435,6.251-5.025,9.164-11.6,1.388-11.6,1.388,2.267-7.414,6.857-10.327" transform="translate(-152.853 358.148)"/><path class="h" d="M756.1-173.4c-5.1,1.611-9.523-2.37-9.523-2.37s1.805-5.949,6.9-7.56,11.557,1.728,11.557,1.728-3.84,6.592-8.938,8.2" transform="translate(-470.687 404.686)"/><path class="g" d="M147.806-555.282c-.137,5.8-4.943,9.218-4.943,9.218s-4.637-3.681-4.5-9.486,5-11.534,5-11.534,4.582,6,4.445,11.8" transform="translate(-87.231 632.997)"/><path class="h" d="M128.787-547.5c3.571,4.295,2.259,10.4,2.259,10.4s-5.676.852-9.246-3.444-3.683-12.112-3.683-12.112,7.1.863,10.67,5.159" transform="translate(-74.468 624.403)"/><path class="h" d="M350.529-204.4c1.665-5.513,7.167-7.26,7.167-7.26s3.466,4.991,1.8,10.5-7.832,9.46-7.832,9.46-2.8-7.192-1.135-12.7" transform="translate(-220.66 421.298)"/><path class="g" d="M260.512-332.117c4.892-2.25,9.711,1.14,9.711,1.14s-1.16,6.138-6.051,8.388-11.664-.242-11.664-.242,3.112-7.037,8-9.286" transform="translate(-159.196 493.504)"/><path class="h" d="M277.747-324.343c2.109-5.328,7.732-6.529,7.732-6.529s3.044,5.311.934,10.638-8.575,8.654-8.575,8.654-2.2-7.437-.091-12.764" transform="translate(-174.531 492.303)"/><path class="g" d="M260.325-50.183c4.246-3.482,9.674-1.474,9.674-1.474s.237,6.263-4.009,9.745-11.368,2.863-11.368,2.863,1.457-7.653,5.7-11.134" transform="translate(-160.528 326.339)"/><path class="h" d="M278.77-45c.864-5.729,6.052-8.387,6.052-8.387s4.131,4.343,3.266,10.072-6.4,10.674-6.4,10.674S277.9-39.271,278.77-45" transform="translate(-175.671 327.025)"/><path class="g" d="M402.814-233.512c-5.3.128-8.651-4.961-8.651-4.961s3.138-5.244,8.443-5.372,10.768,4.91,10.768,4.91-5.256,5.3-10.56,5.423" transform="translate(-248.503 440.469)"/><path class="h" d="M402.519-252.837c-3.749,4.108-9.383,2.967-9.383,2.967s-1.049-6.162,2.7-10.271,10.879-4.606,10.879-4.606-.447,7.8-4.2,11.91" transform="translate(-247.771 452.917)"/><path class="h" d="M916.139-217.873c-3.2-4.63-1.392-10.578-1.392-10.578s5.723-.287,8.924,4.343,2.668,12.426,2.668,12.426-7-1.561-10.2-6.191" transform="translate(-576.388 431.301)"/><path class="g" d="M752.612-347.153c-3.818-4.033-2.872-10.215-2.872-10.215s5.613-1.254,9.431,2.778,4.395,11.824,4.395,11.824-7.137-.355-10.954-4.387" transform="translate(-472.614 508.195)"/><path class="g" d="M204.612-501.653c-3.818-4.033-2.872-10.215-2.872-10.215s5.613-1.254,9.431,2.778,4.395,11.824,4.395,11.824-7.137-.355-10.954-4.388" transform="translate(-127.123 600.219)"/><path class="g" d="M399.148-556.091c-5.239-.922-7.691-6.588-7.691-6.588s3.951-4.539,9.19-3.617,9.781,6.956,9.781,6.956-6.042,4.171-11.28,3.249" transform="translate(-246.797 632.602)"/><path class="g" d="M607.341-308.751c-2.47-5.139.2-10.686.2-10.686s5.689.735,8.16,5.873.787,12.736.787,12.736-6.675-2.785-9.146-7.923" transform="translate(-382.242 485.492)"/><path class="g" d="M204.367-584.378c.092,5.805-4.573,9.444-4.573,9.444s-4.778-3.458-4.871-9.264,4.537-11.76,4.537-11.76,4.815,5.775,4.908,11.58" transform="translate(-122.89 650.196)"/><path class="g" d="M588.382-374.648c-5.263-.743-7.875-6.323-7.875-6.323s3.82-4.671,9.083-3.928,9.974,6.62,9.974,6.62-5.921,4.374-11.183,3.631" transform="translate(-365.985 524.531)"/><path class="g" d="M481.917-319.819c-5.086,1.657-9.542-2.283-9.542-2.283s1.759-5.965,6.845-7.623,11.571,1.622,11.571,1.622-3.789,6.627-8.874,8.284" transform="translate(-297.812 491.899)"/><path class="g" d="M639.612-321.82c-3.818-4.033-2.872-10.215-2.872-10.215s5.613-1.254,9.431,2.779,4.395,11.824,4.395,11.824-7.137-.355-10.954-4.387" transform="translate(-401.372 493.106)"/><path class="g" d="M468.612-493.6c-3.818-4.033-2.872-10.215-2.872-10.215s5.613-1.254,9.431,2.778,4.395,11.824,4.395,11.824-7.137-.355-10.954-4.387" transform="translate(-293.564 595.423)"/><path class="g" d="M790.626-385.881c-3.727,4.132-9.366,3.028-9.366,3.028s-1.084-6.155,2.644-10.289,10.855-4.677,10.855-4.677-.4,7.8-4.132,11.937" transform="translate(-492.458 532.178)"/><path class="g" d="M410.626-373.79c-3.727,4.132-9.366,3.028-9.366,3.028s-1.084-6.155,2.644-10.289,10.855-4.677,10.855-4.677-.4,7.8-4.132,11.937" transform="translate(-252.885 524.976)"/><path class="h" d="M785.051-357.777c-5-1.948-6.469-8.007-6.469-8.007s4.64-3.677,9.638-1.729,8.463,8.785,8.463,8.785-6.634,2.9-11.633.951" transform="translate(-490.863 514.467)"/><path class="g" d="M501.126-533.381c-3.728,4.132-9.366,3.028-9.366,3.028s-1.084-6.155,2.644-10.288,10.855-4.677,10.855-4.677-.4,7.8-4.132,11.937" transform="translate(-309.941 620.033)"/><path class="h" d="M495.551-505.277c-5-1.948-6.469-8.007-6.469-8.007s4.64-3.677,9.639-1.729,8.463,8.785,8.463,8.785-6.634,2.9-11.633.952" transform="translate(-308.345 602.322)"/><path class="h" d="M645.307-334.669c-5.3.151-8.669-4.923-8.669-4.923s3.119-5.258,8.424-5.41,10.785,4.863,10.785,4.863-5.236,5.318-10.54,5.469" transform="translate(-401.373 500.721)"/><path class="g" d="M456.709-109.667c-5.158-1.361-7.2-7.217-7.2-7.217s4.259-4.192,9.418-2.831,9.262,7.76,9.262,7.76-6.318,3.649-11.476,2.288" transform="translate(-283.394 366.694)"/><path class="h" d="M459.09-129.374c-4.5,3.07-9.753.56-9.753.56s.255-6.263,4.76-9.333,11.551-1.785,11.551-1.785-2.053,7.488-6.557,10.558" transform="translate(-283.288 378.733)"/><path class="g" d="M328.742-334.192c-3.818-4.033-2.872-10.215-2.872-10.215s5.613-1.254,9.431,2.778,4.4,11.824,4.4,11.824-7.137-.355-10.954-4.387" transform="translate(-205.382 500.475)"/><path class="h" d="M334.437-347.041c-5.3.151-8.669-4.923-8.669-4.923s3.119-5.258,8.424-5.41,10.785,4.863,10.785,4.863-5.236,5.318-10.54,5.469" transform="translate(-205.383 508.09)"/><path class="g" d="M339.65-472.984c2.767-4.955,8.487-5.289,8.487-5.289s2.34,5.722-.427,10.677-9.591,7.266-9.591,7.266-1.235-7.7,1.531-12.654" transform="translate(-212.997 580.099)"/><path class="h" d="M358.26-468.185c-1.288-5.632,2.505-10.33,2.505-10.33s5.369,2.188,6.658,7.821-1.991,12.577-1.991,12.577-5.883-4.436-7.171-10.068" transform="translate(-225.699 580.243)"/><path class="h" d="M497.892-282.2c2.3-5.233,7.957-6.2,7.957-6.2s2.854,5.436.557,10.671-8.875,8.285-8.875,8.285-1.937-7.525.36-12.759" transform="translate(-313.192 467.001)"/><path class="i" d="M216.885-156.757c-.123-5.8,4.525-9.471,4.525-9.471s4.8,3.428,4.918,9.232-4.476,11.789-4.476,11.789-4.844-5.745-4.967-11.55" transform="translate(-136.735 394.237)"/><path class="h" d="M191.464-170.158c4.855-2.342,9.728.955,9.728.955s-1.063,6.161-5.919,8.5-11.665-.021-11.665-.021,3-7.095,7.856-9.436" transform="translate(-115.757 397.078)"/><path class="i" d="M249.787-468.278c-3.5,4.36-9.192,3.612-9.192,3.612s-1.4-6.077,2.1-10.437,10.59-5.353,10.59-5.353.006,7.816-3.5,12.178" transform="translate(-151.51 581.399)"/><path class="h" d="M245.9-438.171c-5.021-1.877-6.564-7.914-6.564-7.914s4.6-3.744,9.618-1.867,8.567,8.664,8.567,8.664-6.6,2.994-11.621,1.116" transform="translate(-150.889 562.353)"/><path class="h" d="M204.392-431.2c2.3-5.233,7.957-6.2,7.957-6.2s2.854,5.436.557,10.671-8.875,8.285-8.875,8.285-1.937-7.525.36-12.759" transform="translate(-128.153 555.75)"/><path class="i" d="M263.412-630.175c-.337,5.794-5.257,9.007-5.257,9.007s-4.506-3.87-4.17-9.663,5.391-11.321,5.391-11.321,4.372,6.182,4.036,11.977" transform="translate(-160.116 677.71)"/><path class="h" d="M272.837-600.793c-5.022,1.873-9.616-1.873-9.616-1.873s1.546-6.037,6.569-7.911,11.62,1.126,11.62,1.126-3.55,6.784-8.573,8.658" transform="translate(-165.95 659.269)"/></g></g><g class="d" transform="matrix(0.602, 0.799, -0.799, 0.602, 315.603, 102.121)"><g class="j" transform="translate(0 0)"><path class="f" d="M223.34,56.26c-.575-.026-9.855-.455-12.029-.649-2.592-.235-8.954,3.285-9.215,3.431-1.113.621-4.2,2.467-4.334,2.546l-1.177.7,1.312.3c.088.02,8.843,2.015,10.855,2.515.488.121,1.125.23,1.8.345,1.058.181,3.87.662,4.009,1.2a.246.246,0,0,1-.03.078c-.386.746-1.482.9-2.334.9a11.372,11.372,0,0,1-2.577-.35l-8.945-2.222a17.469,17.469,0,0,0-4.2-.434c-1.265,0-2.473.084-3.443.152a15.481,15.481,0,0,1-1.948.072,4.147,4.147,0,0,0-.458-.024,11.727,11.727,0,0,0-1.787.2,40.923,40.923,0,0,1-4.569.5c-.773.042-1.817.062-3.285.062-1.248,0-2.645-.014-4.124-.029-1.622-.016-3.3-.034-4.941-.034-3.567,0-6.012.085-7.7.267-4.247.459-12.834,1.625-17.965,2.321l-2.566.347c-4.208.567-13.646,3.313-15.3,4.454-1.493,1.03-14.556,7.369-14.688,7.433l-2.068,1,2.262.03c.12,0,12,.166,15.363,1a38.449,38.449,0,0,0,9.468.961c.727,0,1.493-.01,2.342-.03A21.646,21.646,0,0,0,151.1,80.164a22.219,22.219,0,0,0,2-1.337,13.111,13.111,0,0,1,3.03-1.811,3.16,3.16,0,0,1,1.04-.208c.322,0,.443.084.459.113s.034.216-.139.6c-.751,1.662-3.163,2.646-4.323,3.118-.842.343-1.685.676-2.527,1.008-1.849.73-3.761,1.485-5.622,2.34l-1.957.9,2.119.136a15.814,15.814,0,0,1,3.492.7,11.511,11.511,0,0,0,3.234.593,6.909,6.909,0,0,0,.751-.041,12.538,12.538,0,0,0,7.747-4,5.757,5.757,0,0,1,3.194-2.036c.228,0,.229.053.232.194.015.746-2.31,3.549-4.473,5.718l-1.4,1.405,1.849-.483c.071-.019,7.167-1.874,10.174-2.922a11.526,11.526,0,0,1,3.829-.571,46.276,46.276,0,0,1,7.528.9,150.076,150.076,0,0,1,15.574,4.047c.183.07.394.142.619.221.543.189,2.195.762,2.262,1.158,0,.016-.035.145-.279.359a1.218,1.218,0,0,1-.776.161c-2.338,0-7.5-2.145-9.449-2.953-.628-.26-.831-.344-.935-.37-1.213-.3-7.425-1.8-10.6-1.8a6.475,6.475,0,0,0-.935.059c-2.711.4-10.735,2.242-11.076,2.321l-1.658.38,1.586.653c3.371,1.387,12.348,5.139,13.386,5.829a10.168,10.168,0,0,0,1.471.749c.941.418,1.913.85,1.861,1.429-.01.112-.31.29-1.07.29a16.718,16.718,0,0,1-5.412-1.316c-2.092-.833-6.012-2.214-9.47-3.433-1.772-.624-3.446-1.214-4.515-1.605a87.712,87.712,0,0,0-8.45-2.463c-1.588-.395-6.631-.775-6.844-.79l-1.414-.106,1.049,1.043a51.823,51.823,0,0,1,3.967,4.354,6.8,6.8,0,0,1,1.176,2.156,1.741,1.741,0,0,1-.457-.061c-1.662-.413-4.848-3.12-6.56-4.574-.28-.237-.528-.448-.734-.62a42.143,42.143,0,0,0-6.491-3.522l-.1-.033c-.107-.02-10.8-1.985-16.979-1.985-.5,0-.959.013-1.374.038-6.422.388-22.767,3.547-29.5,10.408-6.582,6.707-19.866,15.316-26.119,18.3-6.136,2.924-28.632,11.14-28.858,11.223l-1.4.51,16.762,6.157.177-.088A25.311,25.311,0,0,1,55,128.546c.868-.1,2.139,1.248,2.812,2.075l-2.754,2.365.585.41a15.369,15.369,0,0,0,8.4,2.132c6.046,0,12.459-2.605,19.059-7.743,11.2-8.721,15.781-9.839,18.517-9.839a16.189,16.189,0,0,1,1.671.106,14.215,14.215,0,0,0,1.437.1c.215,0,.417-.009.618-.028.361-.034.714-.051,1.05-.051,2,0,2.919.574,3.051.959.092.267-.207.606-.394.785-.606.58-2.028.659-3.474.659-.309,0-.626,0-.945-.007s-.663-.007-1-.007a11.15,11.15,0,0,0-4.294.6c-3,1.308-11.247,5.977-12.361,6.745-1.173.809-5.734,5.089-5.927,5.271L79,135,81.537,134c.1-.04,10.081-4,13.81-4.838,1.124-.254,2.219-.6,3.377-.973a33.577,33.577,0,0,1,10.835-1.963c.206,0,.413,0,.617,0a54.5,54.5,0,0,1,15.295,2.165c3.012.915,3.911,1.425,4.157,1.682a1.42,1.42,0,0,1-.2.119,1.385,1.385,0,0,1-.578.077,37.488,37.488,0,0,1-6.042-1.083c-3.772-.843-8.077-1.808-11.209-1.717-5.889.166-18.958,5.3-19.511,5.516l-.92.363.814.594c.079.058,7.916,5.776,11.281,8.393,1.13.879,2.287,1.635,3.217,2.242a16.079,16.079,0,0,1,2.083,1.5l-.038.014a1.053,1.053,0,0,1-.355.054c-1.536,0-4.391-2.223-5.763-3.291-.225-.175-.424-.329-.589-.454a46.627,46.627,0,0,0-11.376-5.573,14.6,14.6,0,0,0-4.421-.594,34.7,34.7,0,0,0-8.461,1.217c-.816.019-9.957.23-11.509.189-1.592-.045-8.211-1.151-8.277-1.162l-2.28-.382,1.938,1.369c.106.074,10.6,7.5,12.532,10.412,3.305,4.973,3.735,6.543,3.513,6.985-.061.122-.122.146-.213.146-.549,0-1.737-.944-3.153-3.053-1.712-2.552-3.945-4.508-8.393-8.406q-.864-.758-1.848-1.621c-5.449-4.794-10.294-7.964-15.246-9.977-4.55-1.851-15.546-4.243-16.012-4.344l-.079-.017-.079.011c-.515.072-12.675,1.778-17.47,3.469a26.479,26.479,0,0,1-7.922,1.448c-2.407,0-2.911-.617-3.008-.805-.12-.232-.053-.579.2-1.032A6.739,6.739,0,0,1,5.87,127.2l.112-.01c.273-.059,27.365-5.882,32.9-7.368,5.9-1.581,17.884-8.187,23.878-12.6,6.492-4.781,14.944-17.267,16.024-20.906.967-3.261.074-10.266-.517-14.9-.1-.8-.2-1.529-.266-2.144-.407-3.526-2.37-15.423-3.457-17.312a45.854,45.854,0,0,0-3.231-3.863c-2.086-2.384-4.943-5.648-7.092-8.442-3.542-4.606-3.181-5.394-3.164-5.426a.886.886,0,0,1,.513-.173c1.285,0,2.961,2.927,3.716,4.772l.034.084,7.987,9.2.111-1.164c.022-.236,2.265-23.63,2.751-25.976.193-.931.31-3.773.458-7.372.183-4.46.523-12.761,1.156-13.578A.143.143,0,0,1,77.811,0c.381.108,1.131,1.96,1.57,3.867L75.49,40.022l1.277-2.892c1.935-4.382,5.7-12.864,6.108-13.6a24.3,24.3,0,0,0,1.017-3.445c.425-1.62,1.122-4.277,1.66-5.717C85.192,18.3,82.5,30.5,80.309,34.46c-2.714,4.9-4.369,8.113-4.2,12.277.156,3.978,3.965,18.574,4.223,19.559l1.922,13.262L82.9,77.6c.052-.157,5.233-15.658,6.773-18.437,1.46-2.636,8.977-17.693,9.712-21.236.539-2.6,2.225-7.924,3.856-13.074.506-1.6,1.009-3.187,1.475-4.685,1.913-6.146,4.085-9.625,4.941-9.822.078,1.353-2.3,7.872-4.756,13.667l-.025.061-2.07,11.857,17.112-19.089.036-.122c.686-2.356,2.129-5.675,3.188-5.675a.683.683,0,0,1,.475.255c.022.023.091.094.1.329.074,2.812-7.58,12.3-10.535,15.72l-9.731,11.737L94.375,57.873l18.507-14.052a40.46,40.46,0,0,1,6.511-4.477c-1.59,2.121-11.2,10.066-20.085,16.976l-.054.049c-.312.324-7.642,7.954-8.792,10.249-.146.292-.363.708-.633,1.225-1.789,3.43-5.979,11.463-7.171,17.213l-.333,1.606,1.137-1.08C84.5,84.6,86.482,83.04,87.4,83.04c.192,0,.254.054.3.263.192.858-2.348,2.686-4.2,4.021-2.173,1.564-4.419,3.181-5.246,4.782-1.62,3.135-4.925,8.046-4.958,8.095l-1.87,2.774,2.555-2.016c.177-.14,17.786-14,24.54-16.926,4.468-1.935,13.392-6.046,20.562-9.349,4.035-1.859,7.519-3.463,9.7-4.447a47.4,47.4,0,0,1,6.242-2.181c3.806-1.128,7.094-2.1,9.27-5,1.371-1.829,4.828-4.189,10.273-7.011,2.567-1.329,5.077-2.5,6.739-3.279.686-.321,1.246-.583,1.636-.773,2.064-1.009,3.514-4.368,5.194-8.256.9-2.085,1.832-4.242,2.941-6.242,2.466-4.453,5.689-6.825,7.067-6.825.3,0,.344.115.361.159.213.521-1.607,2.8-2.695,4.167-1.588,1.991-3.23,4.049-3.753,5.762-1.014,3.316-1.97,6.334-1.979,6.364l-.377,1.189,1.047-.521c.379-.188,9.3-4.644,11.859-7.3,2.152-2.236,6.184-5.355,7.862-5.355.383,0,.472.155.51.46.205,1.647-6.74,7.358-13.574,11.928l-1.67,1.117,1.954-.117s.328-.02.822-.02a14.334,14.334,0,0,1,3.265.333c.171.043.351.135.341.238-.044.433-1.674,2.18-8.375,2.18-.368,0-.749-.005-1.144-.016-.211-.006-.421-.009-.629-.009a22.237,22.237,0,0,0-15.515,6.329l-8.073,6.957,1.6-.126c.131-.01,13.239-1.029,22.175-1.029,1.864,0,3.437.044,4.676.132,2,.141,3.763.21,5.387.21,6.795,0,11.863-1.218,16.435-3.949.992-.593,1.914-1.159,2.806-1.707,4.231-2.6,7.288-4.476,10.261-4.476a6.973,6.973,0,0,1,1.1.088,72.073,72.073,0,0,0,9.806.56,41.713,41.713,0,0,0,8.885-.668,3.273,3.273,0,0,1,.812-.127,1.125,1.125,0,0,1,.237.022c-.388.63-2.951,2.348-9.219,2.82" transform="translate(-5.744 26.285)"/><path class="g" d="M6.3,6.242A8.477,8.477,0,0,0,3.151,0,8.477,8.477,0,0,0,0,6.242c0,3.874,3.151,7.788,3.151,7.788S6.3,10.116,6.3,6.242" transform="translate(172.8 121.882)"/><path class="g" d="M6.3,6.242A8.477,8.477,0,0,0,3.151,0,8.477,8.477,0,0,0,0,6.242c0,3.874,3.151,7.788,3.151,7.788S6.3,10.116,6.3,6.242" transform="translate(112.823 109.928)"/><path class="h" d="M6.513.959C3.477-1.036,0,.7,0,.7S.232,4.875,3.268,6.87s7.723,1.054,7.723,1.054S9.547,2.954,6.513.959" transform="translate(176.514 121.158)"/><path class="g" d="M6.285,4.811A7.832,7.832,0,0,0,1.475,0,8.948,8.948,0,0,0,.314,7.017c1.132,3.671,5.262,6.276,5.262,6.276s1.842-4.811.71-8.481" transform="translate(159.226 116.228)"/><path class="g" d="M6.285,4.811A7.832,7.832,0,0,0,1.475,0,8.947,8.947,0,0,0,.314,7.017c1.132,3.671,5.261,6.276,5.261,6.276s1.842-4.811.71-8.481" transform="translate(169.459 90.326)"/><path class="g" d="M.647,5.408C-.944,8.869.9,12.534.9,12.534A7.569,7.569,0,0,0,6.277,8.506C7.868,5.045,6.659,0,6.659,0S2.237,1.948.647,5.408" transform="translate(209.88 67.982)"/><path class="g" d="M5.875.011C2.34-.211,0,3.1,0,3.1S1.98,6.674,5.515,6.9s7.285-3,7.285-3S9.409.232,5.875.011" transform="translate(76.437 121.778)"/><path class="g" d="M.647,5.408C-.944,8.869.9,12.534.9,12.534A7.57,7.57,0,0,0,6.277,8.506C7.868,5.045,6.659,0,6.659,0S2.237,1.948.647,5.408" transform="translate(71.623 145.729)"/><path class="g" d="M.647,5.408C-.944,8.869.9,12.534.9,12.534A7.569,7.569,0,0,0,6.277,8.506C7.868,5.045,6.659,0,6.659,0S2.237,1.948.647,5.408" transform="translate(115.527 28.591)"/><path class="g" d="M.243,6.5a8.908,8.908,0,0,0,1.412,6.962A7.912,7.912,0,0,0,6.288,8.444C7.289,4.728,5.276,0,5.276,0S1.243,2.781.243,6.5" transform="translate(141.432 73.787)"/><path class="g" d="M.566,8.515a7.7,7.7,0,0,0,5.106,4.431,9,9,0,0,0,.709-7.088C5.017,2.282.731,0,.731,0S-.8,4.94.566,8.515" transform="translate(79.414 74.043)"/><path class="g" d="M6.373.281C2.985-.843,0,1.77,0,1.77S1.156,5.756,4.544,6.88s7.725-1.04,7.725-1.04S9.761,1.4,6.373.281" transform="translate(225.42 78.388)"/><path class="g" d="M5.566.006C2.029.169,0,3.714,0,3.714S2.294,7.059,5.832,6.9,12.81,3.123,12.81,3.123,9.1-.157,5.566.006" transform="translate(75.75 51.02)"/><path class="g" d="M6.285,4.811A7.833,7.833,0,0,0,1.475,0,8.948,8.948,0,0,0,.314,7.017c1.132,3.671,5.261,6.276,5.261,6.276s1.842-4.811.71-8.482" transform="translate(205.951 93.693)"/><path class="g" d="M1.8,3.212C-.653,6,.113,10.1.113,10.1A7.155,7.155,0,0,0,6.341,8C8.8,5.21,9.012,0,9.012,0S4.262.424,1.8,3.212" transform="translate(173.846 65.119)"/><path class="g" d="M3.589.977C.453,2.776,0,6.929,0,6.929s3.379,1.954,6.515.155,4.84-6.67,4.84-6.67S6.724-.822,3.589.977" transform="translate(184.563 55.724)"/><path class="g" d="M.043,8.136a8.251,8.251,0,0,0,3.794,5.8A8.679,8.679,0,0,0,6.3,7.333C5.889,3.485,2.343,0,2.343,0S-.37,4.289.043,8.136" transform="translate(168.324 43.911)"/><path class="g" d="M4.256.485C.936,1.83,0,5.885,0,5.885S3.123,8.3,6.443,6.953s5.581-5.937,5.581-5.937S7.576-.859,4.256.485" transform="translate(206.591 87.092)"/><path class="h" d="M6.448.419C3.133-.943,0,1.453,0,1.453s.918,4.06,4.232,5.422S12,6.384,12,6.384,9.762,1.781,6.448.419" transform="translate(207.428 92.02)"/><path class="g" d="M1.481,3.751C-.794,6.72.23,10.75.23,10.75A7.228,7.228,0,0,0,6.31,8.183C8.585,5.214,8.468,0,8.468,0S3.756.783,1.481,3.751" transform="translate(102.393 29.878)"/><path class="g" d="M3.629,7.544c2.777,2.4,6.429,1.166,6.429,1.166s.257-4.173-2.521-6.575S0,.01,0,.01.852,5.142,3.629,7.544" transform="translate(92.44 33.071)"/><path class="h" d="M.115,8.3a8.108,8.108,0,0,0,4.163,5.486A8.787,8.787,0,0,0,6.305,7C5.643,3.2,1.878,0,1.878,0S-.548,4.49.115,8.3" transform="translate(98.172 26.959)"/><path class="g" d="M6.285,4.811A7.833,7.833,0,0,0,1.475,0,8.948,8.948,0,0,0,.314,7.017c1.132,3.671,5.262,6.276,5.262,6.276s1.842-4.811.71-8.481" transform="translate(100.173 146.17)"/><path class="g" d="M4.256.485C.935,1.83,0,5.885,0,5.885S3.123,8.3,6.443,6.953s5.581-5.937,5.581-5.937S7.576-.859,4.256.485" transform="translate(100.814 139.569)"/><path class="h" d="M6.448.419C3.133-.943,0,1.453,0,1.453s.918,4.06,4.232,5.422S12,6.384,12,6.384,9.762,1.781,6.448.419" transform="translate(101.651 144.498)"/><path class="h" d="M.375,6.1a8.975,8.975,0,0,0,.967,7.052A7.774,7.774,0,0,0,6.283,8.5C7.516,4.869,5.808,0,5.808,0S1.609,2.467.375,6.1" transform="translate(190.765 73.941)"/><path class="i" d="M6.283,3.267A7.368,7.368,0,0,0,.491,0s-1.414,3.886.556,7.1,6.579,4.552,6.579,4.552.628-5.17-1.343-8.389" transform="translate(157.453 78.324)"/><path class="i" d="M6.283,3.267A7.368,7.368,0,0,0,.491,0s-1.414,3.886.556,7.1,6.579,4.552,6.579,4.552.628-5.17-1.343-8.389" transform="translate(144.138 119.874)"/><path class="i" d="M6.283,3.267A7.368,7.368,0,0,0,.491,0s-1.414,3.886.556,7.1,6.579,4.552,6.579,4.552.628-5.17-1.343-8.389" transform="translate(115.533 109.777)"/><path class="i" d="M6.283,3.267A7.368,7.368,0,0,0,.491,0s-1.414,3.885.556,7.1,6.579,4.552,6.579,4.552.628-5.17-1.343-8.39" transform="translate(68.936 163.363)"/><path class="i" d="M6.283,3.267A7.368,7.368,0,0,0,.491,0s-1.414,3.886.556,7.1,6.579,4.552,6.579,4.552.628-5.17-1.343-8.389" transform="translate(100.989 171.677)"/><path class="i" d="M.252,6.468A8.914,8.914,0,0,0,1.63,13.437,7.9,7.9,0,0,0,6.288,8.451C7.306,4.74,5.316,0,5.316,0S1.27,2.757.252,6.468" transform="translate(104.717 91.157)"/><path class="i" d="M.252,6.468A8.914,8.914,0,0,0,1.63,13.437,7.9,7.9,0,0,0,6.288,8.451C7.306,4.74,5.316,0,5.316,0S1.27,2.757.252,6.468" transform="translate(31.61 133.341)"/><path class="i" d="M5.107.1C1.615.734,0,4.525,0,4.525S2.653,7.536,6.145,6.9s6.5-4.684,6.5-4.684S8.6-.543,5.107.1" transform="translate(49.717 152.56)"/><path class="i" d="M1.631,3.5C-.733,6.379.169,10.444.169,10.444A7.191,7.191,0,0,0,6.323,8.1C8.687,5.216,8.729,0,8.729,0S4,.612,1.631,3.5" transform="translate(128.044 84.834)"/><path class="i" d="M4.044.623C.779,2.119,0,6.214,0,6.214s3.213,2.266,6.478.77S11.826.8,11.826.8,7.31-.873,4.044.623" transform="translate(171.884 51.822)"/><path class="g" d="M.043,8.136a8.251,8.251,0,0,0,3.794,5.8A8.68,8.68,0,0,0,6.3,7.333C5.89,3.485,2.343,0,2.343,0S-.37,4.289.043,8.136" transform="translate(107.505 54.15)"/><path class="i" d="M4.044.623C.779,2.119,0,6.214,0,6.214s3.213,2.266,6.479.77S11.826.8,11.826.8,7.31-.873,4.044.623" transform="translate(111.064 62.061)"/><path class="i" d="M2.611,2.023C-.2,4.381,0,8.558,0,8.558s3.635,1.3,6.444-1.063S10.176.019,10.176.019s-4.756-.354-7.565,2" transform="translate(69.997 67.698)"/><path class="h" d="M6.462.458C3.169-.963,0,1.376,0,1.376s.857,4.076,4.15,5.5,7.777-.351,7.777-.351S9.756,1.88,6.462.458" transform="translate(173.138 89.98)"/><path class="g" d="M5.033.119C1.552.826,0,4.648,0,4.648S2.7,7.606,6.184,6.9s6.422-4.811,6.422-4.811S8.514-.588,5.033.119" transform="translate(82.155 91.369)"/><path class="h" d="M.8,5.062c-1.752,3.367-.084,7.13-.084,7.13a7.482,7.482,0,0,0,5.56-3.719C8.03,5.107,7.061,0,7.061,0S2.553,1.7.8,5.062" transform="translate(77.642 34.529)"/><path class="h" d="M6.325,2.358A7.186,7.186,0,0,0,.161.044S-.723,4.113,1.652,6.985s7.112,3.461,7.112,3.461S8.7,5.23,6.325,2.358" transform="translate(175.317 75.294)"/><path class="h" d="M4.575,7.157c3.062,1.944,6.515.149,6.515.149s-.29-4.17-3.353-6.114S0,.267,0,.267,1.513,5.213,4.575,7.157" transform="translate(59.779 38.338)"/><path class="h" d="M6.354.256C2.953-.819,0,1.837,0,1.837S1.2,5.807,4.606,6.881s7.711-1.153,7.711-1.153S9.755,1.33,6.354.256" transform="translate(184.082 60.306)"/><path class="g" d="M6.3,6.15A8.428,8.428,0,0,0,3,0,8.525,8.525,0,0,0,0,6.329c.092,3.873,3.335,7.7,3.335,7.7s3.057-4,2.965-7.875" transform="translate(34.115 156.876)"/><path class="h" d="M7.119,6.983C9.5,4.117,8.626.046,8.626.046a7.183,7.183,0,0,0-6.169,2.3C.075,5.209,0,10.425,0,10.425s4.738-.576,7.119-3.442" transform="translate(29.124 156.582)"/><path class="h" d="M.353,8.476A7.843,7.843,0,0,0,5.135,13.32a8.941,8.941,0,0,0,1.2-7.008C5.225,2.634,1.111,0,1.111,0S-.759,4.8.353,8.476" transform="translate(86.298 61.685)"/><path class="g" d="M5.34,6.985c3.264,1.5,6.48-.76,6.48-.76s-.774-4.1-4.038-5.6S0,.789,0,.789s2.077,4.7,5.34,6.2" transform="translate(62.26 100.213)"/><path class="h" d="M.611,8.516A7.671,7.671,0,0,0,5.77,12.872s2.031-3.543.623-7.1S.671,0,.671,0-.8,4.962.611,8.516" transform="translate(68.257 94.297)"/><path class="g" d="M3.805,7.457c2.833,2.323,6.454.984,6.454.984s.158-4.178-2.675-6.5S0,.028,0,.028.972,5.134,3.805,7.457" transform="translate(62.781 23.165)"/><path class="h" d="M.086,8.246a8.156,8.156,0,0,0,4.038,5.6A8.75,8.75,0,0,0,6.3,7.122C5.727,3.3,2.034,0,2.034,0S-.492,4.424.086,8.246" transform="translate(68.704 18.46)"/><path class="g" d="M5.772,0C2.233-.084,0,3.312,0,3.312S2.094,6.811,5.633,6.9,12.818,3.62,12.818,3.62,9.311.087,5.772,0" transform="translate(97.187 76.792)"/><path class="h" d="M6.35,2.077A7.139,7.139,0,0,0,.09.1s-.7,4.112,1.8,6.853,7.259,3.073,7.259,3.073-.3-5.206-2.8-7.946" transform="translate(96.901 79.305)"/><path class="h" d="M1.268,4.131C-.868,7.22.34,11.189.34,11.189a7.29,7.29,0,0,0,5.954-2.9C8.43,5.2,8.075,0,8.075,0S3.4,1.041,1.268,4.131" transform="translate(225.42 68.345)"/><path class="g" d="M1.985,2.927C-.562,5.618.069,9.743.069,9.743A7.125,7.125,0,0,0,6.362,7.889C8.91,5.2,9.294,0,9.294,0S4.532.237,1.985,2.927" transform="translate(184.835 104.501)"/><path class="g" d="M1.985,2.927C-.562,5.618.069,9.743.069,9.743A7.125,7.125,0,0,0,6.362,7.889C8.909,5.2,9.294,0,9.294,0S4.532.237,1.985,2.927" transform="translate(49.717 146.186)"/><path class="g" d="M5.132.089C1.636.7,0,4.484,0,4.484S2.636,7.513,6.132,6.9s6.526-4.641,6.526-4.641S8.627-.526,5.132.089" transform="translate(96.52 163.741)"/><path class="g" d="M.7,5.287c-1.648,3.429.133,7.13.133,7.13A7.539,7.539,0,0,0,6.277,8.5C7.926,5.069,6.8,0,6.8,0S2.348,1.858.7,5.287" transform="translate(149.491 91.667)"/><path class="g" d="M6.3,6.3A8.51,8.51,0,0,0,3.251,0,8.445,8.445,0,0,0,0,6.181c-.062,3.874,3.027,7.846,3.027,7.846S6.241,10.174,6.3,6.3" transform="translate(48.061 164.663)"/><path class="g" d="M5.254.057C1.743.553,0,4.275,0,4.275S2.549,7.392,6.06,6.9,12.715,2.48,12.715,2.48,8.765-.439,5.254.057" transform="translate(143.134 114.818)"/><path class="g" d="M6.366.272C2.973-.834,0,1.795,0,1.795s1.174,3.98,4.567,5.086S12.287,5.8,12.287,5.8,9.759,1.377,6.366.272" transform="translate(116.472 99.793)"/><path class="g" d="M1.985,2.927C-.562,5.618.069,9.743.069,9.743A7.125,7.125,0,0,0,6.362,7.889C8.91,5.2,9.294,0,9.294,0S4.533.237,1.985,2.927" transform="translate(156.973 97.666)"/><path class="g" d="M1.985,2.927C-.562,5.618.069,9.743.069,9.743A7.125,7.125,0,0,0,6.362,7.889C8.909,5.2,9.294,0,9.294,0S4.532.237,1.985,2.927" transform="translate(114.811 144.014)"/><path class="g" d="M6.347,2.11A7.145,7.145,0,0,0,.1.089S-.625,4.2,1.862,6.954,9.1,10.074,9.1,10.074,8.834,4.867,6.347,2.11" transform="translate(192.596 115.157)"/><path class="g" d="M6.347,2.11A7.146,7.146,0,0,0,.1.089S-.625,4.2,1.862,6.954,9.1,10.074,9.1,10.074,8.834,4.867,6.347,2.11" transform="translate(98.901 111.895)"/><path class="h" d="M4.316.449C.981,1.749,0,5.792,0,5.792S3.1,8.246,6.431,6.946s5.647-5.862,5.647-5.862S7.651-.851,4.316.449" transform="translate(191.972 109.883)"/><path class="g" d="M6.347,2.11A7.146,7.146,0,0,0,.1.089S-.625,4.2,1.862,6.954,9.1,10.074,9.1,10.074,8.834,4.867,6.347,2.11" transform="translate(121.215 154.953)"/><path class="h" d="M4.316.449C.981,1.749,0,5.792,0,5.792S3.1,8.246,6.431,6.946s5.647-5.861,5.647-5.861S7.651-.851,4.316.449" transform="translate(120.591 149.68)"/><path class="h" d="M5.784,0C2.245-.1,0,3.287,0,3.287S2.081,6.8,5.621,6.9s7.2-3.245,7.2-3.245S9.323.1,5.784,0" transform="translate(156.974 104.084)"/><path class="g" d="M4.807.2C1.365,1.111,0,5.018,0,5.018s2.842,2.8,6.284,1.889,6.18-5.178,6.18-5.178S8.248-.7,4.807.2" transform="translate(110.833 43.182)"/><path class="h" d="M6.508,1.018C3.5-1.03,0,.645,0,.645S.17,4.824,3.176,6.872s7.707,1.191,7.707,1.191-1.37-5-4.375-7.044" transform="translate(110.791 47.483)"/><path class="g" d="M1.985,2.927C-.562,5.618.069,9.743.069,9.743A7.125,7.125,0,0,0,6.362,7.889C8.909,5.2,9.294,0,9.294,0S4.532.237,1.985,2.927" transform="translate(80.323 101.004)"/><path class="h" d="M5.784,0C2.245-.1,0,3.287,0,3.287S2.081,6.8,5.621,6.9s7.2-3.245,7.2-3.245S9.323.1,5.784,0" transform="translate(80.324 107.422)"/><path class="g" d="M1.2,8.443a7.433,7.433,0,0,0,5.663,3.529s1.561-3.818-.285-7.124S.184,0,.184,0-.641,5.137,1.2,8.443" transform="translate(83.301 134.967)"/><path class="h" d="M.178,6.718A8.863,8.863,0,0,0,1.85,13.61,7.994,7.994,0,0,0,6.292,8.392C7.151,4.634,4.963,0,4.963,0S1.038,2.96.178,6.718" transform="translate(88.269 133.394)"/><path class="h" d="M.75,8.513a7.605,7.605,0,0,0,5.309,4.135s1.9-3.627.372-7.12S.509,0,.509,0-.783,5.021.75,8.513" transform="translate(122.487 83.06)"/><path class="i" d="M0,7.706a8.516,8.516,0,0,0,3.019,6.319A8.434,8.434,0,0,0,6.3,7.866C6.384,3.992,3.316,0,3.316,0S.084,3.833,0,7.706" transform="translate(53.476 48.721)"/><path class="h" d="M5.242,7c3.239,1.562,6.491-.637,6.491-.637S11.023,2.253,7.783.691,0,.7,0,.7,2,5.439,5.242,7" transform="translate(45.272 56.472)"/><path class="i" d="M6.319,2.443A7.2,7.2,0,0,0,.186.033S-.752,4.087,1.586,7s7.066,3.572,7.066,3.572,0-5.215-2.333-8.125" transform="translate(59.254 136.96)"/><path class="h" d="M4.379.413C1.03,1.666,0,5.693,0,5.693s3.067,2.5,6.417,1.245,5.716-5.781,5.716-5.781-4.4-2-7.754-.745" transform="translate(59.011 131.61)"/><path class="h" d="M.75,8.513a7.605,7.605,0,0,0,5.309,4.135s1.9-3.627.372-7.12S.509,0,.509,0-.783,5.021.75,8.513" transform="translate(50.119 123.261)"/><path class="i" d="M6.3,6.01A8.355,8.355,0,0,0,2.794,0,8.591,8.591,0,0,0,.012,6.448C.236,10.314,3.609,14,3.609,14S6.526,9.877,6.3,6.01" transform="translate(62.62 177.153)"/><path class="h" d="M6.416.35C3.065-.9,0,1.6,0,1.6S1.032,5.628,4.383,6.878s7.753-.751,7.753-.751S9.767,1.6,6.416.35" transform="translate(64.902 175.513)"/></g></g><g class="u" transform="matrix(1, 0, 0, 1, 64, 215)"><circle class="k" cx="153" cy="153" r="153" transform="translate(-26 -68)"/></g><g class="t" transform="matrix(1, 0, 0, 1, 64, 215)"><g class="l" transform="translate(46 3.95)"><path class="r" d="M 81.5 158 C 71.17037200927734 158 61.15237426757813 155.9780426025391 51.72427368164063 151.9902954101563 C 47.19242477416992 150.0734710693359 42.82104873657227 147.7007293701172 38.73160171508789 144.9379425048828 C 34.67972564697266 142.2005767822266 30.86935043334961 139.0567016601563 27.40632438659668 135.5936737060547 C 23.94330024719238 132.1306457519531 20.79942512512207 128.3202819824219 18.06204986572266 124.2684020996094 C 15.29927539825439 120.1789474487305 12.9265251159668 115.8075714111328 11.00969982147217 111.2757263183594 C 7.021949768066406 101.8476257324219 5 91.82962799072266 5 81.5 C 5 71.17037200927734 7.021949768066406 61.15237426757813 11.00969982147217 51.72427368164063 C 12.9265251159668 47.19242477416992 15.29927539825439 42.82104873657227 18.06204986572266 38.73160171508789 C 20.79942512512207 34.67972564697266 23.94330024719238 30.86935043334961 27.40632438659668 27.40632438659668 C 30.86935043334961 23.94330024719238 34.67972564697266 20.79942512512207 38.73160171508789 18.06204986572266 C 42.82104873657227 15.29927539825439 47.19242477416992 12.9265251159668 51.72427368164063 11.00969982147217 C 61.15237426757813 7.021949768066406 71.17037200927734 5 81.5 5 C 91.82962799072266 5 101.8476257324219 7.021949768066406 111.2757263183594 11.00969982147217 C 115.8075714111328 12.9265251159668 120.1789474487305 15.29927539825439 124.2684020996094 18.06204986572266 C 128.3202819824219 20.79942512512207 132.1306457519531 23.94330024719238 135.5936737060547 27.40632438659668 C 139.0567016601563 30.86935043334961 142.2005767822266 34.67972564697266 144.9379425048828 38.73160171508789 C 147.7007293701172 42.82104873657227 150.0734710693359 47.19242477416992 151.9902954101563 51.72427368164063 C 155.9780426025391 61.15237426757813 158 71.17037200927734 158 81.5 C 158 91.82962799072266 155.9780426025391 101.8476257324219 151.9902954101563 111.2757263183594 C 150.0734710693359 115.8075714111328 147.7007293701172 120.1789474487305 144.9379425048828 124.2684020996094 C 142.2005767822266 128.3202819824219 139.0567016601563 132.1306457519531 135.5936737060547 135.5936737060547 C 132.1306457519531 139.0567016601563 128.3202819824219 142.2005767822266 124.2684020996094 144.9379425048828 C 120.1789474487305 147.7007293701172 115.8075714111328 150.0734710693359 111.2757263183594 151.9902954101563 C 101.8476257324219 155.9780426025391 91.82962799072266 158 81.5 158 Z"/><path class="s" d="M 81.5 10 C 42.07478332519531 10 10 42.07478332519531 10 81.5 C 10 120.9252166748047 42.07478332519531 153 81.5 153 C 120.9252166748047 153 153 120.9252166748047 153 81.5 C 153 42.07478332519531 120.9252166748047 10 81.5 10 M 81.5 0 C 126.5112152099609 0 163 36.48881530761719 163 81.5 C 163 126.5112152099609 126.5112152099609 163 81.5 163 C 36.48881530761719 163 0 126.5112152099609 0 81.5 C 0 36.48881530761719 36.48881530761719 0 81.5 0 Z"/></g></g><text class="m" transform="translate(149 322)"><tspan x="0" y="0">My</tspan><tspan class="n" y="0">ON</tspan></text><g transform="translate(171.832 273.881)"><g class="b" transform="translate(10.188 -2)"><circle class="r" cx="8.043" cy="8.043" r="8.043"/><circle class="a" cx="8.043" cy="8.043" r="7.543"/></g><g class="o" transform="translate(0 13.073)"><g class="b" transform="translate(0.73 0.879)"><ellipse class="r" cx="17.502" cy="18.098" rx="17.502" ry="18.098"/><ellipse class="a" cx="17.502" cy="18.098" rx="17.002" ry="17.598"/></g></g></g><path class="p" d="M18.407,2H3.823A1.914,1.914,0,0,0,2,3.984v11.9a1.914,1.914,0,0,0,1.823,1.984H16.584l3.646,3.967V3.984A1.914,1.914,0,0,0,18.407,2ZM16.584,13.9H5.646V11.918H16.584Zm0-2.975H5.646V8.942H16.584Zm0-2.975H5.646V5.967H16.584Z" transform="translate(160 250)"/><path class="q" d="M19.629,18.442,14.878,13.69V9.913a3.563,3.563,0,1,0-2.376,0V13.69L7.751,18.442H3v5.939H8.939V20.758l4.751-4.989,4.751,4.989v3.623h5.939V18.442Z" transform="translate(292 253)"/><path class="q" d="M4.356,12.319A3.606,3.606,0,0,1,8.2,9.021h4.96V7H8.2C4.778,7,2,9.383,2,12.319s2.778,5.319,6.2,5.319h4.96V15.617H8.2A3.606,3.606,0,0,1,4.356,12.319ZM9.44,13.383h9.921V11.255H9.44ZM20.6,7h-4.96V9.021H20.6a3.606,3.606,0,0,1,3.844,3.3,3.606,3.606,0,0,1-3.844,3.3h-4.96v2.021H20.6c3.423,0,6.2-2.383,6.2-5.319S24.024,7,20.6,7Z" transform="translate(291 290)"/><path class="q" d="M10.5,5.563v12.8a4.422,4.422,0,1,1-8.844,0V4.451a2.764,2.764,0,1,1,5.527,0V16.133a1.105,1.105,0,1,1-2.211,0V5.563H3.316v10.57a2.764,2.764,0,1,0,5.527,0V4.451A4.422,4.422,0,1,0,0,4.451V18.359a6.08,6.08,0,1,0,12.16,0V5.563Z" transform="translate(292 337.45) rotate(-51)"/></g></g></svg>