<?xml version="1.0" encoding="UTF-8" standalone="no"?>
<!DOCTYPE svg PUBLIC "-//W3C//DTD SVG 1.1//EN" "http://www.w3.org/Graphics/SVG/1.1/DTD/svg11.dtd">
<svg width="100%" height="100%" viewBox="0 0 30 30" version="1.1" xmlns="http://www.w3.org/2000/svg" xmlns:xlink="http://www.w3.org/1999/xlink" xml:space="preserve" style="fill-rule:evenodd;clip-rule:evenodd;stroke-linejoin:bevel;stroke-miterlimit:1.5;">
    <g id="Artboard1" transform="matrix(1.72414,0,0,3.17241,0,0)">
        <rect x="0" y="0" width="29" height="29" style="fill:none;"/>
        <g transform="matrix(0.375148,0,0,0.203827,3.48,1.89131)">
            <path d="M27.829,27.837L19.091,19.176" style="fill:none;stroke:white;stroke-width:3px;"/>
            <g transform="matrix(1.56634,0,0,1.56679,-9.69977,-9.70239)">
                <path d="M13.63,6.193L13.725,6.195L13.819,6.198L13.913,6.202L14.006,6.207L14.1,6.214L14.193,6.222L14.285,6.23L14.377,6.24L14.469,6.251L14.561,6.264L14.652,6.277L14.743,6.292L14.833,6.307L14.923,6.324L15.013,6.342L15.102,6.361L15.191,6.38L15.28,6.402L15.368,6.424L15.456,6.447L15.543,6.471L15.63,6.496L15.716,6.523L15.802,6.55L15.887,6.578L15.972,6.608L16.057,6.638L16.141,6.669L16.224,6.702L16.307,6.735L16.39,6.769L16.472,6.805L16.553,6.841L16.634,6.878L16.715,6.916L16.794,6.955L16.874,6.995L16.953,7.036L17.031,7.078L17.108,7.121L17.186,7.165L17.262,7.21L17.338,7.255L17.413,7.301L17.488,7.349L17.562,7.397L17.636,7.446L17.708,7.496L17.781,7.547L17.852,7.598L17.923,7.651L17.993,7.704L18.063,7.758L18.132,7.813L18.2,7.868L18.268,7.925L18.335,7.982L18.401,8.04L18.467,8.099L18.531,8.159L18.595,8.219L18.659,8.28L18.721,8.342L18.783,8.405L18.844,8.468L18.905,8.532L18.964,8.597L19.023,8.662L19.081,8.728L19.138,8.795L19.195,8.863L19.251,8.931L19.305,9L19.359,9.07L19.413,9.14L19.465,9.211L19.517,9.283L19.567,9.355L19.617,9.428L19.666,9.501L19.714,9.575L19.762,9.65L19.808,9.725L19.854,9.801L19.898,9.878L19.942,9.955L19.985,10.032L20.027,10.111L20.068,10.189L20.108,10.269L20.147,10.349L20.185,10.429L20.222,10.51L20.259,10.592L20.294,10.674L20.328,10.756L20.362,10.839L20.394,10.923L20.425,11.007L20.456,11.091L20.485,11.176L20.513,11.262L20.541,11.347L20.567,11.434L20.592,11.521L20.616,11.608L20.64,11.695L20.662,11.783L20.683,11.872L20.703,11.961L20.722,12.05L20.739,12.14L20.756,12.23L20.772,12.32L20.786,12.411L20.8,12.502L20.812,12.594L20.823,12.686L20.833,12.778L20.842,12.871L20.849,12.964L20.856,13.057L20.861,13.15L20.865,13.244L20.868,13.338L20.87,13.433L20.871,13.528L20.87,13.622L20.868,13.717L20.865,13.811L20.861,13.905L20.856,13.998L20.849,14.092L20.842,14.185L20.833,14.277L20.823,14.369L20.812,14.461L20.8,14.553L20.786,14.644L20.772,14.735L20.756,14.825L20.739,14.915L20.722,15.005L20.703,15.094L20.683,15.183L20.662,15.272L20.64,15.36L20.616,15.448L20.592,15.535L20.567,15.622L20.541,15.708L20.513,15.794L20.485,15.879L20.456,15.964L20.425,16.049L20.394,16.133L20.362,16.216L20.328,16.299L20.294,16.382L20.259,16.464L20.222,16.545L20.185,16.626L20.147,16.707L20.108,16.786L20.068,16.866L20.027,16.945L19.985,17.023L19.942,17.1L19.898,17.178L19.854,17.254L19.808,17.33L19.762,17.405L19.714,17.48L19.666,17.554L19.617,17.628L19.567,17.7L19.517,17.773L19.465,17.844L19.413,17.915L19.359,17.985L19.305,18.055L19.251,18.124L19.195,18.192L19.138,18.26L19.081,18.327L19.023,18.393L18.964,18.459L18.905,18.523L18.844,18.587L18.783,18.651L18.721,18.713L18.659,18.775L18.595,18.836L18.531,18.897L18.467,18.956L18.401,19.015L18.335,19.073L18.268,19.13L18.2,19.187L18.132,19.243L18.063,19.297L17.993,19.351L17.923,19.405L17.852,19.457L17.781,19.509L17.708,19.559L17.636,19.609L17.562,19.658L17.488,19.706L17.413,19.754L17.338,19.8L17.262,19.846L17.186,19.89L17.108,19.934L17.031,19.977L16.953,20.019L16.874,20.06L16.794,20.1L16.715,20.139L16.634,20.177L16.553,20.214L16.472,20.251L16.39,20.286L16.307,20.32L16.224,20.354L16.141,20.386L16.057,20.417L15.972,20.448L15.887,20.477L15.802,20.505L15.716,20.533L15.63,20.559L15.543,20.584L15.456,20.608L15.368,20.632L15.28,20.654L15.191,20.675L15.102,20.695L15.013,20.714L14.923,20.731L14.833,20.748L14.743,20.764L14.652,20.778L14.561,20.792L14.469,20.804L14.377,20.815L14.285,20.825L14.193,20.834L14.1,20.841L14.006,20.848L13.913,20.853L13.819,20.857L13.725,20.86L13.63,20.862L13.536,20.863L13.441,20.862L13.346,20.86L13.252,20.857L13.158,20.853L13.065,20.848L12.972,20.841L12.879,20.834L12.786,20.825L12.694,20.815L12.602,20.804L12.51,20.792L12.419,20.778L12.328,20.764L12.238,20.748L12.148,20.731L12.058,20.714L11.969,20.695L11.88,20.675L11.791,20.654L11.703,20.632L11.616,20.608L11.529,20.584L11.442,20.559L11.355,20.533L11.27,20.505L11.184,20.477L11.099,20.448L11.015,20.417L10.931,20.386L10.847,20.354L10.764,20.32L10.682,20.286L10.6,20.251L10.518,20.214L10.437,20.177L10.357,20.139L10.277,20.1L10.198,20.06L10.119,20.019L10.04,19.977L9.963,19.934L9.886,19.89L9.809,19.846L9.733,19.8L9.658,19.754L9.583,19.706L9.509,19.658L9.436,19.609L9.363,19.559L9.291,19.509L9.219,19.457L9.148,19.405L9.078,19.351L9.008,19.297L8.939,19.243L8.871,19.187L8.803,19.13L8.736,19.073L8.67,19.015L8.605,18.956L8.54,18.897L8.476,18.836L8.413,18.775L8.35,18.713L8.288,18.651L8.227,18.587L8.167,18.523L8.107,18.459L8.048,18.393L7.99,18.327L7.933,18.26L7.876,18.192L7.821,18.124L7.766,18.055L7.712,17.985L7.659,17.915L7.606,17.844L7.555,17.773L7.504,17.7L7.454,17.628L7.405,17.554L7.357,17.48L7.31,17.405L7.263,17.33L7.218,17.254L7.173,17.178L7.129,17.1L7.086,17.023L7.044,16.945L7.003,16.866L6.963,16.786L6.924,16.707L6.886,16.626L6.849,16.545L6.813,16.464L6.777,16.382L6.743,16.299L6.71,16.216L6.677,16.133L6.646,16.049L6.616,15.964L6.586,15.879L6.558,15.794L6.531,15.708L6.504,15.622L6.479,15.535L6.455,15.448L6.432,15.36L6.41,15.272L6.389,15.183L6.369,15.094L6.35,15.005L6.332,14.915L6.315,14.825L6.3,14.735L6.285,14.644L6.272,14.553L6.26,14.461L6.248,14.369L6.238,14.277L6.23,14.185L6.222,14.092L6.215,13.998L6.21,13.905L6.206,13.811L6.203,13.717L6.201,13.622L6.201,13.528L6.201,13.433L6.203,13.338L6.206,13.244L6.21,13.15L6.215,13.057L6.222,12.964L6.23,12.871L6.238,12.778L6.248,12.686L6.26,12.594L6.272,12.502L6.285,12.411L6.3,12.32L6.315,12.23L6.332,12.14L6.35,12.05L6.369,11.961L6.389,11.872L6.41,11.783L6.432,11.695L6.455,11.608L6.479,11.521L6.504,11.434L6.531,11.347L6.558,11.262L6.586,11.176L6.616,11.091L6.646,11.007L6.677,10.923L6.71,10.839L6.743,10.756L6.777,10.674L6.813,10.592L6.849,10.51L6.886,10.429L6.924,10.349L6.963,10.269L7.003,10.189L7.044,10.111L7.086,10.032L7.129,9.955L7.173,9.878L7.218,9.801L7.263,9.725L7.31,9.65L7.357,9.575L7.405,9.501L7.454,9.428L7.504,9.355L7.555,9.283L7.606,9.211L7.659,9.14L7.712,9.07L7.766,9L7.821,8.931L7.876,8.863L7.933,8.795L7.99,8.728L8.048,8.662L8.107,8.597L8.167,8.532L8.227,8.468L8.288,8.405L8.35,8.342L8.413,8.28L8.476,8.219L8.54,8.159L8.605,8.099L8.67,8.04L8.736,7.982L8.803,7.925L8.871,7.868L8.939,7.813L9.008,7.758L9.078,7.704L9.148,7.651L9.219,7.598L9.291,7.547L9.363,7.496L9.436,7.446L9.509,7.397L9.583,7.349L9.658,7.301L9.733,7.255L9.809,7.21L9.886,7.165L9.963,7.121L10.04,7.078L10.119,7.036L10.198,6.995L10.277,6.955L10.357,6.916L10.437,6.878L10.518,6.841L10.6,6.805L10.682,6.769L10.764,6.735L10.847,6.702L10.931,6.669L11.015,6.638L11.099,6.608L11.184,6.578L11.27,6.55L11.355,6.523L11.442,6.496L11.529,6.471L11.616,6.447L11.703,6.424L11.791,6.402L11.88,6.38L11.969,6.361L12.058,6.342L12.148,6.324L12.238,6.307L12.328,6.292L12.419,6.277L12.51,6.264L12.602,6.251L12.694,6.24L12.786,6.23L12.879,6.222L12.972,6.214L13.065,6.207L13.158,6.202L13.252,6.198L13.346,6.195L13.441,6.193L13.536,6.193L13.63,6.193ZM13.459,7.633L13.383,7.635L13.307,7.637L13.231,7.64L13.156,7.645L13.081,7.65L13.006,7.656L12.932,7.663L12.858,7.671L12.784,7.68L12.71,7.69L12.637,7.701L12.564,7.712L12.491,7.725L12.419,7.738L12.347,7.752L12.275,7.768L12.204,7.784L12.133,7.801L12.063,7.818L11.992,7.837L11.922,7.856L11.853,7.876L11.783,7.898L11.715,7.919L11.646,7.942L11.578,7.966L11.51,7.99L11.443,8.015L11.376,8.041L11.309,8.068L11.243,8.096L11.177,8.124L11.112,8.153L11.047,8.183L10.982,8.214L10.918,8.245L10.854,8.277L10.791,8.31L10.728,8.344L10.666,8.378L10.604,8.413L10.542,8.449L10.481,8.486L10.421,8.523L10.361,8.561L10.301,8.6L10.242,8.639L10.184,8.679L10.125,8.72L10.068,8.762L10.011,8.804L9.954,8.847L9.898,8.89L9.843,8.934L9.788,8.979L9.733,9.024L9.679,9.071L9.626,9.117L9.573,9.165L9.521,9.213L9.47,9.261L9.419,9.31L9.368,9.36L9.318,9.411L9.269,9.462L9.221,9.513L9.173,9.565L9.125,9.618L9.079,9.671L9.033,9.725L8.987,9.78L8.942,9.835L8.898,9.89L8.855,9.946L8.812,10.003L8.77,10.06L8.728,10.117L8.687,10.175L8.647,10.234L8.608,10.293L8.569,10.353L8.531,10.413L8.494,10.473L8.457,10.534L8.421,10.596L8.386,10.658L8.352,10.72L8.318,10.783L8.285,10.846L8.253,10.91L8.222,10.974L8.191,11.039L8.161,11.104L8.132,11.169L8.104,11.235L8.076,11.301L8.049,11.368L8.023,11.435L7.998,11.502L7.974,11.57L7.95,11.638L7.928,11.707L7.906,11.775L7.885,11.845L7.864,11.914L7.845,11.984L7.826,12.055L7.809,12.125L7.792,12.196L7.776,12.267L7.761,12.339L7.746,12.411L7.733,12.483L7.72,12.556L7.709,12.629L7.698,12.702L7.688,12.776L7.679,12.85L7.671,12.924L7.664,12.998L7.658,13.073L7.653,13.148L7.648,13.223L7.645,13.299L7.643,13.375L7.641,13.451L7.641,13.528L7.641,13.604L7.643,13.68L7.645,13.756L7.648,13.832L7.653,13.907L7.658,13.982L7.664,14.057L7.671,14.131L7.679,14.206L7.688,14.279L7.698,14.353L7.709,14.426L7.72,14.499L7.733,14.572L7.746,14.644L7.761,14.716L7.776,14.788L7.792,14.859L7.809,14.93L7.826,15.001L7.845,15.071L7.864,15.141L7.885,15.211L7.906,15.28L7.928,15.349L7.95,15.417L7.974,15.485L7.998,15.553L8.023,15.62L8.049,15.687L8.076,15.754L8.104,15.82L8.132,15.886L8.161,15.951L8.191,16.016L8.222,16.081L8.253,16.145L8.285,16.209L8.318,16.272L8.352,16.335L8.386,16.397L8.421,16.459L8.457,16.521L8.494,16.582L8.531,16.642L8.569,16.702L8.608,16.762L8.647,16.821L8.687,16.88L8.728,16.938L8.77,16.995L8.812,17.053L8.855,17.109L8.898,17.165L8.942,17.221L8.987,17.276L9.033,17.33L9.079,17.384L9.125,17.437L9.173,17.49L9.221,17.542L9.269,17.594L9.318,17.645L9.368,17.695L9.419,17.745L9.47,17.794L9.521,17.843L9.573,17.891L9.626,17.938L9.679,17.985L9.733,18.031L9.788,18.076L9.843,18.121L9.898,18.165L9.954,18.209L10.011,18.252L10.068,18.294L10.125,18.335L10.184,18.376L10.242,18.416L10.301,18.456L10.361,18.494L10.421,18.532L10.481,18.57L10.542,18.606L10.604,18.642L10.666,18.677L10.728,18.712L10.791,18.745L10.854,18.778L10.918,18.81L10.982,18.842L11.047,18.872L11.112,18.902L11.177,18.931L11.243,18.96L11.309,18.987L11.376,19.014L11.443,19.04L11.51,19.065L11.578,19.089L11.646,19.113L11.715,19.136L11.783,19.158L11.853,19.179L11.922,19.199L11.992,19.218L12.063,19.237L12.133,19.255L12.204,19.272L12.276,19.288L12.347,19.303L12.419,19.317L12.491,19.33L12.564,19.343L12.637,19.355L12.71,19.365L12.784,19.375L12.858,19.384L12.932,19.392L13.006,19.399L13.081,19.405L13.156,19.411L13.231,19.415L13.307,19.418L13.383,19.421L13.459,19.422L13.536,19.423L13.612,19.422L13.688,19.421L13.764,19.418L13.84,19.415L13.915,19.411L13.99,19.405L14.065,19.399L14.139,19.392L14.214,19.384L14.287,19.375L14.361,19.365L14.434,19.355L14.507,19.343L14.58,19.33L14.652,19.317L14.724,19.303L14.796,19.288L14.867,19.272L14.938,19.255L15.009,19.237L15.079,19.218L15.149,19.199L15.219,19.179L15.288,19.158L15.357,19.136L15.425,19.113L15.493,19.089L15.561,19.065L15.628,19.04L15.695,19.014L15.762,18.987L15.828,18.96L15.894,18.931L15.96,18.902L16.025,18.872L16.089,18.842L16.153,18.81L16.217,18.778L16.28,18.745L16.343,18.712L16.405,18.677L16.467,18.642L16.529,18.606L16.59,18.57L16.65,18.532L16.71,18.494L16.77,18.456L16.829,18.416L16.888,18.376L16.946,18.335L17.003,18.294L17.061,18.252L17.117,18.209L17.173,18.165L17.229,18.121L17.284,18.076L17.338,18.031L17.392,17.985L17.445,17.938L17.498,17.891L17.55,17.843L17.602,17.794L17.653,17.745L17.703,17.695L17.753,17.645L17.802,17.594L17.851,17.542L17.899,17.49L17.946,17.437L17.993,17.384L18.039,17.33L18.084,17.276L18.129,17.221L18.173,17.165L18.217,17.109L18.26,17.053L18.302,16.995L18.343,16.938L18.384,16.88L18.424,16.821L18.464,16.762L18.502,16.702L18.54,16.642L18.578,16.582L18.614,16.521L18.65,16.459L18.685,16.397L18.72,16.335L18.753,16.272L18.786,16.209L18.818,16.145L18.85,16.081L18.88,16.016L18.91,15.951L18.939,15.886L18.968,15.82L18.995,15.754L19.022,15.687L19.048,15.62L19.073,15.553L19.097,15.485L19.121,15.417L19.144,15.349L19.166,15.28L19.187,15.211L19.207,15.141L19.226,15.071L19.245,15.001L19.263,14.93L19.28,14.859L19.296,14.788L19.311,14.716L19.325,14.644L19.338,14.572L19.351,14.499L19.363,14.426L19.373,14.353L19.383,14.279L19.392,14.206L19.4,14.131L19.407,14.057L19.413,13.982L19.419,13.907L19.423,13.832L19.426,13.756L19.429,13.68L19.43,13.604L19.431,13.528L19.43,13.451L19.429,13.375L19.426,13.299L19.423,13.223L19.419,13.148L19.413,13.073L19.407,12.998L19.4,12.924L19.392,12.85L19.383,12.776L19.373,12.702L19.363,12.629L19.351,12.556L19.338,12.483L19.325,12.411L19.311,12.339L19.296,12.267L19.28,12.196L19.263,12.125L19.245,12.055L19.226,11.984L19.207,11.914L19.187,11.845L19.166,11.775L19.144,11.707L19.121,11.638L19.097,11.57L19.073,11.502L19.048,11.435L19.022,11.368L18.995,11.301L18.968,11.235L18.939,11.169L18.91,11.104L18.88,11.039L18.85,10.974L18.818,10.91L18.786,10.846L18.753,10.783L18.72,10.72L18.685,10.658L18.65,10.596L18.614,10.534L18.578,10.473L18.54,10.413L18.502,10.353L18.464,10.293L18.424,10.234L18.384,10.175L18.343,10.117L18.302,10.06L18.26,10.003L18.217,9.946L18.173,9.89L18.129,9.835L18.084,9.78L18.039,9.725L17.993,9.671L17.946,9.618L17.899,9.565L17.851,9.513L17.802,9.462L17.753,9.411L17.703,9.36L17.653,9.31L17.602,9.261L17.55,9.213L17.498,9.165L17.445,9.117L17.392,9.071L17.338,9.024L17.284,8.979L17.229,8.934L17.173,8.89L17.117,8.847L17.061,8.804L17.003,8.762L16.946,8.72L16.888,8.679L16.829,8.639L16.77,8.6L16.711,8.561L16.65,8.523L16.59,8.486L16.529,8.449L16.467,8.413L16.405,8.378L16.343,8.344L16.28,8.31L16.217,8.277L16.153,8.245L16.089,8.214L16.025,8.183L15.96,8.153L15.894,8.124L15.828,8.096L15.762,8.068L15.695,8.041L15.628,8.015L15.561,7.99L15.493,7.966L15.425,7.942L15.357,7.919L15.288,7.898L15.219,7.876L15.149,7.856L15.079,7.837L15.009,7.818L14.938,7.801L14.867,7.784L14.796,7.768L14.724,7.752L14.652,7.738L14.58,7.725L14.507,7.712L14.434,7.701L14.361,7.69L14.288,7.68L14.214,7.671L14.139,7.663L14.065,7.656L13.99,7.65L13.915,7.645L13.84,7.64L13.764,7.637L13.688,7.635L13.612,7.633L13.536,7.633L13.459,7.633Z" style="fill:white;"/>
            </g>
        </g>
    </g>
</svg>