<svg version="1.1" xmlns="http://www.w3.org/2000/svg" xmlns:xlink="http://www.w3.org/1999/xlink" x="0px" y="0px" width="48px" height="48px" viewBox="0 0 24 24" enable-background="new 0 0 24 24" xml:space="preserve"><path fill="white" d="M1.114,20.999c-0.092,0-0.187-0.011-0.281-0.037c-0.484-0.129-0.823-0.574-0.824-1.082c-0.001-0.213,0.585-6.442,3.585-9.192c2.471-2.516,5.098-3.415,9.469-3.611l-0.033-4.255c0-0.453,0.415-0.812,0.827-0.985c0.413-0.173,0.892-0.079,1.206,0.243l8.384,8.501c0.375,0.38,0.431,0.973,0.142,1.418c-0.05,0.065-0.099,0.128-0.152,0.179c-0.334,0.342-8.373,8.493-8.373,8.493c-0.316,0.32-0.793,0.416-1.206,0.24c-0.412-0.174-0.827-0.646-0.827-1.102l-0.002-4.268c-0.279-0.012-0.789-0.026-1.156,0.005c-2.515,0.212-7.601,0.984-9.796,4.887C1.874,20.787,1.506,20.999,1.114,20.999z M10.636,13.699c1.364-0.177,1.812-0.214,3.238-0.105c0.721,0.036,1.12,0.771,1.12,1.344l0.049,3.35l6.534-6.912l-6.472-6.717l-0.024,3.155c0,0.62-0.717,1.05-1.326,1.072C5.823,9.16,3.969,12.281,1.901,17.846C4.096,15.024,7.469,14.188,10.636,13.699z"/></svg>