<svg version="1.1" xmlns="http://www.w3.org/2000/svg" xmlns:xlink="http://www.w3.org/1999/xlink" x="0px" y="0px" width="16px" height="16px" viewBox="0 0 16 16" enable-background="new 0 0 16 16" xml:space="preserve"><path fill="#444444" d="M12.621,2.674L8,7.299L3.376,2.674c-0.254-0.253-0.664-0.253-0.919,0c-0.254,0.254-0.253,0.667,0,0.919l4.622,4.625l-4.624,4.625c-0.254,0.255-0.253,0.665,0,0.917c0.255,0.256,0.666,0.256,0.921,0L8,9.136l4.626,4.625c0.251,0.256,0.665,0.256,0.919,0c0.253-0.252,0.253-0.666,0-0.917L8.922,8.219l4.623-4.624c0.253-0.253,0.253-0.667,0-0.919C13.291,2.421,12.877,2.421,12.621,2.674z"/></svg>