<svg version="1.1" xmlns="http://www.w3.org/2000/svg" xmlns:xlink="http://www.w3.org/1999/xlink" x="0px" y="0px" width="16px" height="16px" viewBox="0 0 16 16" enable-background="new 0 0 16 16" xml:space="preserve"><path fill="#000" d="M0.719,6.907c0,3.415,2.769,6.186,6.186,6.186c1.47,0,2.821-0.518,3.882-1.375l4.089,4.09c0.257,0.258,0.674,0.258,0.932,0c0.256-0.258,0.256-0.675,0-0.932l-4.089-4.09c0.856-1.061,1.372-2.411,1.372-3.882c0-3.417-2.769-6.186-6.188-6.186C3.487,0.719,0.719,3.49,0.719,6.907z M1.83,6.9c0-2.797,2.274-5.071,5.069-5.071c2.798,0,5.071,2.273,5.071,5.071s-2.271,5.071-5.071,5.071C4.104,11.971,1.83,9.696,1.83,6.9z"/></svg>